<svg version="1.2" xmlns="http://www.w3.org/2000/svg" viewBox="0 0 828 1792" width="828" height="1792">
	<title>stitch</title>
	<style>
		.s0 { opacity: .21;fill: #7d94ac } 
		.s1 { opacity: .44;fill: #363b62 } 
		.s2 { opacity: .94;fill: #2e295c } 
		.s3 { opacity: .97;fill: #712d57 } 
		.s4 { opacity: .97;fill: #40509c } 
		.s5 { opacity: .99;fill: #af639b } 
		.s6 { opacity: .99;fill: #f31e63 } 
		.s7 { opacity: .99;fill: #8fc1da } 
		.s8 { opacity: .99;fill: #ead8d2 } 
		.s9 { opacity: 1;fill: #13216e } 
		.s10 { opacity: 1;fill: #1a9dc8 } 
		.s11 { opacity: 1;fill: #2b66b9 } 
		.s12 { opacity: 1;fill: #080d47 } 
		.s13 { opacity: 1;fill: #1e51a7 } 
		.s14 { opacity: 1;fill: #7398c1 } 
		.s15 { opacity: 1;fill: #f9979a } 
		.s16 { opacity: 1;fill: #52a1d1 } 
		.s17 { opacity: 1;fill: #8cf2ed } 
		.s18 { opacity: 1;fill: #77a2d3 } 
	</style>
	<g id="Background">
		<path id="Path 0" class="s0" d="m720.4 749.5c0 6.6 0.1 9.1 0.3 5.5 0.2-3.6 0.2-9 0-12-0.2-3-0.3-0.1-0.3 6.5z"/>
		<path id="Path 1" class="s1" d="m606.5 640.5c-0.3 3.9-0.4 7.2-0.1 7.5 0.3 0.3 0.8-2.6 1.2-6.3 0.4-3.8 0.4-7.2 0.1-7.5-0.3-0.4-0.8 2.4-1.2 6.3zm-383.1 22.5c0 11.3 0.2 15.8 0.3 10 0.2-5.8 0.2-15 0-20.5-0.1-5.5-0.3-0.8-0.3 10.5zm381.2 1.5c-0.4 7.7-0.5 14.2-0.2 14.5 0.3 0.3 0.8-5.1 1.2-12 0.3-6.9 0.4-13.4 0.2-14.5-0.3-1.1-0.8 4.3-1.2 12zm-489.9 18.3c-1 3.1-1.6 5.9-1.3 6.2 0.3 0.3 1.1-2.1 1.9-5.4 0.8-3.2 1.4-6 1.3-6.2-0.1-0.2-0.9 2.2-1.9 5.4zm478.8 36.2c-2.2 8.2-3.8 15.2-3.5 15.4 0.3 0.3 2.1-6.2 4.2-14.5 2-8.3 3.5-15.2 3.5-15.5-0.1-0.2-2 6.4-4.2 14.6zm-21.9 106.3c-0.4 2.8-0.9 6.8-1.2 8.7-0.3 2.6-0.2 3 0.4 1.5 0.5-1.1 1.2-5 1.6-8.8 0.4-3.7 0.5-6.7 0.2-6.7-0.2 0-0.7 2.4-1 5.3zm-315.9 8.7c-1.5 2.2-3.2 3.8-3.7 3.5-0.6-0.3-1.1-2-1.1-3.7-0.1-2.8-0.2-2.9-0.6-0.8-0.3 1.4-0.2 3.5 0.1 4.8 0.3 1.2 1 2.2 1.6 2.2 0.5 0 2.3-2 4-4.5 1.6-2.5 2.9-4.7 2.7-5-0.2-0.3-1.6 1.3-3 3.5zm309.8 239c2.2 0.4 4.9 1 6 1.4l2 0.8c-3.2-2.6-5.6-3.2-8-3.1l-4 0.2zm40.7 12.5c-0.1 1.6-0.9 4.3-1.7 6-0.8 1.6-1.3 3.1-1 3.2 0.3 0.2 1.2-1.1 2-2.7 0.8-1.7 1.3-4.5 1.2-6.3l-0.4-3.2zm-2.9 12.4c-0.1 0.6 0.8 2.3 2 3.7 1.3 1.5 2.7 2.5 3.3 2.3 0.5-0.3-0.4-1.9-2.1-3.8-1.7-1.8-3.1-2.8-3.2-2.2z"/>
		<path id="Path 2" class="s2" d="m216.3 617.8c-0.3 0.9 0 5.3 0.8 9.7 1 5.5 1.4 16.6 1.4 35.8v27.7c6.1 0 6.4-0.3 5.9-2.2-0.3-1.3-1-16-1.4-32.8-0.4-19.5-1.1-31.3-1.9-32.7-0.6-1.3-1.1-3.4-1.1-4.8 0-1.6-0.6-2.5-1.5-2.5-0.9 0-1.8 0.8-2.2 1.8zm390.3 28.5c-0.3 2.8-0.6 7.6-0.6 10.5 0 4 0.4 5.2 1.5 5.2 1 0 1.6-1.3 2-4.2 0.2-2.4 0.6-7.1 0.8-10.5 0.3-5.4 0.2-6.3-1.3-6.3-1.4 0-1.9 1.2-2.4 5.3zm91.7 14.5c0.3 0.9 2.4 6.4 4.5 12.2 2.2 5.8 4.6 13.3 5.4 16.7 1.2 5.9 1.2 6.4-0.7 8.3-1.1 1.1-4.5 3.2-7.5 4.8-4.9 2.5-5.5 3.2-5.8 6.3-0.1 1.9 0.4 5.7 1.1 8.4l1.3 5c10.8 2.5 14.6 3.5 15.4 3.8 0.8 0.4 1.9 1.4 2.4 2.4 0.5 1 1.1 7.4 1.3 14.3 0.3 8 0 17.2-1 25.5-0.9 7.2-2.5 17.3-3.7 22.5-1.2 5.2-3.9 14.9-6.1 21.5-2.1 6.6-6.5 17.4-9.8 24-3.6 7.2-5.6 12.4-5.1 13 0.6 0.7 1.5 0.5 2.5-0.5 0.9-0.8 3.6-5.3 6-10 2.4-4.7 5.5-11.6 7-15.5 1.4-3.8 4.2-12.6 6.1-19.5 1.9-6.9 4.4-18.1 5.6-25 1.5-8.8 2.1-17.1 2.2-28 0.1-8.5-0.2-17.6-0.7-20.2-0.6-3.9-1.3-5.2-4-6.8-1.7-1.1-5.7-2.2-8.7-2.6-3-0.3-6.1-0.9-6.8-1.2-0.7-0.4-1.7-2.5-2.2-4.7-0.5-2.2-1-5-1-6.2 0-1.8 1.1-2.8 5.2-4.6 2.9-1.3 6.8-3.8 8.5-5.5 2.2-2.1 3.3-4.2 3.3-5.9 0-1.6-0.7-5.3-1.5-8.3-0.8-3-3-10.1-5-15.7-3.3-9.6-3.7-10.3-6.2-10.3-2 0-2.5 0.4-2 1.8zm-92.7 6.5c-0.3 0.6-0.7 5.3-1.1 10.2-0.4 5-0.9 9.6-1.1 10.3-0.3 0.8 0.8 1.2 3.3 1.2h3.8c-1.1-8.1-1.5-13.3-1.5-16.7 0-5-0.3-6.3-1.5-6.3-0.9 0-1.7 0.6-1.9 1.3zm-7 36c-0.2 0.6-0.9 3-1.5 5.2-0.6 2.2-1.1 4.8-1.1 5.8 0 1.1 0.6 1.6 1.7 1.4 1.3-0.1 2.2-1.8 3-5.2 0.6-2.8 1.2-5.8 1.2-6.7 0.1-1-0.6-1.8-1.4-1.8-0.9 0-1.7 0.6-1.9 1.3zm-212.6 2.7c0 1.6 0.7 2 3.2 2 2.1 0.1 3.9-0.7 5-2 1.6-2 1.5-2-3.3-2-4.2 0-4.9 0.3-4.9 2zm-279.4 14.3c-0.3 1.7-0.6 4-0.6 5 0 1 0.8 1.7 2 1.7 1.2 0 2-0.7 2-1.7 0-1 0.1-3.3 0.3-5 0.2-2.6-0.1-3.3-1.4-3.3-1.1 0-1.9 1.1-2.3 3.3zm260.6 11.8c-1.2 0.5-3.1 1.8-4.2 2.9-1.2 1.2-2 3.4-2 5.3 0 2.3 0.8 4.1 3 6.2 2.9 2.9 3.1 2.9 4.8 1.1 1.2-1.3 1.4-1.9 0.4-2.2-0.6-0.2-1.9-1.9-2.8-3.6-1.4-3-1.4-3.4 0.1-4.8 1-1 4.4-1.7 9.5-2 6.4-0.4 8-0.8 8.5-2.2 0.4-1.6-0.3-1.8-7.3-1.7-4.2 0-8.7 0.4-10 1zm68.8-0.3c0.1 0.4 1.1 3.9 2.4 7.7 1.3 3.9 2.9 7.1 3.5 7.3q1.1 0.2 0.5-3.5c-0.3-2.1-1-5.7-1.7-8.1-0.8-3-1.7-4.2-3-4.2-0.9 0-1.7 0.3-1.7 0.8zm154.5 3.5c-0.2 0.6-1.2 4.4-2.1 8.2-0.9 3.9-2.2 9.9-3 13.5-0.8 3.6-1.4 7.3-1.4 8.3 0 0.9 0.7 1.7 1.5 1.7 0.9 0 1.8-1.5 2.4-3.7 0.4-2.1 2-9 3.5-15.3 1.4-6.3 2.6-12.1 2.6-12.7 0-0.7-0.7-1.3-1.5-1.3-0.9 0-1.7 0.6-2 1.3zm-485.9 4.5c-0.3 2.6-0.6 7.9-0.6 11.7 0 3.9 0.7 13.8 1.5 22 0.8 8.3 2.3 18.8 3.4 23.5 1.1 4.7 3.6 13.2 5.6 19 2 5.8 5.8 14.8 8.4 20 2.6 5.2 7.2 13.1 10.2 17.4 3 4.4 8.3 11.1 11.9 14.9 3.6 3.9 9.2 9.3 12.5 12 5.9 4.9 6 4.9 6.8 2.6 0.6-2 0.2-2.8-2.5-4.8-1.8-1.3-7.1-6.3-11.8-11-4.7-4.7-10.9-12.2-13.8-16.6-2.9-4.4-7.8-12.9-10.7-19-3-6-5.6-11.9-5.8-13-0.2-1.1-0.8-2.9-1.4-4-0.7-1.1-2.5-7.2-4.1-13.5-1.7-6.3-3.8-17.8-4.7-25.5q-1.7-14-1.3-27.2c0.4-12 0.2-13.3-1.3-13.3-1.2 0-1.8 1.2-2.3 4.8zm130 5.8c-0.6 1.2-0.4 4.6 0.3 8.9 0.7 3.9 2.5 14.2 4.1 23 1.5 8.8 3.5 22.5 4.4 30.5 0.9 8 1.7 16.8 1.9 19.5 0.2 4.5 0.5 5 2.7 5.4l2.5 0.3c-1.2-11.4-2.5-21-3.6-28.7-1.1-7.7-3.8-24.1-6-36.5-2.2-12.4-4.4-22.9-4.7-23.4-0.4-0.5-1.1-0.1-1.6 1zm117.9 9.4c-2.2 0.5-6.9 1.9-10.5 3.3-3.6 1.3-10.1 4.2-14.5 6.4-4.4 2.3-12.1 6.8-17 10.1-5 3.3-12.4 9.1-16.5 12.7-4.1 3.7-10.3 9.9-13.7 13.8-3.5 4-6.3 7.5-6.3 8 0 0.4 0.9 0.9 2 1.2 1.4 0.3 2.2 1.6 2.5 4l0.5 3.5c7.7-4.6 12-6.6 14.5-7.2 2.5-0.7 4.5-1.5 4.5-1.8 0-0.3-0.7-1.3-1.5-2.2-1.2-1.5-2.1-1.6-4.5-0.8q-3 1-3 0c0-0.5 1-1.3 2.2-1.6 2.1-0.5 2.1-0.7 0.8-2.1-1.2-1.1-2-1.2-3.8-0.4-1.2 0.6-2.4 1-2.7 0.9-0.3-0.2 2.7-3.4 6.7-7.2 4-3.8 10.7-9.4 14.8-12.5 4.1-3.1 9.3-6.8 11.5-8.2 2.2-1.5 7.6-4.4 12-6.6 4.4-2.2 12.4-5.6 17.7-7.4 7.4-2.6 9.8-3.8 9.8-5.1 0-1-0.3-1.8-0.8-1.7-0.4 0.1-2.5 0.5-4.7 0.9zm261.6 45.9c-0.1 3.9 0 4.1 2.9 4.1 2.8 0 3-0.2 2.7-3.7-0.2-3.3-0.6-3.8-2.9-4.1-2.5-0.3-2.7-0.1-2.7 3.7zm-115.7 5.2c-1.8 1.8-1.8 2-0.2 1.9 1.5 0 1.3 0.7-1.2 3.8-1.7 2-3 4.3-3 5 0 0.6 0.6 1.2 1.2 1.2 0.7 0.1 2.5-1.5 4-3.5 1.6-1.9 2.8-4.8 2.9-6.4 0.1-1.7-0.3-3.2-0.9-3.5-0.5-0.3-1.8 0.4-2.8 1.5zm-84.4 63.2c0 1.8 0.7 2.3 4.2 2.9 2.4 0.4 4.7 0.3 5.2-0.3 0.6-0.6 0.6-0.9-0.2-0.9-0.7 0-1-0.6-0.7-1.2 0.4-0.8-0.4-1.6-1.7-2-1.3-0.4-3.3-0.8-4.6-0.8-1.6 0-2.2 0.6-2.2 2.3zm-177.9 3.2c-0.6 1.4-1.1 3.1-1.1 3.8q0 1.2 3 0.7c2-0.3 2.9-1 2.5-1.7-0.3-0.7-0.5-2.2-0.5-3.3 0-1.1-0.6-2-1.4-2-0.7 0-1.9 1.1-2.5 2.5zm-14.7 39.5c0.3 0.6 1.8 1.5 3.3 2 2.1 0.7 3.1 0.7 4.1-0.2 0.7-0.7 1.3-1.6 1.2-2 0-0.5-2.1-0.8-4.6-0.8-2.8 0-4.4 0.4-4 1zm-23.5 10.5c-0.8 0.9-1.2 1.7-0.9 1.8 0.3 0.2 2.1 1.3 4 2.5 1.9 1.2 4.1 2.2 4.7 2.2 0.7 0 1.3-0.6 1.3-1.2-0.1-0.7-1.4-2.5-3-4-1.7-1.6-3.4-2.8-3.9-2.8-0.5 0-1.5 0.7-2.2 1.5zm396.3 14c-2.4 1.2-3.1 2-2.7 3.5 0.3 1.1 0.6 2 0.7 2 0.2 0 2-0.6 4-1.5 2.1-0.8 3.8-1.7 3.8-2 0-0.3-0.2-1.2-0.5-2-0.3-0.8-0.8-1.5-1.3-1.5-0.4 0.1-2.2 0.7-4 1.5zm-353.2 20.3c0.1 0.4 2 3.3 4.3 6.4 2.3 3.2 4.4 5.8 4.7 5.8 0.3 0 1-1.7 1.7-3.7 0.9-2.9 0.9-4 0-4.5-0.7-0.4-1.7-0.4-2.2-0.1-0.6 0.3-2-0.1-3.3-0.8-1.2-0.8-2.2-2-2.2-2.6 0-0.7-0.7-1.3-1.5-1.3-0.8 0-1.5 0.3-1.5 0.8zm70.8 66.5c-2.6 5.6-4.8 10.5-4.8 11 0 0.4 0.8 0.9 1.7 1.1 1.4 0.3 2.7-1.8 6.2-9.8 3.6-8.4 4.1-10.3 3-11.3-1.2-1.1-2.2 0.5-6.1 9zm-11.1 27.8c-0.4 0.8-1.5 3.9-2.5 6.9q-1.9 5.5-4.3 6.7c-1.3 0.7-6.2 3-10.9 5.1-4.7 2.1-9.5 4.8-10.8 6-1.2 1.2-2.2 2.5-2.2 3 0 0.4 0.4 1.3 0.8 2 0.5 1.1 1.9 0.6 5.7-2.1 2.7-2 7.6-4.7 10.7-6.1l5.8-2.6 4.3 5.5c5.2-16.3 6.8-21.5 6.9-22.1 0.2-0.6-0.4-1.7-1.3-2.4-1.3-1-1.7-1-2.2 0.1zm216.3 10.8c-0.8 0.5-1.2 1.4-0.8 2 0.5 0.6 1.7 1.1 2.8 1.1 1.4 0 1.9-0.6 1.7-2-0.2-1.1-0.8-2-1.3-2-0.5 0-1.6 0.4-2.4 0.9zm63.6 13.4c-2.4 2.9-3.2 4.6-2.5 5.5 0.7 0.9 1.5 0.7 3.3-1 1.3-1.3 2.6-3.8 2.9-5.5 0.3-1.8 0.4-3.3 0.2-3.3-0.2 0-1.9 1.9-3.9 4.3zm-330.6-2.6c-1.4 0.3-4.2 1.9-6.3 3.7-2.6 2.1-3.5 3.4-2.8 4.1q1 1 2.6-0.2c0.8-0.7 1.8-1.2 2.2-1.2 0.5 0.1 2.1 0.1 3.8 0 2.5 0 3.2-0.7 4.2-3.6 1-2.8 1-3.5 0-3.4-0.6 0.1-2.3 0.4-3.7 0.6zm26.5 18.1c-1 1-1.8 2.4-1.7 3 0.1 0.7 1 1.4 1.9 1.6 1 0.2 2.6 0.6 3.5 1 1.5 0.5 1.8 0 1.8-3.4 0-3.2-0.4-4-1.9-4-1 0-2.6 0.8-3.6 1.8zm-65 8.9l-3 3.5c-7.2-3.5-10.4-4.2-14.5-4.2-3.3 0-7.2 0.5-8.8 1.1-2.6 1-2.6 1.1-0.7 2.2 1.1 0.6 4.7 1 8 0.9 5.4-0.3 6.6 0 11.7 3.2 3.4 2.1 5.8 3.1 5.8 2.4 0-0.7 1.8-3.1 4-5.3 2.7-2.6 3.9-4.6 3.5-5.7-0.3-1-1.1-1.8-1.8-1.7-0.6 0-2.6 1.7-4.2 3.6zm-18.3 40c0 2.6 0.3 5.9 0.6 7.2 0.4 1.3 1.4 2.7 2.2 3 1.2 0.4 1.3 0 0.7-1.7-0.4-1.4-0.3-2.3 0.4-2.4 0.8-0.2 0.7-1.7-0.2-5.2-0.8-2.7-1.9-5.1-2.5-5.3-0.8-0.3-1.2 1.2-1.2 4.4zm402 9.1c-1.3 1-2.1 2.3-1.7 3.2 0.3 0.9-0.7 2.9-2.5 4.8-1.6 1.7-3.1 3.5-3.1 4-0.1 0.4-0.2 1.8-0.3 3 0 1.3 0.2 2.6 0.6 2.8 0.5 0.2 1.6-0.9 2.5-2.6 1-1.6 2.5-2.9 3.2-2.7 0.9 0.1 2.2-1.5 3.2-4.3 1-2.5 1.8-5.7 1.8-7.2 0.1-1.6-0.2-2.8-0.7-2.8-0.4 0-1.7 0.8-3 1.8zm-1.2 35.2q0 2-2 2c-1.1 0-2.3 0.7-2.8 1.5-0.4 0.8-0.4 1.7 0 2 0.5 0.3 2-0.1 3.5-0.9 1.6-0.7 3.3-2 4-2.7 0.9-1.1 0.8-1.7-0.7-2.7-1.7-1.1-2-1-2 0.8zm-342 9.5c0 0.8-0.8 1.5-1.8 1.6q-1.7 0.1 0.8 0.9c1.4 0.4 6.4 0.8 11.2 0.9l8.8 0.1c-2.4-4.9-2.9-5.1-10.8-5-6.6 0-8.2 0.3-8.2 1.5z"/>
		<path id="Path 3" class="s3" d="m187.8 586.8c-4 2-10.2 6-13.8 8.7-3.6 2.7-8.6 7.1-11.3 9.7-3.6 3.7-4.7 5.5-4.7 8.1l-0.1 3.2c10.6-10.8 17-16.2 21.1-18.9 4.1-2.7 9.5-6 12-7.3 2.5-1.3 6.1-2.6 8-2.9 2.8-0.4 4-0.1 5.8 1.8 1.3 1.3 3.6 5.7 5.1 9.8 1.6 4.1 3.4 10 4.1 13 1.2 5.2 1.4 5.5 3.6 4.5 1.3-0.5 2.4-1.2 2.4-1.5 0-0.3-1.1-4.4-2.5-9.2-1.4-4.9-3.6-11-5-13.8-1.4-2.7-3.4-5.9-4.5-7-1.5-1.5-3.3-2-7.4-2-4.3 0-7 0.8-12.8 3.8zm436.4-2c-1 0.9-3 3.7-4.4 6.2-1.5 2.5-3.2 6.8-3.8 9.5-0.6 2.8-1.5 5.5-1.9 6-0.5 0.5-1.1 3-1.5 5.5-0.4 2.5-1.1 5-1.6 5.5-0.4 0.5-1.1 3-1.4 5.5-0.3 2.5-0.9 7.5-1.1 11.3-0.4 5.5-0.2 6.7 1 6.7 1 0 1.7-1.3 2.1-3.7 0.3-2.1 1.5-8.3 2.5-13.8 1.1-5.5 2.7-12.2 3.5-15 0.9-2.7 1.9-5.9 2.4-7 0.4-1.1 1.6-4 2.6-6.4 1.1-2.4 2.6-5.2 3.5-6.2 0.8-1.1 2.6-1.9 4-1.9 1.3 0 4.7 1.2 7.4 2.6 2.8 1.5 8.1 5 12 7.9 3.9 2.9 10.7 9 15.3 13.6 4.5 4.6 11.2 12.4 14.7 17.4 3.5 5 9 13.8 12.2 19.7 4.7 8.8 6.2 10.8 8.1 10.8 1.2 0 2.2-0.4 2.2-1 0-0.5-1.9-4.7-4.1-9.2-2.3-4.6-7.5-13.4-11.5-19.5-4.3-6.5-11.3-15.4-16.6-20.9-5.1-5.3-11.8-11.6-14.8-13.9-3-2.3-8.4-5.9-12-7.9-5.1-2.8-7.6-3.6-11.7-3.6-3.7 0-5.8 0.5-7.1 1.8zm-465 35.5c0.3 1.2 0.8 3 1.2 4 0.5 1.4 0.1 1.7-2.1 1.6-1.6 0-3.7-0.4-4.8-0.8-1.1-0.5-3.3-0.4-5 0.1-1.6 0.4-4.3 2.1-5.9 3.6-1.5 1.5-4.7 5.6-7.1 9.2-2.3 3.6-6 9.9-8.2 14-2.3 4.1-5.4 11.1-7.1 15.5-1.7 4.4-3.6 10.5-4.2 13.5-0.7 3-1.8 6.4-2.5 7.5-0.7 1.1-1.6 4.5-2 7.5-0.4 3-1.3 6.9-2.1 8.5-0.8 1.7-1.4 5.1-1.4 7.8 0 3.1 0.4 4.7 1.3 4.7 0.7 0 2.2-4.5 3.9-12.2 1.5-6.8 4.3-17 6.2-22.8 1.9-5.8 5-13.9 6.8-18 1.8-4.2 5.6-11.6 8.3-16.5 2.8-4.8 7.3-11.2 10-14.1l5-5.3c11.6 0.9 15.6 1.7 16.4 2.3 1.2 0.9 1.3 0.7 0.6-1.4-0.5-1.4-2-4.4-3.4-6.8-1.4-2.3-3-4.2-3.5-4.2-0.5 0-0.7 1-0.4 2.3zm-53.6 109c-0.3 1.2-0.6 3-0.6 4 0 1 0.8 1.7 2 1.7 1.5 0 2-0.7 2-2.5 0-1.4 0.2-3.2 0.5-4 0.3-1-0.2-1.5-1.4-1.5-1.1 0-2.1 0.9-2.5 2.3zm387.6 83.5c-1.7 2.6-3.9 7.4-5.1 10.7-1.1 3.3-2.3 8.5-2.6 11.5-0.5 4-0.4 5.1 0.4 4 0.6-0.8 1.1-2.3 1.1-3.2 0-1 0.3-1.8 0.7-1.8 0.5 0 1.8-2 3-4.5 1.3-2.5 3.9-6.3 5.8-8.5 1.9-2.2 3-4.2 2.5-4.5-0.6-0.3-1.2 0-1.5 0.5-0.3 0.6-1.2 1-2 1-0.8 0-1.5-0.6-1.5-1.2 0-0.7 1.3-3 2.9-5 2.5-3.3 2.6-3.8 1.1-3.8-1.1 0-3.1 1.9-4.8 4.8zm15 43.2c-1.7 1.1-3.4 1.7-3.7 1.3-0.2-0.5-1.2 0.7-2.2 2.4-1 1.8-2.1 3.3-2.6 3.3-0.4 0-0.5-1.2-0.2-2.7 0.4-2.2 0-1.8-2 1.7-1.3 2.5-2.4 4.8-2.5 5.3 0 0.4 0.6 0.5 1.2 0.2 0.8-0.4 1.6 0.4 2 1.7 0.4 1.3 0.3 2.4-0.2 2.6-0.6 0.1-1 0.9-1 1.7 0 0.8-0.8 1.9-1.8 2.4-1.1 0.7-1.6 1.9-1.5 4 0.3 2.8 0.1 3-1.7 2.1-1.1-0.5-2.3-0.9-2.6-0.7-0.3 0.1-0.3 1.2 0 2.5 0.4 1.3 1.4 2.2 2.6 2.2 1.5 0 2.2 0.9 2.6 3.3 0.5 2.3 0.8 2.8 1.4 1.7 0.5-0.8 0.6-2.1 0.4-2.7-0.2-0.7 0.5-2.3 1.6-3.5 1.1-1.3 2-1.8 2-1.3-0.1 0.5 0.6 0.4 1.5-0.2 0.8-0.7 1.2-1.9 0.8-2.5-0.4-0.7-0.9-2-1.1-2.8-0.2-0.8-0.6-3.1-0.9-5-0.4-2.4 0.1-4.8 1.5-7.5 1.1-2.2 3.2-5.1 4.7-6.5 1.4-1.4 4.5-3 6.8-3.7 3.8-1 3.9-1.1 1.2-1.2-1.6-0.1-4.5 0.8-6.3 1.9zm-268.9 9.8c-0.7 2.2-0.8 3.8-0.2 4 0.5 0.1 0.9 1.4 0.9 3-0.1 2.3 0.1 2.5 1.5 1.5 0.8-0.7 1.4-1.6 1.3-2-0.1-0.5 0.2-1.9 0.6-3.3 0.6-1.8 0.4-2.8-0.8-3.7-0.9-0.7-1.4-1.8-1.2-2.3 0.2-0.5 0-1-0.3-1-0.4 0-1.2 1.7-1.8 3.8zm-6.3 17c0 0.4-0.9 5.2-2 10.7-1.1 5.5-1.8 10.8-1.5 11.8 0.3 0.9 0 1.7-0.5 1.7q-1 0 0 2.8c0.6 1.6 0.7 3.1 0.1 3.7-0.5 0.6-0.6 4.2-0.1 8.5 0.4 4.1 1.2 9.5 1.6 11.9l0.9 4.3c-12.4-6-18.1-9-20.8-10.5-2.6-1.5-5-2.5-5.4-2.2-0.3 0.3-0.1 0.5 0.5 0.5 0.7 0 1 0.9 0.7 2-0.4 1.7 1.1 2.8 9.7 7.1 5.7 2.8 11.8 6 13.7 7.2 1.9 1.2 4.6 4 6 6.2 1.5 2.2 3 4.8 3.4 5.8 0.4 1 1.8 1.7 3.2 1.7 1.4 0 2.5-0.2 2.5-0.5 0-0.3-1.5-3.1-3.3-6.2-1.9-3.2-3.9-7.4-4.5-9.3-0.6-1.9-1.4-8.2-1.8-14-0.4-5.8-0.9-16.1-1-23-0.2-6.9-0.3-14.4-0.3-16.7-0.1-2.4-0.3-4.3-0.6-4.3-0.3 0-0.5 0.3-0.5 0.8zm350.2 60.5c-0.6 2.6-1.7 4.7-2.2 4.7-0.6 0-1 0.8-1 1.8 0 0.9-0.9 3.2-2 5-1.1 1.7-2 3.9-2 4.7 0 0.8 0.6 1.5 1.2 1.5 0.7-0.1 1.9-0.8 2.6-1.8 0.7-0.9 2.6-4.4 4.3-7.7 1.7-3.4 2.6-6.2 2.1-6.5-0.6-0.3-1.2-1.8-1.4-3.5-0.3-2.7-0.4-2.6-1.6 1.8zm-123.9 41.5c0 0.9 0.5 2 1.1 2.4 0.6 0.4 1.8 0.8 2.6 0.8q1.5 0 1.2-2.5c-0.1-1.9-0.8-2.5-2.5-2.5q-2.4 0-2.4 1.8zm-152.3 51.5c0.1 0.6-0.6 1.9-1.5 2.7-0.9 0.8-2.2 3.5-3 6-1.4 4.2-1.4 4.6 0.5 6.5 1.9 2 1.9 2 2.6-1 0.4-1.7 1.2-3.9 1.7-5 0.6-1.1 1.2-2.5 1.3-3 0.1-0.5 0.5-2.5 0.7-4.2 0.3-2.4 0.1-3.3-0.9-3.3-0.8 0-1.4 0.6-1.4 1.3zm134.7 35.7c-2 2.8-3.7 5.7-3.7 6.5 0 0.8-0.4 1.6-0.9 1.8-0.4 0.1-2.9 4.1-5.5 9-2.5 4.8-4.6 9.5-4.6 10.5 0 1.4 0.2 1.3 1.5-0.5 0.8-1.3 2.2-2.1 3-1.8 1 0.3 1.9-0.5 2.5-2.2 0.6-1.6 0.8-2.9 0.5-3-0.3-0.2 0.4-1.3 1.5-2.5 1.1-1.3 1.9-2.7 1.8-3.2-0.2-0.5 0.7-2 1.9-3.3 1.3-1.3 2.1-2.8 1.8-3.3-0.3-0.5-0.2-1 0.2-1 0.5 0 2.1-2.1 3.8-4.6 2.7-4 2.8-4.7 1.5-5.9-1.4-1.3-2-0.8-5.3 3.5zm-59.8 13q1.1 2 0.1 2.5c-0.6 0.3-1 1.5-1 2.8 0 1.2 0.8 3.2 1.8 4.5 1.5 1.9 2 2.1 3.5 1 1.8-1.3 1.8-1.5-0.7-7-1.5-3.2-3.1-5.8-3.7-5.8q-1 0 0 2zm195.4 8.5c0 2.2-0.3 5.8-0.7 8l-0.8 4c2.5-4.7 3.2-7.3 3.2-9-0.1-1.7-0.5-3.9-1-5-0.6-1.5-0.8-1-0.7 2zm-344.3 29.6c-1.4 0.5-2.3 1.1-2 1.3 0.3 0.3 3.1 0.2 6.3-0.2 3.1-0.4 5.7-1 5.7-1.4 0-0.5-1.7-0.8-3.8-0.7-2 0-4.8 0.5-6.2 1zm343.3 1.9c-0.3 2.6 0 2.9 1.7 2.5 1.4-0.4 1.8-1 1.2-2.2-0.6-1.4-0.3-1.6 2-1 1.6 0.4 4.3 1.6 6 2.8 1.8 1.2 4.5 3.9 6 6 1.6 2.1 2.8 4.9 2.8 6.2 0 1.7 0.2 2 1.2 1 1.1-1 0.8-2.2-1.2-5.9-1.4-2.6-3.9-5.8-5.5-7.2-1.7-1.4-4.5-3.1-6.3-3.9-1.7-0.7-4.2-1.3-5.5-1.3-1.7 0-2.3 0.6-2.5 3zm-352.9 4.7c-1.5 2.1-3.3 5.3-4 7.3-0.7 1.9-1.2 6.3-1.3 9.8 0 3.4 0.7 8 1.5 10.2 0.8 2.2 1.9 4 2.3 4 0.5 0 1.2-0.2 1.5-0.5 0.4-0.3-0.2-3-1.3-6-1.1-3-2-6.7-2-8.2 0-1.6 0.7-5.2 1.5-8 0.9-3.1 2.9-6.7 4.8-8.8 2.6-2.8 3-3.5 1.6-3.5-1 0-3.1 1.7-4.6 3.7zm-26.5 17.9c0.4 1 0.1 1.9-0.8 2.4-1.3 0.7-0.9 2 2.1 8.2 2 4 5.4 9.6 7.4 12.3 2.1 2.8 5 6.3 6.4 7.8 1.4 1.6 5.1 4.5 8.1 6.5 3 2 7.1 4.4 9 5.4 1.9 1 3.8 1.8 4.2 1.8 0.5 0 0.8-1 0.8-2.2 0.1-1.7-1-2.8-4.1-4.3-2.3-1.1-8-5.6-12.5-10-4.6-4.4-8.4-8.8-8.4-9.7 0-1-0.7-2-1.5-2.3-0.8-0.3-3.3-4.3-5.5-9-2.2-4.7-4.4-8.5-5-8.5-0.5 0-0.6 0.7-0.2 1.6zm382.7 26.9c0.3 1-0.2 1.5-1.5 1.5-1.1 0-2 0.5-2 1 0 0.5 0.6 1 1.2 1 0.7 0 2.6-1.1 4.3-2.5l3-2.4c-4.7-0.1-5.3 0.3-5 1.4zm20.6 2.8c-1.8 1.8-1.9 2.4-0.9 3.5 1.1 1 1.5 1 2.4 0 0.6-0.7 1.4-2.3 1.8-3.5 0.3-1.3 0.2-2.3-0.2-2.3-0.5 0-1.9 1-3.1 2.3zm-11.3 8c-2 1.2-3.8 2.4-4.1 2.7-0.3 0.3 0.7 0.3 2 0 1.4-0.3 2.7-0.8 2.9-1.2 0.2-0.5 1.3-0.8 2.4-0.8 1.1 0 2-0.7 2-1.5 0-0.8-0.3-1.5-0.8-1.4-0.4 0-2.3 1.1-4.4 2.2z"/>
		<path id="Path 4" class="s4" d="m404 754.7l-5.5 2.8c7 0.5 9.7 0.3 10.3-0.2 0.7-0.4 1.2-1.8 1-3.1l-0.3-2.2zm-3 9.5c-1.3 0.6-2.3 1.6-2.2 2.2 0.1 0.7 1.3 0.8 3.4 0.3 1.8-0.4 3.8-0.8 4.5-0.7 0.7 0 1.3-0.7 1.3-1.5 0-0.9-0.9-1.5-2.3-1.5-1.2 0.1-3.3 0.6-4.7 1.2zm20.2 86c0.2 1.6 1.1 2.4 2.8 2.6 1.4 0.1 2.9-0.2 3.5-0.7 0.6-0.7-0.1-1.5-2.3-2.6-1.8-0.8-3.5-1.5-3.8-1.5-0.3 0-0.4 1-0.2 2.2zm-39.2 9.3c-1.8 0.8-3.3 1.6-3.2 1.9 0.1 0.3 1 0.6 1.9 0.6 1 0 2.7-0.6 3.8-1.4 1.1-0.8 1.7-1.7 1.4-2-0.3-0.2-2.1 0.2-3.9 0.9zm23.5 12.5c1.1 0.4 2.7 1 3.5 1.4 0.9 0.3 1.7 1 1.8 1.5 0.1 0.6-0.8 1.3-2.1 1.6-1.2 0.2-3.9 0.4-6 0.5-2 0-3.9 0.4-4.2 1-0.3 0.5 0.6 1.4 2 2 1.4 0.5 3.3 2.1 4.2 3.6 1.7 2.4 1.7 2.7-0.5 7-1.9 3.7-3.3 4.9-9 7.6-5.2 2.5-8 3.2-12.6 3.3-5.7 0-5.9-0.2-9.8-4.5l-3.9-4.5c-4 3.8-6.5 7.4-8.2 10.5-2.2 4.1-3.2 5.1-3.8 4-0.5-1.1-1-0.1-1.4 3-0.4 2.4-0.5 6-0.3 8 0.2 2.5 0.8 3.5 2.3 3.8 1.1 0.2 2.3-0.4 2.7-1.3 0.4-0.8 1.8-1.5 3-1.5 1.3 0 3.9 1.7 6 4 2.1 2.2 5 6 6.5 8.6 2.2 3.6 3.2 4.4 4.8 4 1.1-0.3 6.7-1.1 12.5-1.7 5.8-0.6 10.9-1.5 11.5-2 0.5-0.5 3.5-1.2 6.5-1.5 3-0.4 8.4-1.5 12-2.5 5.3-1.4 7.1-2.5 9.5-5.6 1.6-2.1 3.8-5.6 4.8-7.8 0.9-2.2 1.7-4.6 1.7-5.3 0-0.7 1.1-2.6 2.5-4.2 1.4-1.7 2.5-3.6 2.4-4.3 0-0.7 0.9-2.5 2-4 1.2-1.5 2.8-2.7 3.6-2.7 0.8 0 1.5-0.9 1.5-2 0-1.2-2.3-4-5.3-6.8-3-2.6-6.7-5.4-8.3-6.2-1.6-0.8-4-2.3-5.4-3.2-1.4-1-6.6-2.4-11.5-3.3-5-0.8-10.8-1.5-13-1.5-3.1 0.1-3.6 0.3-2 1zm-169.4 63.2c0 1.3 0.6 3.8 1.3 5.8 0.7 1.9 1.4 3.5 1.7 3.4 0.2 0 1.4-0.6 2.7-1.5l2.2-1.4c-3.6-6.9-5.2-8.6-6.3-8.6q-1.7 0.1-1.6 2.3zm157.4 98c-0.2 0.7-0.8 2.8-1.4 4.8-0.7 1.9-1.1 5.2-1.1 7.2 0 2.1 0.4 3.8 1 3.8 0.5 0 0.8 0.4 0.5 1-0.3 0.5-0.2 1 0.2 0.9 0.4 0 1.6-0.8 2.6-1.7 1.7-1.6 1.7-1.6 1.7 0 0 1 0.4 1.8 1 1.8 0.5 0 1 0.6 1 1.5 0 0.8 0.4 1.5 1 1.5 0.5 0 1.2-2.6 1.4-5.8 0.3-3.1 0.7-7.1 1.1-8.7l0.6-3c-3.6 3.9-5.6 6.3-6.9 8-1.2 1.6-2.5 2.7-2.8 2.5-0.3-0.3-0.2-1.7 0.2-3 0.4-1.4 2.3-4.2 4.3-6.3 2-2.1 3.4-3.9 3.1-4.1-0.3-0.2-2-0.6-3.8-1q-3.3-0.6-3.7 0.6zm-34.5 13.2c0 0.3 0.5 2.7 1.1 5.3 0.6 2.6 1.6 6 2.2 7.5 0.7 1.5 1.5 2.8 1.9 2.8 0.4 0 1-0.6 1.2-1.3 0.2-0.7 0.5-0.4 0.5 0.5 0 1 0.8 2 1.6 2.3 1.3 0.4 1.4-0.6 0.9-6.3-0.2-3.7-0.6-7.6-0.8-8.7-0.2-1.6-1.2-2.1-4.4-2.3-2.3-0.2-4.1-0.1-4.2 0.2zm88 13.3c0 4.6 0 4.7 1.5 2.5 0.8-1.2 2-2 2.7-1.7 0.7 0.3 1.6-0.4 2-1.7 0.4-1.3 0.8-2.7 0.8-3.1 0-0.4-1.6-0.7-3.5-0.7h-3.5zm-227.5 7.5c-0.6 0.7-2 2.8-3.2 4.7-1.4 2.4-1.9 4.7-1.7 7.3 0.3 3.2 0.8 3.8 3.1 4.2 1.6 0.2 5.3 0.7 8.3 1.1 4 0.5 5.8 0.3 6.6-0.7 0.6-0.8 1.3-4 1.5-7.1 0.3-4.4 0-5.9-1.1-6.4-0.8-0.4-2.1-0.8-2.8-1-0.6-0.2-1.4 0.1-1.7 0.6-0.3 0.6-1.4 1-2.5 1-1.5 0-1.9-0.6-1.8-2.5 0.2-1.9-0.2-2.4-1.7-2.4-1.1 0-2.5 0.5-3 1.2zm-32.4 40c-0.6 0.7-0.9 2-0.6 3 0.3 0.9 1.1 1.7 1.7 1.8 0.7 0 1.9-0.7 2.5-1.5 0.7-0.9 1.1-2.3 0.8-3.1-0.3-0.8-1.1-1.5-1.9-1.5-0.8 0-1.9 0.6-2.5 1.3zm344.6 28.5c-0.2 0.4-1 2.9-1.8 5.6-1.3 4.6-1.3 4.9 0.6 6.2 1.1 0.8 3.3 1.4 5 1.4 2.6-0.1 3.5-0.9 6.3-5.8 3.1-5.4 3.2-5.8 1.5-7-1-0.6-3.9-1.2-6.5-1.2-2.6 0-4.9 0.4-5.1 0.8z"/>
		<path id="Path 5" class="s5" d="m697.1 665.8c-0.4 0.9-1.9 6.2-3.1 11.7-1.3 5.5-3.6 13.9-5.1 18.8-1.6 4.8-2.9 10.8-2.9 13.5 0.1 3.6-0.5 5.2-2.1 6.7-1.2 1.1-3.6 2.9-5.4 4-1.9 1.1-6.1 5.6-9.6 10-3.4 4.4-10.7 12.5-16.3 18-5.6 5.5-11.8 10.9-13.9 12-3.3 1.8-3.8 1.8-5.1 0.5-0.8-0.8-2.8-4.2-4.4-7.5-1.7-3.3-4.6-10.7-6.6-16.5-2.1-5.8-4.8-14.8-6.3-20-1.4-5.2-2.9-12.2-3.4-15.5-0.5-3.3-1.3-6.5-1.9-7-0.5-0.5-1.2-0.8-1.5-0.5-0.4 0.3-0.1 9.8 0.4 21.3 0.6 11.4 2.2 29.1 3.6 39.5 1.4 10.3 3.5 25 4.6 32.7 1.1 7.7 2.2 21 2.6 29.5 0.4 11.7 0.1 18.4-1.1 27.5-1 6.6-2.8 16-4 21-1.3 5-4.4 13.3-6.9 18.5-2.5 5.2-6.7 12.7-9.2 16.5-2.6 3.9-5.4 7.6-6.3 8.2-1 0.7-1.4 1.5-1 1.8 0.5 0.3 3.6-0.9 7-2.6 3.5-1.8 12.5-5.6 20-8.5 7.6-3 18.2-7.6 23.5-10.2 5.4-2.7 12.4-6.5 15.5-8.5 3.2-2 9.1-7 13.1-10.9 4-4 9.7-10.4 12.6-14.3 2.9-3.8 8.1-12.8 11.6-20 3.4-7.1 7.9-18 9.8-24 1.9-6 4.5-15.3 5.7-20.5 1.2-5.2 2.8-15.3 3.7-22.5 1-8.3 1.3-17.5 1-25.5-0.2-6.9-0.7-13.2-1-14-0.4-0.8-1.4-1.9-2.4-2.4-1-0.5-4.9-1.6-8.7-2.5l-7-1.6c-2-7.7-2.5-11.5-2.4-13.4 0.3-3.1 0.9-3.8 5.8-6.3 3-1.6 6.4-3.7 7.5-4.8 1.9-1.9 1.9-2.4 0.6-8.3-0.7-3.4-2.8-10.6-4.7-15.9-1.9-5.4-3.8-9.8-4.4-9.8-0.5 0-1.4 0.8-1.9 1.8zm-196.7 147.1c-1 0.9-1.7 2.3-1.6 2.9 0.1 0.7 0.5 1.2 0.9 1.2 0.5 0 1.6-0.6 2.5-1.3 1-0.7 1.8-1.7 1.9-2.4 0-0.6-0.3-1.4-0.9-1.7-0.5-0.3-1.8 0.3-2.8 1.3zm-307 10c-0.5 0.5-7.7 4.5-15.9 8.8-8.3 4.4-16.6 8.8-18.5 10-1.9 1.1-5.6 3.4-8.3 5.2-4.4 2.9-4.7 3.4-4.7 7.4 0 2.3-0.5 4.8-1.2 5.5-1.1 1-0.1 2.4 4.7 7.3 3.3 3.3 8.7 8.1 12 10.6 3.3 2.5 9.4 6.2 13.5 8.3 4.1 2.1 14 6.3 22 9.5 8 3.1 16.1 6.4 18 7.2 1.9 0.8 4.3 1.9 5.2 2.4 1.2 0.6 1.8 0.5 1.8-0.1 0-0.5-1.2-2.5-2.6-4.2-1.5-1.8-4.5-6.7-6.8-10.8-2.2-4.1-5.1-10-6.3-13-1.3-3-3.2-9.3-4.3-14-1.1-4.7-2.7-13.9-3.5-20.5-0.8-6.6-1.5-13.9-1.5-16.2q0-4.3-1.3-4.3c-0.7 0-1.7 0.4-2.3 0.9zm185 161.4c-0.3 0.6-0.4 2.2 0 3.5 0.3 1.2 1.4 2.2 2.3 2.2 1 0 2.8-1.1 4-2.5 1.3-1.4 2.3-3 2.3-3.5 0-0.5-1.8-1-4-1-2.1 0-4.2 0.6-4.6 1.3zm28.9 61.1c-0.6 1.5-1.1 4.1-1.2 5.7-0.1 1.6 0.3 4.9 0.9 7.4 0.5 2.5 1.4 4.5 2 4.5 0.6 0 0.9-3.6 0.7-9.4-0.1-5.2-0.4-9.8-0.8-10.2-0.3-0.4-1 0.5-1.6 2zm-9.8 7.9c0.4 1.2 1.9 4.4 3.4 7.1 1.4 2.6 3.4 5.2 4.3 5.7 1 0.5 2 0.8 2.3 0.7 0.3-0.2-0.8-2.1-2.5-4.3-1.6-2.2-3-4.8-3-5.7 0-1-0.7-2-1.5-2.3-0.8-0.3-1.5-1.2-1.5-2 0-0.8-0.5-1.5-1.1-1.5-0.7 0-0.8 0.9-0.4 2.3zm-32.6 7.7c-0.3 0.8 0.4 2.9 1.5 4.7 1.2 1.8 2.9 3.2 3.8 3.3 1 0 2 0.9 2.3 2 0.3 1.1 0.9 2 1.5 2 0.5 0 1-0.2 1-0.5 0-0.3-0.5-1.5-1.2-2.7-0.6-1.3-2.3-3.3-3.7-4.6-1.4-1.2-2.9-2.3-3.4-2.2-0.4 0-0.8-0.8-1-1.7-0.2-1.5-0.4-1.5-0.8-0.3z"/>
		<path id="Path 6" class="s6" d="m513.5 845.1c-2.2 1.1-4.8 2.8-5.9 3.7-1 0.9-3.1 3.3-4.6 5.2-1.6 1.9-3.1 4.7-3.4 6.2-0.3 1.6-0.3 2.8 0.1 2.8 0.5 0 1.6-1.4 2.5-3 1-1.7 2.1-2.9 2.5-2.8 0.5 0.1 2.2-0.5 3.8-1.4 1.9-1 5.1-1.6 8.6-1.5 4.1 0.2 6-0.2 7.2-1.6 0.9-0.9 1.7-2.2 1.7-2.7 0-0.5-0.8-1.8-1.7-2.8-1.6-1.6-1.5-1.7 0.5-2 1.2-0.1 2-0.7 1.7-1.2-0.3-0.5-2.4-1-4.8-1-2.3 0.1-6 1-8.2 2.1zm-19.5 25.1c-1.1 1.8-2 4.1-2 5 0 1-0.4 2-1 2.3-0.6 0.3-1 1.2-1 2 0 0.8 0.9 2 2 2.5 1.8 0.9 2 0.7 1.7-2.1-0.1-2.1 0.4-3.3 1.5-4 1-0.5 1.8-1.6 1.8-2.4 0-0.8 0.4-1.6 1-1.8 0.5-0.1 0.8-1.2 0.6-2.5-0.1-1.2-0.8-2.2-1.5-2.2-0.6 0-2 1.5-3.1 3.2zm-71.3-0.3c-0.4 0.6-0.2 1.1 0.5 1.1 0.6 0 0.8 0.3 0.4 0.7-0.4 0.5 1.7 1.6 4.6 2.5 2.9 1 5.6 1.8 6 1.8 0.5 0 0.6-0.5 0.3-1-0.3-0.5 0.1-1.2 0.7-1.3 0.7-0.2-1.2-1.2-4.2-2.2-3-1-6-2-6.6-2.2-0.6-0.2-1.4 0-1.7 0.6zm-178.5 86.6c-0.4 1 0 2.1 1.3 3 1.1 0.8 2.6 1.5 3.2 1.5 0.9 0 0.7-1-0.6-3-1.1-1.6-2.2-3-2.6-3-0.3 0-0.9 0.7-1.3 1.5zm115.8 28.5c0 1.9 0.7 2 9 2 8.2 0 9-0.2 9.5-2 0.5-1.9 0-2-9-2-8.8 0-9.5 0.1-9.5 2zm73.1-1.2c-0.8 0.2-1.4 1-1.3 1.8 0.1 1 1.6 1.4 4.7 1.4 3.9 0 4.5-0.3 4.3-2-0.1-1.6-0.8-2-3.2-1.9-1.7 0.2-3.8 0.4-4.5 0.7zm15.2-0.2c-1.3 0.2-2.3 0.9-2.3 1.4 0 0.5 0.3 0.8 0.8 0.5 0.4-0.2 1.6 0.2 2.7 1 1.1 0.8 4.3 1.4 7 1.5 2.8 0 4.4-0.4 3.7-0.8-0.7-0.4-1.2-1.4-1-2.2 0.2-1.1-0.8-1.5-4.2-1.6-2.5-0.1-5.5 0-6.7 0.2zm15.7 1.4q0 2 2 2 2 0 2-2 0-2-2-2-2 0-2 2zm-15.9 78c-1.2 1.6-1.9 3.8-1.6 4.7 0.3 1 0.7 1.6 0.8 1.3 0.2-0.3 1.3-2.2 2.5-4.3 1.2-2 1.8-3.9 1.3-4.2-0.5-0.3-1.9 0.8-3 2.5zm-79.1 8q0 2 2 2 2 0 1.5-1.5c-0.3-0.8-0.5-1.7-0.5-2 0-0.3-0.7-0.5-1.5-0.5-0.8 0-1.5 0.9-1.5 2zm8.7 10.2c-0.3 1.3 0.1 3.5 0.9 5 1.1 2.2 1.7 2.6 2.9 1.8 1.3-0.9 1.3-1.5-0.5-5-1.1-2.2-2.2-4-2.4-4-0.2 0-0.6 1-0.9 2.2zm198.3 0c0 0.7 1.2 2.4 2.5 3.8 1.5 1.5 2.8 4.3 3.3 6.9 0.4 2.5 1.3 4.6 2.2 4.8 0.8 0.3 3 1.1 4.7 1.9 1.8 0.8 3.8 1.4 4.3 1.4 0.5 0 0.9-0.6 0.7-1.3-0.1-0.6-1.5-1.4-3.2-1.7-2-0.4-3.1-1.2-3.6-3-0.7-2.4-0.7-2.4-0.8-0.3-0.1 2.1-0.2 2.2-1.9 0.7-1.4-1.2-1.4-1.8-0.4-2.7 0.7-0.7 1.2-2.2 1.2-3.5 0-1.2-0.3-2.2-0.8-2.2-0.4 0-1.3-1.5-2.1-3.2-1-2.5-1.5-2.9-2.1-1.8-0.6 1.1-0.9 1.2-1.4 0.2-0.3-0.6-1.1-1.2-1.6-1.2-0.5 0-1 0.6-1 1.2zm7.9 56.3c0 1.7-0.2 2.4-0.5 1.7-0.2-0.6-1.1-1.2-1.9-1.2-0.8 0-2.1 0.9-3 2-0.8 1.1-1.3 2.5-1 3 0.3 0.5 0 1-0.5 1-0.6 0-1 5.2-1 13.7v13.8c4.6 0 4.8-0.3 4.2-2.4-0.6-2.2-0.4-2.4 1.8-2 1.6 0.3 3.1-0.2 4.2-1.3 1-1 1.6-2 1.3-2.3-0.3-0.3 0-1.5 0.6-2.8 0.7-1.2 2.3-3.2 3.5-4.5 1.9-1.7 2.3-2.9 1.8-5.5-0.3-1.7-0.7-4.3-0.9-5.7-0.2-1.4-0.7-3.5-1.1-4.8-0.6-1.7-1.4-2.2-2.7-1.8-1.1 0.4-2.2-0.2-3.2-1.7l-1.5-2.2zm-350.9 20.5c0 0.5-0.6 0.9-1.3 0.7-0.7-0.1-1.1 0.6-1 1.5 0.2 1 1.5 2.9 3 4.3l2.8 2.4c-4.3 0.1-5.3 0.6-5 1.1 0.2 0.5-0.2 1-1 1-0.9 0-1.3-0.3-1-0.8 0.2-0.4-0.5-1.8-1.6-3.2-1.2-1.4-2.5-3.2-2.9-4-0.5-0.8-1.2-1.1-1.7-0.7-0.5 0.4 0.1 2.4 1.2 4.4 1.1 2 4.2 5.5 7 7.9 2.7 2.4 5.1 4.1 5.2 3.9 0.2-0.3-0.2-1.5-0.9-2.8-0.6-1.2-1.6-2.5-2.2-2.9q-1.1-0.8 0.4-0.8c0.8 0 2.8 0.9 4.5 2 1.6 1.1 3.3 2 3.7 2 0.4 0 0.8-1.6 0.8-3.5v-3.5l9 1.5v-10.5c-6.2 3.5-8.3 4.2-8.8 3.8-0.4-0.4-1.5 0.3-2.5 1.5l-1.7 2.2c-0.8-3.5-1.5-4.5-2-4.5-0.6 0-0.7-0.5-0.3-1.1 0.4-0.6 0.1-1.5-0.7-2-0.9-0.5-1.9-0.9-2.3-0.9-0.4 0-0.7 0.5-0.7 1zm357.7 6c-1 1.7-2.2 2.9-2.9 2.7-0.6-0.1-1.7 1.3-2.5 3-0.8 2-0.9 3.3-0.3 3.3 0.5 0 2.8-2.1 5-4.8 2.2-2.6 4-5.3 4-6 0-0.6-0.4-1.2-0.8-1.2-0.4 0-1.6 1.3-2.5 3zm-90.2 15.3c-1.7 1.2-3.6 2.7-4.3 3.4-0.7 0.7-1.1 1.5-1 1.8 0.2 0.2 2.2-0.7 4.5-2 2.4-1.4 4.3-3.2 4.3-4 0-0.8-0.1-1.5-0.3-1.5-0.1 0-1.6 1.1-3.2 2.3z"/>
		<path id="Path 7" class="s7" d="m599.3 715.3c-2.9 12.2-3.1 13.3-1.5 14.4 0.9 0.7 2.8 1.3 4.2 1.3h2.5c-0.5-21.3-1-27.8-1.3-28.2-0.4-0.4-2.1 5.2-3.9 12.5zm-193.5 42.4c-3.3 0.3-3.8 0.6-3.8 2.8 0 2.5 0.1 2.5 6.3 1.9 3.4-0.3 7.4-0.7 9-1 1.9-0.3 2.7-1 2.7-2.4 0-1.8-0.6-2-5.2-1.8-2.9 0.1-7 0.3-9 0.5zm-70 14.6c-9 4.5-21.6 11.7-28.1 16-6.4 4.2-11.7 8.2-11.7 8.7 0 0.6 2.4 0.7 6.6 0.3 5.9-0.7 7.1-1.2 10.4-4.5 2.8-2.8 4.6-3.8 6.9-3.8 1.7 0 3.3 0.5 3.6 1 0.3 0.6 1.7 1 3.3 1 1.5 0.1 3.4-0.7 4.3-1.7 0.9-1 1.9-3 2.3-4.5q0.6-2.8 3.9-4.2c1.7-0.8 5.5-1.7 8.2-2 2.8-0.3 5.8-1.3 6.8-2.3 1.3-1.3 1.8-3.3 1.7-7 0-2.9-0.4-5.3-0.9-5.3-0.5 0-8.3 3.7-17.3 8.3zm246.9 17.5c-0.3 0.4-0.8 3-1.1 5.7-0.4 2.8-1 6.1-1.4 7.4-0.6 2.1-0.4 2.3 1.8 2 1.4-0.2 3-1.5 3.7-2.9 0.6-1.4 1.3-4.9 1.6-7.7 0.3-5 0.2-5.3-1.9-5.3-1.3 0-2.5 0.3-2.7 0.8zm-283.7 11.8c-0.8 0.3-3.4 1.2-5.7 2-2.4 0.9-4.3 2-4.3 2.5 0 0.5 2.1 0.2 4.8-0.6 2.6-0.8 6.4-1.5 8.5-1.5 2.6 0 3.7-0.4 3.7-1.5 0-1-0.9-1.5-2.7-1.4-1.6 0-3.5 0.3-4.3 0.5zm93.6 51c-3.6 1.1-4.9 1.9-4.8 3.2 0.1 1.4 0.7 1.6 3.4 0.9 1.8-0.4 7-1.1 11.6-1.5 6.9-0.6 8.2-1 8.2-2.4 0-1.5-1-1.8-6.7-1.7-3.8 0-9 0.7-11.7 1.5zm153.3 5.4c1.1 1.7 2.6 3 3.1 3 0.5 0 1-0.7 1-1.5 0-0.8-0.2-2.2-0.5-3-0.3-0.8-1.7-1.5-3.1-1.5h-2.6zm-145.9 2c0 0.5 1.6 1 3.5 1 1.9 0 3.5-0.5 3.5-1 0-0.5-1.6-1-3.5-1-1.9 0-3.5 0.5-3.5 1zm-227 36c0 0.5 2.3 3.5 5.2 6.6 2.9 3.1 6.5 6.5 8 7.5 1.5 1 3.5 1.7 4.3 1.4 0.8-0.3 1.5-0.9 1.5-1.3 0.1-0.4-2.2-2.6-5.1-4.7-2.9-2.2-6.8-5.5-8.6-7.2-1.8-1.8-3.8-3.3-4.3-3.3-0.6 0-1 0.5-1 1zm184.5 7.8c-0.4 2-0.4 3.8-0.1 4 0.3 0.1 1.2-1 2-2.5 1.1-2.3 1.1-3 0-4-1-1.1-1.4-0.6-1.9 2.5zm-19.1 22c0.4 3.7 0.8 6.8 0.9 7 0.1 0.2 1.2 0.1 2.4-0.2 2.1-0.5 2.3-1.2 2.3-7.1v-6.5h-6.3zm-22.2 96.7c-1 1.9-1.4 3.9-0.9 4.3 0.5 0.4 1.7-0.4 2.8-1.7 1.1-1.4 1.9-3.3 1.9-4.3 0-1-0.5-1.7-1.1-1.7-0.5 0-1.7 1.5-2.7 3.4zm79.7 17.2c-1.2 1.4-2.1 3.2-2 4 0 0.7 0.5 1.4 1.1 1.4 0.5 0 1.9-1.3 3-2.8 1.1-1.5 2-3.3 2-4 0-0.7-0.5-1.2-1-1.2-0.5 0-1.9 1.1-3.1 2.6zm48 36.9c-0.8 1.4-1.8 2.5-2.2 2.5-0.4 0-0.5 0.4-0.2 1 0.2 0.5-0.6 2-1.8 3.3-1.2 1.3-2.1 2.7-2 3.2 0.2 0.5-0.6 2-1.7 3.2-1.1 1.2-1.8 2.5-1.5 2.8 0.2 0.2-0.6 2.8-2 5.7-1.3 2.9-2.2 5.6-2 6 0.3 0.4 0.9 0.8 1.5 0.8 0.5 0 1.9-1.2 3-2.5 1.1-1.4 3-2.5 4.3-2.5 1.2 0 2.8-0.6 3.5-1.3 0.7-0.7 1.2-3.9 1.1-7.7 0-5.4 0.4-6.9 2.1-8.5 1.4-1.4 2-3 1.8-5-0.2-1.6-0.8-3.1-1.4-3.2-0.6-0.2-1.7 0.8-2.5 2.2zm-204.8 7.5c-1.2 1.6-2.7 4.9-3.3 7.2-0.7 2.3-0.9 5-0.5 6 0.4 1 1.1 1.8 1.7 1.8 0.5 0 1.2-2.1 1.5-4.5 0.3-3.2 1.4-5.5 3.4-7.8 1.6-1.8 3-3.8 3-4.5 0-0.7-0.8-1.2-1.8-1.2-1 0-2.8 1.3-4 3zm315.9 1.5c-1.7 1.5-3.2 3.4-3.1 4.3 0 0.9 0.7 2.2 1.5 2.9 0.9 0.7 2 1 2.6 0.8 0.5-0.3 1-1 1-1.5 0-0.6 0.9-2.4 2-4 1.1-1.7 1.7-3.5 1.5-4-0.3-0.6-1-1-1.5-1-0.5 0-2.3 1.1-4 2.5zm-263.2 8.2c-0.7 3.4-1 6.5-0.5 7 0.4 0.4 1.5 0.3 2.5-0.4 0.9-0.6 1.8-2.4 2-4 0.1-1.5-0.4-4.2-1.2-5.8l-1.4-3zm49.7 88.2c-0.3 0.6-0.5 1.2-0.3 1.3 0.1 0.2 1.5 1.1 3 2 1.5 1 2.9 1.7 3.2 1.7 0.3 0 0.7-0.6 1-1.5 0.3-0.8-0.2-2.1-1-3-0.8-0.8-2.4-1.5-3.4-1.5-1.1 0-2.2 0.5-2.5 1z"/>
		<path id="Path 8" class="s8" d="m177 598.8c-3 2-8.3 6.5-11.7 10-3.5 3.4-6.1 6.8-6 7.5 0.2 0.6 0.8 1.3 1.3 1.5 0.5 0.1 3.4-1.9 6.4-4.4 3-2.6 8.1-6.5 11.3-8.8 4.6-3.3 5.7-4.6 5.7-6.8 0-1.6-0.3-2.8-0.8-2.8-0.4 0.1-3.2 1.8-6.2 3.8zm440.9 9c-0.6 1.5-1.9 6.5-2.9 11.2-1 4.7-2.6 13.5-3.5 19.5-0.9 6.1-1.9 17.6-2.3 25.8-0.6 13.6-0.6 14.7 1.1 14.7 0.9 0 2-0.6 2.4-1.2 0.4-0.7 1-7.8 1.5-15.8 0.4-8 1.2-17.9 1.8-22 0.6-4.1 2.2-13.1 3.5-19.9 1.3-6.8 2.2-13 1.9-13.7-0.2-0.8-0.9-1.4-1.4-1.4-0.6 0-1.5 1.2-2.1 2.8zm-473.4 25.5c-2.7 3-7.3 9.4-10 14.2-2.8 4.9-6.5 12.3-8.3 16.5-1.8 4.1-4.9 12.2-6.8 18-1.9 5.8-3.8 12-4.2 13.9-0.6 3-0.5 3.3 1.3 3 1.5-0.3 3-3.6 7.1-15.4 2.8-8.2 7-18.8 9.4-23.5 2.3-4.7 6.4-11.9 9.1-16 2.6-4.1 5.9-8.6 7.4-10 1.4-1.4 2.5-3.3 2.5-4.2 0-1-0.5-1.8-1.2-1.8-0.7 0-3.5 2.4-6.3 5.3zm-31.8 74.2c-0.4 0.8-1.3 6.8-2.1 13.2-0.8 6.5-1.9 16-2.3 21.2-0.8 9-0.7 9.3 1.2 9 1.6-0.3 2.1-1.5 2.7-5.4 0.3-2.8 1.2-10.6 1.9-17.5 0.7-6.9 1.3-14.5 1.3-16.9 0.1-2.4-0.4-4.6-1-4.8-0.6-0.2-1.4 0.3-1.7 1.2zm270.4 2c-0.8 1.1-0.8 2.5-0.1 5 0.6 2 1.6 3.5 2.5 3.5 0.8 0 1.6-1 1.8-2.2 0.2-2.1 0.8-2.3 6.5-2.5 4-0.2 6.1-0.7 6-1.4-0.2-0.7-1.9-1.8-3.8-2.5-1.9-0.7-5.4-1.3-7.6-1.3-2.6-0.1-4.6 0.5-5.3 1.4zm212.7 20.7c-0.3 0.7-1.6 5.3-2.8 10.3-1.2 5-3 13-4.1 18-1.1 5-2.9 13.5-4 19-1 5.5-1.9 10.3-1.9 10.8 0 0.4 1.2 0.6 2.7 0.5 2.6-0.3 2.7-0.7 4.5-10.3 1-5.5 3.4-17.6 5.4-27 1.9-9.3 3.4-18.1 3.2-19.4-0.2-1.4-0.8-2.6-1.4-2.8-0.6-0.2-1.3 0.2-1.6 0.9zm-227.7 6c-1.4 0.7-2.6 1.8-2.8 2.3-0.1 0.5 0.1 1.6 0.5 2.3 0.5 1 1.8 1 5.2 0.3 2.5-0.6 6.5-1.4 9-1.8 3-0.5 4.5-1.3 4.5-2.3 0-1.2-1.6-1.6-7-1.8-4.2-0.1-8 0.3-9.4 1zm38 12.3c-1.3 0.9-2.3 2.4-2.3 3.3 0.1 1.4 0.8 1.6 3.9 0.9 2.1-0.4 4.4-1.3 5.1-2 0.7-0.6 1.3-1.8 1.2-2.4 0-0.7-1.2-1.3-2.7-1.3-1.6 0-3.9 0.7-5.2 1.5zm-39.1 6.6c-2.5 0.5-9.9 2.8-16.5 5-6.6 2.3-15.6 5.9-20 8.2-4.4 2.2-9.8 5.1-12 6.6-2.2 1.4-7.4 5.1-11.5 8.2-4.1 3.1-10.8 8.7-14.8 12.5-4 3.8-7 7-6.7 7.2 0.3 0.1 2.8-0.9 5.5-2.3 2.8-1.4 5-3 5-3.5 0-0.5 5.1-4.3 11.3-8.4 6.1-4.1 17.3-10.6 24.7-14.5 7.4-3.8 18.2-8.8 24-10.9 5.8-2.2 13.8-4.8 17.8-5.8 4-1.1 7.2-2.2 7.2-2.6 0-0.5-2.1-0.8-4.7-0.7-2.7 0.1-6.8 0.5-9.3 1zm144.5 100.6c-1.1 0.3-3.3 1.7-4.8 3.1-1.6 1.5-3.8 4.5-4.9 6.7-1.4 2.7-1.9 5.1-1.5 7.5 0.3 1.9 0.7 4.4 1 5.5 0.2 1.1 1.4 3 2.6 4.3 1.1 1.2 3.1 2.2 4.4 2.3 1.2 0.1 3.6 0 5.2-0.1 1.6-0.1 4.1-0.9 5.5-1.7 1.4-0.8 3.5-2.8 4.8-4.6 1.2-1.8 2.5-5.2 2.8-7.7 0.4-3 0.1-5.9-1-8.5-1.1-2.8-2.6-4.5-5.1-5.7-1.9-1-4.3-1.7-5.2-1.7-1 0.1-2.7 0.3-3.8 0.6zm-122.5 18.1c-3 1.1-7.7 3-10.5 4.3-2.7 1.3-7.3 4.6-10.1 7.4-2.8 2.7-6 6.9-7.2 9.3-1.2 2.3-2.2 4.9-2.2 5.7 0 0.8 0.3 1.5 0.8 1.5 0.4 0.1 2.8-2.6 5.3-5.8 2.6-3.2 6.1-6.8 7.8-8 1.7-1.2 3.3-2.2 3.6-2.2 0.3 0-0.2 1.1-1 2.5-0.8 1.4-1.5 4.2-1.5 6.3-0.1 2.3 0.6 4.3 1.6 5.2 1.1 1 3.7 1.5 7.3 1.5 4.2 0 7.2-0.8 12.4-3.3 5.6-2.7 7.1-3.9 9-7.6 2.1-4.3 2.1-4.5 0.5-7-1-1.4-2.9-3-4.3-3.6-1.4-0.5-2.3-1.3-2.1-1.7 0.2-0.5 2.9-1 5.9-1.3 3-0.3 5.9-0.8 6.4-1.3 0.4-0.4 0.2-1.3-0.5-2-0.7-0.6-4.5-1.3-8.5-1.5-4.9-0.1-8.9 0.4-12.7 1.6zm-80 166.7c0 0.8-0.1 1.8-0.3 2.3-0.1 0.4-0.5 1.2-0.9 1.7-0.4 0.6-3.4 9.3-6.8 19.5-3.5 10.5-6.3 20.5-6.4 23-0.1 3.4 0.3 4.5 1.4 4.5 1 0 1.5-1 1.5-3.1 0-1.7 0.5-3.7 1.2-4.5 0.6-0.8 1.9-4.6 2.8-8.4 0.9-3.8 3.6-12.8 6.1-20 2.4-7.2 4.4-13.8 4.4-14.7 0-1-0.7-1.8-1.5-1.8-0.8 0-1.5 0.7-1.5 1.5zm-22 32.1c-3 1.4-8.3 4.5-11.7 7-3.5 2.4-6.3 4.7-6.3 5.2-0.1 0.4 0.6 1.3 1.5 2 1.2 1 2.1 0.7 5.3-1.8 2-1.6 5.7-4.6 8.2-6.6 2.5-2 5.7-4.3 7.3-5 1.5-0.8 2.7-1.8 2.7-2.4 0-0.5-0.3-1-0.7-1-0.5 0-3.3 1.2-6.3 2.6zm-97 31.9c0 1 1.1 1.5 3.5 1.5 2.4 0 3.5-0.5 3.5-1.5 0-1-1.1-1.5-3.5-1.5-2.4 0-3.5 0.5-3.5 1.5z"/>
		<path id="Path 9" fill-rule="evenodd" class="s9" d="m601.6 692.5c-0.7 1.9-1.3 4.8-1.4 6.5-0.2 2.3 0.3 3.1 1.8 3.5 1.8 0.5 2 1.3 2 10.8 0 5.6 0.7 16.5 1.6 24.2 0.9 7.7 1.7 14.1 1.7 14.3 0.1 0.1 1.5-0.1 3-0.5 2.6-0.7 2.8-1.1 2.3-3.8-0.3-1.6-1-8-1.6-14-0.6-6-1.2-18.5-1.3-27.7l-0.2-16.8c-6.1 0-6.8 0.5-7.9 3.5zm-384.1 0.7c-0.2 1.3-0.9 6.8-1.5 12.3-0.7 5.5-2.3 15.9-3.6 23-1.4 7.1-2.9 15-3.5 17.5-0.6 2.5-2.1 10.1-3.5 17-1.3 6.9-3.1 15.9-3.9 20-0.7 4.1-1.8 10.9-2.4 15-0.5 4.1-1.3 12.9-1.6 19.5-0.5 8.5-0.2 15.7 0.9 24.5 0.8 6.9 2.5 16.3 3.6 21 1.1 4.7 3 11 4.3 14 1.2 3 4.1 8.9 6.3 13 2.3 4.1 5.3 9 6.8 10.7 1.7 2.2 2.6 4.5 2.6 6.8 0 3.3 0.2 3.5 3.5 3.5 3 0 3.4-0.3 3-2-0.3-1.1-0.2-2 0.3-2 0.4 0 0.8-2.3 1-5 0.2-4.9 0.2-5-2.8-5-2.6 0-3.5-0.8-7-6.5-2.2-3.6-5.3-9.8-6.9-13.8-1.6-3.9-3.6-9.7-4.4-12.7-0.9-3-2.4-9.5-3.2-14.5-1.1-5.9-1.6-14.5-1.6-24.8 0.1-8.6 0.8-21 1.7-27.4 0.8-6.5 3-19.4 4.9-28.8 1.8-9.4 3.9-20.6 4.6-25 0.6-4.4 1.8-9.6 2.6-11.5 0.7-1.9 1.3-4.9 1.3-6.5 0-1.6 0.7-3.8 1.7-4.7 1-1 2.7-1.8 3.8-1.8 1.1 0 3 1.3 4.2 2.8 1.1 1.5 2.4 2.5 2.7 2.2 0.4-0.3-0.7-7-2.4-15-1.7-8-3.3-15.3-3.6-16.3-0.3-1.2-1.4-1.7-3.9-1.7-2.8 0-3.6 0.4-4 2.3zm163.6 12.3c-3.1 1.5-3.4 2-3.2 5.8 0.1 2.5 1.3 6.1 3 9.1 1.5 2.8 3.6 5.7 4.5 6.5 0.9 0.8 1.7 2.1 1.6 2.8 0 0.6-0.7 1.4-1.5 1.7-0.8 0.3-1.5 1.4-1.5 2.5q0 2 2.5 2.5c1.4 0.3 4.5 1.5 7 2.8 2.5 1.2 4.9 1.9 5.3 1.5 0.4-0.4-2.9-6-7.4-12.5-4.4-6.5-8.4-13.2-8.8-14.8-0.6-2.4-0.3-3.4 1.3-4.7 1.2-1 2.1-2.5 2.1-3.3 0-0.8-0.3-1.5-0.7-1.5-0.5 0-2.3 0.8-4.2 1.6zm12.8 0.9c-0.8 0.9-1.2 1.7-0.9 1.8 0.3 0.2 2.8 1.2 5.5 2.2 2.8 1 6.8 3.1 9 4.6 2.2 1.4 5.9 5.1 8.1 8 2.3 3 5.6 8 7.3 11.2 1.7 3.1 3.7 5.7 4.4 5.7 0.9 0 1-1.6 0.5-6.7-0.4-3.8-1.1-9.4-1.5-12.6-0.5-3.6-0.4-5.7 0.2-5.7 0.6-0.1 2.8 3.6 5 8 2.7 5.5 4.6 8 5.8 8 0.9 0 1.7-0.3 1.7-0.7 0-0.5-1.2-3.5-2.7-6.8-1.5-3.3-3.5-7.2-4.5-8.7-1.2-1.8-2.7-2.8-4.3-2.8-1.7 0-2.8 0.8-3.5 2.5-0.6 1.4-1 3.9-1 5.5 0 1.6-0.1 3-0.2 3-0.2 0-3.2-2.8-6.8-6.3-3.6-3.5-8.9-7.6-11.7-9-2.9-1.5-6.1-2.7-7.2-2.7-1 0-2.5 0.7-3.2 1.5zm199.7 16.3c-0.8 3.7-1.8 7.7-2.1 8.9-0.4 1.8-0.1 2.3 1.5 2.3 1.7 0 2.3-1.2 3.5-7.3 0.9-3.9 1.8-8 2-9 0.4-1.2-0.1-1.7-1.4-1.7-1.5 0-2.2 1.3-3.5 6.8zm-224.4 24.4c-0.7 0.7-1 2-0.7 2.8 0.4 1.1-0.7 1.7-4.7 2.5-4.1 0.8-5.4 1.5-5.7 3-0.3 1.8 0 1.9 2.5 1.3 1.6-0.4 6.1-1.4 9.9-2.3 3.9-0.8 8.5-1.5 10.3-1.5 1.7 0 3.2-0.3 3.2-0.7 0.1-0.5-0.5-1.3-1.2-1.9-0.7-0.6-3.1-1.6-5.3-2.1-2.2-0.6-4.7-1.4-5.6-1.7-0.8-0.4-2.1-0.1-2.7 0.6zm74.8 4.8c0 0.5 3.3 1.7 7.3 2.6 3.9 0.8 11.9 2.9 17.7 4.5 5.8 1.7 15 5.2 20.5 7.8 5.5 2.6 13.8 7.4 18.5 10.6 4.7 3.3 11.8 8.6 15.9 11.9 4.1 3.4 7.9 6.9 8.5 7.9 0.7 1 2.3 1.7 4.1 1.7 3 0 3 0-3.5-6.6-3.6-3.6-10.8-9.8-16-13.8-5.2-3.9-14-9.5-19.5-12.3-5.5-2.8-14.7-6.7-20.5-8.7-5.8-1.9-13.8-4.2-17.7-5.1-4-0.8-9.1-1.5-11.3-1.5-2.2 0-4 0.5-4 1zm165.4 14c0.3 0.8 1.3 8.1 2.3 16.3l1.8 14.7c4.7 0 5.5-0.5 5.5-1.7 0-1-0.9-7.9-2-15.3-1.1-7.4-2.1-13.8-2.2-14.1-0.1-0.4-1.5-0.8-3-1-2.1-0.3-2.7 0-2.4 1.1zm-26.4 1.5c0 0.3-1.6 7.8-3.5 16.8-1.9 8.9-3.9 19.8-4.5 24.2-0.6 4.4-1.7 12.3-2.4 17.5-0.7 5.2-1.8 10.5-2.5 11.8-0.7 1.3-1.6 1.9-2.3 1.5q-1.2-0.8-0.7 0.7c0.3 0.8 1.9 1.6 3.5 1.8l2.9 0.3c3.4-19.1 6.2-35.2 8.5-48.1 2.2-12.9 4.3-24.3 4.5-25.2 0.4-1.3-0.1-1.8-1.5-1.8-1.1 0-2 0.2-2 0.5zm-73 30.9c-1.9 0.8-4.7 2-6.2 2.7-2.5 1.2-2.7 1.8-2.2 4.9 0.3 1.9 1.1 4.5 1.7 5.7 1.2 2.1 1.2 2.1 5.2 0.3 2.2-1 5.7-2.1 7.8-2.4l3.7-0.6v-12c-5 0.1-8.1 0.7-10 1.4zm-185.2 17.4l-2.7 2.7c5.2 7 8 11.9 9.5 15.5 1.5 3.6 3.1 7 3.6 7.5 0.5 0.6 0.8 0.4 0.8-0.5 0-0.8-0.7-5.1-1.6-9.5-0.9-4.4-2.7-10.4-4-13.2-1.3-2.9-2.5-5.3-2.7-5.3-0.1 0-1.5 1.2-2.9 2.8zm288.8 30.5c-0.2 0.6-1.4 5.5-2.6 10.7-1.2 5.2-3.6 13.1-5.3 17.5-1.6 4.4-4.5 10.7-6.2 14-2.7 4.9-3.8 6.1-6.1 6.3-1.6 0.2-3.4-0.2-4-1-0.6-0.7-1.9-4.4-2.9-8.3-1.1-3.9-3.7-12.2-6-18.5-2.3-6.3-4.8-12.9-5.6-14.5-1.1-2.3-2.2-3.1-4.7-3.2-1.7-0.2-3.1 0-2.9 0.5 0.2 0.4 1.8 3.8 3.6 7.7 1.9 3.9 4.8 11.3 6.6 16.5 1.8 5.2 4.2 14.2 5.4 20 1.1 5.8 2.2 11.9 2.3 13.5 0.3 2.5 0.8 3 3 3.3 1.6 0.1 3.6-0.6 4.7-1.5 1-1 4-4.9 6.5-8.8 2.6-3.9 6.8-11.3 9.3-16.5 2.5-5.2 5.6-13.5 6.9-18.5 1.3-5 2.5-11.6 2.7-14.7 0.4-5.6 0.3-5.8-2-5.8-1.3 0-2.5 0.6-2.7 1.3zm-210.1 1.2c-0.6 0.2-2.6 0.6-4.5 0.9-1.9 0.3-4.3 1.1-5.3 1.8-1.4 1.1 0.8 1.3 12.8 1.3 12.2 0 14.5-0.2 14.5-1.5 0-0.9-1.3-1.8-3.2-2.3-1.8-0.4-5.6-0.7-8.3-0.6-2.8 0-5.4 0.2-6 0.4zm-159.8 7.5c-0.9 1.7-1.9 4.5-2.1 6.3-0.3 1.9 0 3.5 0.7 3.9 0.7 0.4 1.4 0.8 1.7 0.8 0.3 0 1.8-2.7 3.5-6 1.7-3.3 2.8-6.1 2.5-6.4-0.3-0.2-1.4-0.6-2.6-1-1.5-0.5-2.4 0.1-3.7 2.4zm153.8 0.7c-1.6 0.2-4.9 0.9-7.3 1.6-2.3 0.6-4.5 1.9-4.8 2.7-0.5 1.2-0.1 1.3 1.8 0.7 1.2-0.5 9.9-1.1 19.3-1.4 9.4-0.2 16.6-0.8 16-1.3-0.6-0.4-3.9-1.3-7.5-1.9-3.6-0.6-8.3-1-10.5-0.9-2.2 0-5.4 0.3-7 0.5zm36.8 19.4c0.4 0.5 0.1 1-0.6 1.2-0.6 0.2 0.4 1.1 2.3 2 1.9 1 3.6 1.7 3.7 1.7 0.2 0 0.2-1.2 0-2.6-0.2-2.2-0.8-2.7-3.2-3-1.7-0.1-2.6 0.1-2.2 0.7zm-199.7 3.3c-1.2 1-1.4 2.9-1.1 8 0.3 3.6 0.8 7.2 1.2 7.9 0.4 0.7 1.5-1.8 2.6-5.8 1-3.9 1.9-8 2.1-9.2 0.1-1.6-0.3-2.3-1.5-2.3-1 0-2.4 0.6-3.3 1.4zm-61.4 10.1c-0.9 2-0.9 2.9 0 4.5 0.8 1.2 2 1.8 2.8 1.5 0.8-0.3 7.9 1.9 15.7 5 7.9 3 14.7 5.5 15.3 5.5 0.5 0 0.9-1.2 0.7-2.6-0.2-2.4-1.5-3.2-14.2-8.3-7.7-3.2-15-6.3-16.3-6.9-1.2-0.7-2.3-1.2-2.5-1.2-0.1 0-0.8 1.1-1.5 2.5zm278.7-0.3c-0.7 0.7-1.2 2.2-1.1 3.5 0.1 1.5-0.3 2.3-1.3 2.3-0.8 0-2.4 1.2-3.5 2.8-1.2 1.5-2.1 3.3-2 4 0 0.6-1.1 2.6-2.5 4.2-1.4 1.6-2.5 3.6-2.5 4.3 0 0.6-0.7 3-1.7 5.2-1 2.2-3.2 5.7-4.8 7.8-2.4 3.1-4.2 4.2-9.5 5.7-3.6 1-9 2.1-12 2.4-3 0.4-5.9 1-6.5 1.5-0.6 0.5-5.9 1.4-12 2.1-6.1 0.7-11.6 1.5-12.3 1.8q-1.3 0.7-0.7 3.7c0.4 2.2 0.1 3.5-1.2 4.8-1 1-2.5 1.8-3.3 1.8-0.8 0-3.3-2.1-5.5-4.7-2.2-2.6-5.2-6.6-6.7-8.8-1.6-2.4-2.8-5.5-2.8-7.3 0-2.7-0.4-3.3-2.3-3.5-1.9-0.3-2.2-0.9-2.5-5.5-0.1-3.9-0.6-5.3-1.7-5.3-1.2 0-1.5 1.4-1.5 6.3 0 3.4 0.6 8.5 1.3 11.2 0.7 2.8 3 8.1 5.2 12 2.7 5 6.9 10.1 14.9 18l11.1 11c9.3 0.4 16.7 0.6 22.5 0.7 9.6 0.2 11.1-0.1 17.5-2.7 3.9-1.6 10.1-5 14-7.5 3.9-2.6 8.5-6.5 10.2-8.8 3.2-4 3.2-4.3 1.5-6.2-1.2-1.5-2.9-2.1-6.2-2-2.5 0-5.1-0.5-5.8-1.2-0.7-0.7-1.2-2.7-1.2-4.3 0-1.6 1.3-5.2 2.9-8 1.6-2.7 3.7-5.8 4.7-6.8 1.3-1.1 3.1-1.7 5.4-1.5 2.7 0.2 3.8 0.9 4.7 3.1 0.7 1.5 2 2.7 2.8 2.7 0.8 0 2.2 0.2 3 0.5 1.1 0.4 1.8-0.9 2.6-5.2 0.8-4.2 0.8-8.1 0-14-0.9-6.7-1.8-9.5-4.9-14.4-2-3.4-4-6.3-4.3-6.5-0.4-0.2-1.3 0.2-2 0.8zm-283.6 6.8c0.4 1.6 2.3 5.1 4.3 7.8 2 2.6 5.9 6.7 8.7 9 2.9 2.4 7 5.9 9.2 7.8 2.2 1.9 4.9 3.3 5.9 3.2 1.1-0.2 2.1-0.9 2.3-1.5 0.2-0.7-3.4-4.2-8-7.7-4.5-3.5-10.2-8.5-12.7-11.2-2.5-2.7-5.5-6.1-6.8-7.6-1.2-1.6-2.5-2.8-2.9-2.8-0.3 0-0.3 1.4 0 3zm471.2 13.1c-4.4 3.9-12 9.9-17 13.2-5 3.3-9.1 6.3-9.2 6.6-0.2 0.3-3.4 2-7.3 3.6-3.8 1.6-7 3.6-7 4.3 0 0.6 0.6 1.5 1.3 1.8 0.6 0.3 4.4-1 8.2-2.9 3.9-1.9 11-6.2 16-9.5 5-3.3 11-7.8 13.5-9.9 2.5-2.2 6.1-5.9 8-8.2 2.4-2.9 3.2-4.5 2.5-5.3-0.8-0.7-3.5 1.2-9 6.3zm-53.5 13.9c0 4.7 0.2 5 2.5 5 2.3 0 2.5-0.3 2.5-5 0-4.7-0.2-5-2.5-5-2.3 0-2.5 0.3-2.5 5zm-326 46.3c0.1 1.2-0.9 3.1-2 4.2l-2 2c3.5 3.6 8.1 7.1 12.5 10 4.4 2.9 11.8 7.2 16.5 9.5 4.7 2.2 14.2 5.9 21.3 8 7 2.2 12.7 4.5 12.7 5 0 0.5-0.6 2.1-1.2 3.5-1.1 2.1-1 2.8 0.2 4.1 1.3 1.4 1.7 1.2 3.8-2 1.2-2 2.9-3.6 3.7-3.6 0.8 0 7 1 13.8 2.1 12.2 2.1 12.2 2.2 16.2 6.5 2.2 2.4 4.7 4.4 5.5 4.4 1.1 0 1.3-0.6 0.8-2.7-0.4-1.6-0.9-3.6-1.2-4.5-0.4-1.2-0.1-1.8 0.9-1.8 0.8 0 1.3-0.6 1.2-1.2-0.2-0.7-1.9-1.6-3.8-1.9-1.9-0.4-10.4-2.1-18.9-3.8-8.5-1.7-20.2-4.5-26-6.2-5.8-1.7-14.8-5-20-7.3-5.2-2.3-13.3-6.5-18-9.4-4.7-2.8-9.4-5.9-10.5-6.7-1.1-0.8-1.7-1.8-1.2-2.2 0.4-0.5 4.7 0.4 9.5 1.9 4.8 1.5 11.6 3.4 15.2 4.2 3.6 0.8 11.5 2.1 17.5 3 6.1 0.9 17.3 2 25 2.6 7.7 0.5 17.3 1 21.3 1 6.5 0 7.2-0.2 7.2-2 0-1.3 0.8-2.1 2.3-2.4 1.2-0.2-1.6-0.4-6.3-0.5-4.7 0-16.1-0.8-25.5-1.7-9.3-0.8-22.6-2.4-29.5-3.5-6.9-1.2-16.8-3.2-22-4.5-5.2-1.4-11.5-3.4-14-4.5-2.5-1.1-4.6-1.9-4.7-1.9-0.2 0-0.3 1-0.3 2.3zm298.5 1.3c-3.3 1.4-7.8 2.9-10 3.4-2.2 0.4-6.7 1.5-10 2.3-3.3 0.9-15 2.5-26 3.7-11 1.1-25.4 2.4-32 2.8-11.5 0.7-12 0.8-12.2 3-0.3 2.1 0.1 2.2 6 2.2 3.4 0 11.6-0.5 18.2-1 6.6-0.6 18.5-2 26.5-3.1 8-1.1 19.7-3.4 26-5.1 6.3-1.6 12.6-3.3 14-3.6 1.8-0.4 2.3-0.3 1.8 0.6-0.5 0.7-3.4 2.9-6.5 5.1-3.2 2.1-10.3 6.1-15.8 8.9-5.5 2.8-15.6 6.9-22.5 9.2-6.9 2.3-16.3 5.1-21 6.2-4.7 1.1-16.4 3.3-26 4.9-9.6 1.6-17.6 2.9-17.7 2.9-0.2 0-0.1 0.5 0.2 1 0.3 0.5 1.6 1 3 1 1.4 0 2.5 0.2 2.5 0.5 0 0.3-0.7 2.2-1.5 4.3-0.9 2-1.5 4-1.5 4.5 0 0.4 0.6 0.7 1.3 0.7 0.6 0 2.4-2.1 4-4.5 1.6-2.7 3.6-4.7 5-4.9 1.2-0.2 8.5-1.4 16.2-2.6 7.7-1.3 14.5-2 15-1.8 0.6 0.3 2.5 4.3 4.3 8.9 1.9 4.6 3.8 9.3 4.4 10.4 0.6 1.1 2.1 5.2 3.4 9 1.3 3.8 3.6 10.6 5.1 15 1.8 5.2 3.3 8 4.3 8q1.5 0 1.2-2.5c-0.1-1.4-2.3-8.1-4.8-15-2.5-6.9-5.1-13.8-5.8-15.5-0.8-1.7-2.4-5.5-3.6-8.5-1.2-3-2.8-6.7-3.6-8.2-0.8-1.6-1.2-3.5-0.9-4.3 0.3-0.8 1.6-1.5 3-1.5 1.4 0 9.1-2.2 17.3-4.9 8.1-2.7 17.6-6.4 21.2-8.3 3.6-1.9 9.9-5.7 14-8.5 4.1-2.8 9-6.7 10.8-8.7 2.9-3.3 3.1-3.8 1.9-6.1-0.7-1.4-1.7-2.5-2.2-2.5-0.6 0.1-3.7 1.2-7 2.6zm-175.5 12.4l-3.5 0.7c6.4 0.3 7.5 0.8 7.5 1.8 0 0.8-0.4 1.5-1 1.5-0.5 0-1.2 0.7-1.5 1.5-0.4 1.3 0.5 1.4 5.8 0.9 3.4-0.3 6.7-1 7.2-1.4 0.6-0.5 0.6-1-0.2-1.4-0.7-0.3-1.3-1.5-1.3-2.6 0-1.7-0.6-2-4.7-1.9-2.7 0.1-6.4 0.5-8.3 0.9zm134.3 85.3c0.3 1.2 1.8 6.9 3.3 12.7 1.5 5.8 3.3 11.8 4 13.5 0.7 1.7 1.7 6.3 2.3 10.3 0.6 3.9 1.1 10.8 1.1 15.2 0 7.7 0.1 8 2.3 7.8q2.2-0.3 2.5-2.5c0.1-1.4 0.9-2.3 2-2.3 0.9-0.1 3.4-1.1 5.6-2.3 2.1-1.2 4.4-3.4 5.2-4.9 0.8-1.6 1.2-4.2 0.9-6-0.3-1.8-1.7-4.4-3.1-5.8-1.4-1.4-3.8-3-5.2-3.6-2.6-1-2.5-1.1 3.8-3.4 3.6-1.3 7.3-3 8.3-3.9 1-0.9 1.8-2.2 1.7-2.8 0-0.7 1.3-2.3 2.9-3.5 1.6-1.3 4-3.1 5.3-4.1 1.2-1 3.5-2.1 5.1-2.5 1.5-0.4 2.7-1.3 2.7-1.9 0-0.7 0.2-2 0.5-2.8 0.4-1.2-0.4-1.5-3.7-1.5-3.8 0-4.7 0.5-7.8 4.1l-3.5 4.1c-4.6-3.8-8.7-6.4-12-8.3-3.3-1.8-9.4-4.3-13.5-5.6-4.1-1.3-8.4-2.3-9.4-2.3-1.5 0-1.8 0.5-1.3 2.3zm73.4 1.2c-2 1.4-4.2 2.5-4.7 2.5-0.5 0-1.2 0.7-1.5 1.5-0.3 0.8-0.6 2.3-0.7 3.2 0 0.9-0.7 2.4-1.4 3.2-1.1 1.3-1.1 2.1-0.1 4.3 0.6 1.6 1.5 2.8 2 2.8 0.4 0 0.7 1 0.7 2.3 0 1.2-0.5 2.7-1.2 3.4-1 0.9-1 1.5 0.5 2.7 1.6 1.5 1.7 1.4 1.8-0.6 0.1-2.2 0.1-2.2 0.8 0.2 0.5 1.8 1.5 2.6 3.9 3 1.8 0.3 3.2 1 3.2 1.5 0 0.5 1.3 1.1 3 1.3 2.3 0.1 3.8 1.3 6.3 4.7 2.9 4 3.5 4.4 6.5 4 2.3-0.4 3.3-0.1 3.7 1 0.3 0.8-0.4 3.4-1.5 5.8-1.1 2.3-2 5.3-2 6.7 0 1.4 0.4 3.8 0.9 5.5 0.6 1.7 2.2 3.8 3.6 4.8 1.4 0.9 3.3 1.7 4.3 1.7 0.9 0 2.2 0.4 2.7 1 0.7 0.7 2.8-0.6 6.7-4.2 3.1-2.9 6.4-6.9 7.3-8.8 1-1.9 2.1-6.2 2.6-9.5 0.4-3.5 0.4-6.7-0.2-7.7-0.5-1-2.8-2.7-5.1-3.8-2.7-1.2-6.5-2-10.3-2-4.8-0.1-6.7 0.4-9.7 2.5-2.1 1.4-4.3 2.5-4.8 2.5-0.5 0-1.9-1.2-3-2.7-1.2-1.6-2.1-3.7-2.1-4.8 0-1.1 0.7-3.3 1.6-5 0.8-1.7 1.5-4.3 1.5-6 0-1.7-0.6-4.6-1.3-6.6-0.6-2-2.7-5.8-4.4-8.3-1.8-2.5-3.9-4.6-4.6-4.6-0.8 0-3 1.1-5 2.5zm-336.6 6c-0.5 1.5-0.9 3.2-1 3.8 0 0.7 2.1 2.6 4.7 4.3 2.6 1.6 6.1 5 7.7 7.5 2.4 3.5 3.7 4.5 6.3 4.7 2.3 0.1 3.2-0.2 3.2-1.3 0-0.8-0.4-1.6-0.8-1.7-0.4-0.2-1.8-1.8-3-3.5-1.9-2.8-2-3.6-0.9-5.3 0.9-1.5 0.9-2.2 0-3.2-1-1.1-1.6-0.9-3.3 0.7l-2 2c-3.3-3.1-4.6-5-5.1-6.2-0.5-1.3-1.8-2.8-2.9-3.3-1.6-0.9-2.1-0.7-2.9 1.5zm36.5 6c-1.4 4.7-2.6 9-2.6 9.5 0 0.5-0.4 1-1 1-0.5 0-1.2-0.5-1.5-1-0.3-0.5-1.2-1-2-1-1.1 0-1.5 1.1-1.5 4.3 0 2.3 0.5 4.8 1.2 5.5 1.1 1 0.6 1.2-2.5 1.2-3.1 0-4.6 0.7-7.3 3.5-2.6 2.7-3.4 4.3-3.4 7.3 0 2 0.7 4.7 1.5 6 0.8 1.2 2.5 2.7 3.8 3.4 1.2 0.6 3.8 1.4 5.7 1.7 3.4 0.6 3.5 0.8 3.8 5.4 0.1 3 0.7 4.7 1.5 4.7 0.6 0 1.7-0.4 2.3-0.8 0.6-0.4 1.1-6 1.1-14.7 0.1-12.6 0.4-15.4 3.7-28 2.8-11.1 3.3-14.3 2.3-15.3-0.6-0.7-1.5-1.3-1.9-1.2-0.3 0-1.8 3.8-3.2 8.5zm-56.6-2.7c0.1 2.6-0.5 5.3-1.2 6-0.9 0.9-2.9 1.1-6.8 0.7-3-0.3-6.7-0.8-8.2-1.1-2.3-0.3-2.8-0.9-2.8-3.4 0-1.7-0.4-3-1-3-0.5 0-1.2 1-1.5 2.3-0.3 1.2-0.5 4-0.5 6.2 0 2.2 0.6 5.5 1.3 7.3 0.6 1.8 1.8 3.2 2.5 3.2 0.6 0 1.4 0.6 1.6 1.3 0.2 0.6 2.2 1.5 4.5 2q4.1 0.7 7.4-0.6c1.7-0.8 3.6-1.3 4.1-1.3 0.5 0.1 1.5-2.3 2.2-5.1 0.8-2.9 2.4-6.6 3.7-8.3l2.2-2.9c-4.3-6.3-5.9-8.1-6.5-8.1-0.5 0-1 2.1-1 4.8zm140.7-0.3c-1 2.2-0.9 2.8 0.5 4.3 1.7 1.6 1.8 1.6 2.7-0.8 0.5-1.5 0.5-3.2 0-4.2-0.5-1-1.1-1.8-1.4-1.8-0.3 0-1.1 1.1-1.8 2.5zm192.3 4.5c-2.2 0.5-4.7 2.3-6.7 4.7-1.8 2.1-3.7 5.7-4.3 8.1-0.5 2.3-0.7 5.6-0.2 7.4 0.4 1.7 1.7 4.2 3 5.5 1.2 1.2 3.4 2.6 5 2.9 1.7 0.4 4.4 0 7.1-1.2 4.3-1.8 4.5-2.1 5.7-7.9 0.6-3.3 1.1-7.1 0.9-8.5-0.1-1.4-0.1-1.9 0.1-1.2 0.2 0.6 1.3 1.2 2.4 1.2 1.7 0 1.9-0.5 1.4-2.7-0.3-1.6-1.8-4.2-3.2-6-1.8-2-3.6-3.1-5.2-3.1-1.4 0-4.1 0.4-6 0.8zm-320 0.7c-0.8 0.3-2.8 1.7-4.3 3.2-1.5 1.4-3.3 4.4-3.8 6.6-0.6 2.2-0.8 5.3-0.5 7 0.3 1.7 1.8 4.5 3.3 6.3 2.5 2.9 3.5 3.4 8.6 3.8 5 0.3 6.1 0.1 8.7-2.1 2-1.6 3.2-3.8 3.6-6.2 0.4-2.2 0-5.7-0.7-8.2-0.9-2.7-2.8-5.7-5.1-7.7-2.1-1.9-4.8-3.4-6-3.3-1.3 0-3 0.3-3.8 0.6zm-66.9 20.5c-0.8 0.9-0.9 3.6-0.3 9.8 0.5 5.5 1.5 9.6 2.8 11.6 1 1.8 4 4.8 6.7 6.8 4.4 3.4 4.9 3.5 8.5 2.5 2-0.6 4.9-2.3 6.5-3.7 2-2 2.7-3.6 2.7-6.4 0-2.1-0.8-5.7-1.7-8-1.1-2.6-3.3-5.3-5.8-7-2.2-1.6-4.9-2.8-6-2.8-1.4 0-2 0.7-2 2.1 0 1.2-0.9 2.6-2 3.3-1.1 0.6-2.5 1.9-3.2 2.9-0.7 0.9-2 1.7-2.8 1.7-0.8 0-1.5-0.9-1.5-2 0-1.2 0.8-2.2 2-2.5 1.7-0.4 2-1.2 1.8-4.7-0.3-3.5-0.7-4.4-2.4-4.6-1.1-0.2-2.6 0.3-3.3 1zm244.1 2.5c0.4 0.5-0.1 1.9-1.1 3.3-1 1.4-2.6 5.2-3.6 8.5-1 3.3-2.1 6.9-2.6 8-0.5 1.1-1.6 5.3-2.4 9.3-0.8 3.9-1.5 11.5-1.5 16.7 0 6.9 0.5 11.1 2 15.3 1.1 3.1 2 6.3 2 7 0 0.6-0.7 1.2-1.5 1.2-0.8 0-2.5 1.4-3.7 3-1.3 1.7-3 3-3.8 3-0.8 0-3.2-2-5.3-4.3l-3.8-4.2c4.2-7.3 4.6-9.8 4.9-19 0.3-6.1-0.1-13.4-0.7-16.5-0.7-3-2.6-10.1-4.4-15.8-3-9.7-3.3-10.2-5.9-10.2-1.6 0-2.8 0.1-2.8 0.3 0 0.1 1.3 4 2.9 8.7 1.6 4.7 3.7 12 4.5 16.3 0.9 4.2 1.6 10.7 1.6 14.5 0 3.7-0.7 9-1.5 11.7-0.8 2.8-2.7 6.2-4.3 7.7-2.6 2.7-2.6 2.8-0.9 4.5 1.3 1.3 1.6 2.5 1.1 4.3-0.4 1.4-2.8 4.6-5.3 7.1-4.2 4.3-5.1 4.7-10.6 5.1-3.3 0.3-8.7 1.3-12 2.1-3.3 0.9-6.7 2.3-7.5 3.2-0.8 0.8-2.8 1.5-4.5 1.5-1.6 0.1-3.7-0.6-4.5-1.5-0.8-0.9-2.3-1.6-3.2-1.5-1 0-3.4-1.9-5.3-4.2-1.9-2.4-3.5-4.9-3.5-5.5 0-0.9-0.8-1.1-2.2-0.7-1.3 0.3-3.5 1.4-5 2.3-1.5 0.9-3.7 2.9-4.8 4.6-1.4 2.2-2 2.5-2 1.3 0-1-0.6-1.8-1.3-1.8-0.7 0-1.7 0.5-2.2 1.1-0.6 0.6-2.8 0.8-5.5 0.5-3.3-0.4-5-1.2-6.2-3.1-1-1.4-1.8-3.4-1.8-4.5 0-1.2 1.1-2.5 2.6-3.2 2-1 3.2-1 5.7-0.1 1.8 0.7 3.8 1.3 4.5 1.3 0.6 0 1.2-0.5 1.2-1 0-0.5-0.9-1.9-2-3-1.1-1.1-2.4-2-3-2-0.5 0-3.1-2.4-5.6-5.2-2.5-2.9-6.5-8.5-8.7-12.3-2.2-3.8-4.9-9.7-6-13-1.1-3.3-2-6.1-2.1-6.2-0.1-0.1-1.1 0-2.3 0.2-1.3 0.3-2.3 1.2-2.3 2 0 0.8 1.1 4.8 2.6 8.8 1.4 3.9 4.5 10.1 6.9 13.7 2.8 4.1 4.4 7.6 4.4 9.5 0.1 2.1-1 4-3.4 6.5-3.2 3.2-3.4 3.8-2.5 7 0.6 1.9 1 5.2 1 7.3 0 3 0.5 4 2.8 5.4 2.4 1.5 3.3 1.5 7.2 0.4 2.5-0.7 6.5-1.5 9-1.7 3.4-0.4 4.9-0.1 6.3 1.3 1 1 1.7 2.3 1.7 2.8 0 0.5 0.8 2.2 2 3.8 1.1 1.5 2.9 2.7 4 2.7 1.1 0 5.8-1.8 10.5-4 4.7-2.2 9.2-4 10-4 0.8 0 4.3 1.5 7.8 3.4 3.4 1.9 8.1 3.7 10.5 4 3.5 0.5 4.6 0.2 6.5-1.7 1.2-1.3 2.7-3.2 3.3-4.3 1.1-1.9 1.2-1.9 4 0.2 1.6 1.2 3.8 2.4 4.9 2.8 1.1 0.4 3.2 0.2 4.8-0.4 1.5-0.5 3.4-2.3 4.2-4 0.8-1.7 1.5-4 1.5-5.2 0-2.1 0.2-2.2 3.2-1.4 1.8 0.5 4.4 0.9 5.8 0.9 1.4 0.1 4.1-0.3 6-0.7 3.3-0.8 3.6-0.6 4.8 2.3 0.6 1.7 2.3 4.2 3.7 5.6 1.4 1.4 3.4 2.5 4.5 2.5 1.1 0 3.5-0.7 5.3-1.6 3.2-1.5 3.2-1.5 7 2 3 2.9 4.2 3.5 6.5 3 1.5-0.3 6.4-2.1 11-4 5.3-2.2 9-3.2 10.5-2.8 1.2 0.4 4.9 2 8.2 3.6 3.3 1.7 7.5 3.2 9.3 3.4 2.5 0.3 3.6-0.1 5-2 0.9-1.3 2.5-3.8 3.5-5.5 1.4-2.5 2.3-3.1 5.2-3.1 1.9 0 6.8 0.7 10.8 1.6 6.5 1.4 7.4 1.4 9.5 0 1.7-1.3 2.2-2.6 2.2-6.1 0-2.5 0.3-4.5 0.8-4.5 0.4 0 2.4 0.6 4.5 1.5 2 0.8 4.4 1.5 5.2 1.5 1 0 1.4-0.8 1.3-2.6-0.2-2.1-1.2-3-4.5-4.3-2.3-0.9-5.8-3.2-7.8-5.1-3.2-3.1-3.5-4-3.5-8.7 0-3.6-0.4-5.3-1.2-5.3-0.7 0-3.4 2.1-6 4.7-2.6 2.7-4.8 5.6-4.8 6.6 0 0.9-1.7 2.7-3.7 3.9-2.1 1.2-5.8 2.3-8.3 2.6-2.5 0.2-4.9 0.8-5.5 1.3-0.5 0.5-2.8 0.9-5.2 0.9-2.4 0-5.5 0.6-7 1.4-1.6 0.7-3.1 2.1-3.5 3-0.5 0.9-1.6 1.6-2.5 1.6-1 0-2.7 1.1-3.8 2.5-1.1 1.4-3.5 2.8-5.3 3.2l-3.2 0.8c0-6.2-0.5-8.6-1.2-9.3-0.8-0.8-4.2-1.2-9.3-1.3-6 0-8.4 0.4-9.5 1.6-1.4 1.4-1.7 1.4-3.5-0.4-1.1-1.2-3.2-2.1-4.7-2.1-2 0-2.8-0.5-2.8-1.7 0-1-1.3-2.6-3-3.5-1.6-1-3-2.3-3-2.8 0-0.5 0.5-1 1-1 0.6 0 1.2-0.9 1.5-2 0.3-1.1 1.2-2 2-2 0.8 0 1.5-0.6 1.5-1.2 0-0.7-0.7-2-1.5-2.8-0.8-0.8-2.3-4.1-3.5-7.2-1.2-3.5-2-8.3-2-12 0-3.5 0.9-11 2-16.8 1.2-5.8 2.5-11.4 3-12.5 0.5-1.1 2.1-5.1 3.4-8.9 1.3-3.9 2.2-7.3 2-7.8-0.2-0.4-1.4-0.8-2.6-0.8-1.3 0-2 0.3-1.6 0.7zm-181.4 17.3c-0.2 0.5-3.4 1.1-7.3 1.3-3.8 0.2-7.1 0.7-7.4 1-0.2 0.4 0 0.7 0.6 0.7 0.6 0-0.4 1.6-2.3 3.5-2.2 2.3-4 5.5-5 9.3-1 3.6-1.4 7.3-1 10 0.3 2.3 1.5 6.1 2.6 8.5 1.1 2.3 3.1 5.5 4.5 7.2 1.3 1.7 2.2 3.3 2 3.8-0.3 0.4 0.2 0.7 1 0.7 0.8 0 1.3-0.5 1-1-0.3-0.5 0.7-1 2.3-1l2.7-0.1c-4.3-3.8-5.6-5.5-5.7-6.3-0.2-0.8 0.2-1.5 0.7-1.4 0.6 0 1.2-0.5 1.5-1.1 0.3-0.7 1.2-0.8 2.3-0.4 1 0.5 1.6 1.4 1.3 2.1-0.3 0.6-0.1 1.2 0.4 1.2 0.6 0 1.2 1 1.5 2.3l0.5 2.2c2.7-3.4 3.8-4.1 4.3-3.7 0.4 0.4 2.5-0.3 4.7-1.5l4-2.3v10.5l-9-1.5c0 5.4-0.3 7-0.7 7-0.5 0-2.1-0.9-3.8-2-1.6-1.1-3.6-2-4.2-2-0.9 0-0.9 0.4 0.2 1.5 0.8 0.8 1.7 2.5 2 3.8 0.3 1.3 2 3 4.2 4.1 2.1 1 6.3 2.1 9.3 2.4 3 0.3 7.8 0 10.5-0.7 3.4-0.7 6.5-2.4 9.9-5.3 2.7-2.4 5.8-6.1 6.7-8.3 1.1-2.4 1.9-6.4 1.9-10 0-4.7-0.6-7.3-2.9-12-1.6-3.3-5.3-8.5-8.3-11.5-3.1-3.3-7.9-6.9-11.8-8.8-3.6-1.8-7.9-3.2-9.7-3.2-1.7 0-3.3 0.4-3.5 1zm322.9-0.3c-1 0.3-4.4 2-7.5 3.8-3.1 1.8-7.4 5.1-9.4 7.2-2 2.1-5.3 6.5-7.3 9.8-3.2 5.4-3.5 6.7-3.5 13.3 0 4.7 0.6 8.5 1.7 11 1 2 3.6 5.4 5.8 7.5 2.2 2.1 4.6 3.8 5.3 3.7 0.6 0 2.6 1.1 4.2 2.5 2.4 2 3 3.3 3 6.5v4c9.7 0 13.4-0.3 14.5-0.6 1.7-0.4 1.9-1.2 1.6-5.2-0.2-3.5 0.1-5 1.3-5.9 0.9-0.7 1.4-2 1.1-2.8q-0.5-1.5 1.5-1.5c1.5 0 1.9-0.6 1.8-2.6-0.2-1.9-0.7-2.4-2-2-1.7 0.6-1.8-0.5-1.8-13.4 0-8.7 0.4-14 1-14 0.6 0 0.8-0.5 0.5-1-0.3-0.5 0.3-1.9 1.3-3 0.9-1.2 2.3-2.1 3-2 0.6 0 1.4 0.6 1.6 1.3 0.3 0.6 0.5-0.1 0.5-1.8 0.1-2.7 0.2-2.8 1.3-1.2q1.3 1.9 6.1 2.3c2.7 0.2 4.7 0 4.7-0.6 0-0.5-1.2-2.8-2.7-4.9-1.6-2.1-4.3-4.8-6-6-1.8-1.2-4.5-2.4-6-2.8-2.4-0.6-2.7-0.4-2 1 0.5 1.2 0.1 1.8-1.3 2.2-1.7 0.4-2 0.1-1.7-2.2 0.2-2.7 0-2.8-4.3-3-2.5 0-5.3 0.1-6.3 0.4zm-38.7 9.6c0 0.6-0.4 2.9-0.8 5-0.6 3.4-0.5 3.7 1.6 3.7 1.2 0 2.4-0.3 2.6-0.7 0.3-0.5 0.6-2.7 0.8-5 0.3-3.9 0.2-4.3-1.9-4.3-1.3 0-2.3 0.6-2.3 1.3zm91.2 16.9c-0.7 1.8-1.1 3.4-0.9 3.5 0.1 0 1.1 0.3 2.2 0.5 1.6 0.2 2-0.3 2.1-2.3 0-1.4-0.5-3.1-1.1-3.8-0.9-0.9-1.4-0.4-2.3 2.1z"/>
		<path id="Path 10" class="s10" d="m507 779c0 0.5 3.1 3.5 7 6.5 3.9 3 7.7 5.5 8.5 5.5 0.8 0 1.5-0.3 1.5-0.8 0-0.4-1.7-2.1-3.7-3.7-2-1.6-5.5-4.2-7.7-5.7-2.3-1.6-4.4-2.8-4.8-2.8-0.5 0-0.8 0.5-0.8 1zm7.3 30.6c-1.3 0.2-2.3 0.7-2.3 1.1 0 0.5 1.8 1.7 4.1 2.8 2.4 1.1 7.9 5.6 12.4 10 4.6 4.4 9.5 10 11 12.5 1.6 2.5 4 7 5.5 10 1.5 3 3.3 7.4 4.1 9.8 1 3.2 1.1 4.5 0.3 5-0.8 0.5-0.3 2.5 1.7 6.7 1.5 3.3 3.6 10.3 4.5 15.5 1.1 6.4 1.5 12.6 1.2 19-0.4 8-0.9 10.6-3.7 16.5-1.8 3.9-4.7 8.5-6.4 10.3-1.8 1.9-5.9 5.3-9.2 7.7-3.3 2.3-8.1 5-10.8 5.9-2.6 0.9-6.2 1.9-7.9 2.2-1.8 0.3-6.7 0.6-10.8 0.6-4.8 0-11.2-0.9-17.7-2.6-5.7-1.4-10.6-2.6-11-2.6-0.5 0-0.6-3.4-0.3-7.5 0.3-4.1 0.2-7.5-0.2-7.5-0.5 0-1-0.9-1.3-2q-0.5-2-3-2c-2.4 0-2.5 0.2-2.5 7.2 0.1 4 0.5 9.3 1 11.8 0.6 2.7 2 5.6 3.7 7.3 1.5 1.5 5.3 4 8.3 5.6 3 1.6 8.6 3.9 12.5 5.1 3.9 1.1 10.6 2.4 15 2.7 5.7 0.4 10.5 0.1 16.5-1.2 4.7-0.9 11.4-3.1 15-4.8 3.7-1.8 9.3-5.7 13-9.3 4.5-4.2 7.8-8.5 10.7-14 2.3-4.3 5-11.3 6.1-15.4 1.1-4.3 2.5-7.6 3.3-7.8 0.8-0.2 2.1 0.4 2.9 1.4 1.2 1.3 1.4 3.9 1.2 11.3-0.1 5.3-1 12.1-1.8 15.1-0.9 3-2.6 7.3-3.9 9.5-1.3 2.2-5.4 6.9-9.2 10.5-4.5 4.3-9.4 7.8-14.5 10.3-4.6 2.2-7.8 4.3-7.8 5.2q0 1.5 3 1.5c1.6 0 6.9-1.6 11.8-3.5 4.8-2 10.3-4.8 12.2-6.3 1.9-1.5 4.7-4.7 6.2-7.2 1.6-2.5 2.8-5.1 2.8-5.8 0-0.6 0.6-1.8 1.3-2.5 0.7-0.6 2.1-4.6 3.1-8.7 1.6-6.3 1.8-9.7 1.3-21.5-0.4-8-1.5-18.1-2.7-23.5-1.1-5.2-3.4-13.8-5.1-19-1.7-5.2-5.5-14.5-8.4-20.5-3-6-7.6-13.9-10.3-17.5-2.7-3.6-8.7-10-13.3-14.3-4.6-4.4-10.6-9-13.4-10.3-2.8-1.4-7.5-2.6-10.5-2.8-3-0.3-6.5-0.3-7.7 0zm123.6 95c-2.4 2-6.8 5.3-9.7 7.3-2.9 2-5.3 3.9-5.2 4.3 0 0.5-0.6 0.8-1.2 0.8-0.7 0.1-3.5 1.7-6.2 3.6-2.7 2-4.9 4.2-4.8 5 0.1 0.8 0.9 1.4 1.7 1.4 0.8 0 5.4-2.6 10.3-5.8 4.8-3.2 11.8-8.8 15.5-12.3 3.7-3.5 6.8-6.7 6.7-7.2 0-0.4-0.6-0.7-1.4-0.7-0.8 0-3.4 1.6-5.7 3.6zm-82.9 70.5c-1.4 0.6-7 2.1-12.5 3.5-5.5 1.3-16.1 3.2-23.5 4.3-7.4 1.1-19.2 2.5-26.2 3-7.1 0.6-15.5 1.1-18.8 1.1h-6c-0.9 7.8-2 9.5-6.5 14-3.5 3.4-5.5 6.3-5.5 7.7 0 1.3 0.3 2.3 0.8 2.3 0.4 0 7.2-1.1 15.2-2.4 8-1.3 18.3-3.3 23-4.4 4.7-1.1 14.1-3.9 21-6.2 6.9-2.3 17-6.4 22.5-9.2 5.5-2.8 12.6-6.8 15.8-8.9 3.1-2.2 5.9-4.4 6.2-4.9 0.3-0.5-0.3-1-1.2-0.9-1 0-2.9 0.5-4.3 1zm-263.4 14.6c-0.4 1-0.5 1.8-0.4 1.9 0.2 0 3.7 1.5 7.8 3.1 4.1 1.7 11.6 4.2 16.5 5.7 4.9 1.4 16 4 24.5 5.7 8.5 1.7 17 3.4 18.9 3.8 1.9 0.3 3.6 1.2 3.8 1.8 0.1 0.7-0.4 1.3-1.2 1.3-0.8 0-1.5 0.1-1.5 0.2 0 0.2 0.7 2.5 1.5 5.3 0.9 2.7 2 6.7 2.5 8.7 0.9 3.4 1.5 4 5.7 5.3 2.7 0.8 5.1 1.5 5.5 1.5 0.5 0 0.8-2.5 0.8-5.5 0-3-0.4-5.7-1-6-0.6-0.3-1-2.6-1-5.3 0.1-3.5-0.5-5.2-2-6.7-1.1-1.1-2.1-2.8-2-3.8 0-1-0.9-1.9-2.3-2.1-1.2-0.3-6.9-1-12.7-1.6-5.8-0.7-11.2-1.4-12-1.7-0.8-0.3-2.4-0.7-3.5-0.8-1.1-0.2-3.8-0.6-6-0.9-2.2-0.4-9.9-2.2-17-4.1-7.1-2-15.1-4.4-17.8-5.5-2.6-1.1-5.1-2-5.6-2-0.5 0-1.2 0.8-1.5 1.7zm155.5 24.9c-0.5 1.4-1 4.4-1 6.7-0.1 2.9 0.4 4.8 1.6 5.9 1 1 2.2 1.8 2.8 1.8 0.6 0 2-2.6 3.2-5.7 1.2-3.2 2.5-6.6 2.8-7.5 0.4-1.4-0.1-1.8-2-1.8-1.4 0-2.7-0.5-3-1-0.3-0.5-1.2-1-2-1-0.9 0-1.9 1.2-2.4 2.6zm49.9 5.6c0 1.3 0.4 2.8 0.9 3.3 0.5 0.5 2.9 7.3 5.4 15 2.5 7.7 5.8 18.3 7.5 23.5 1.6 5.2 3.3 10.8 3.6 12.5 0.4 1.7 1.7 6 2.9 9.7 1.4 4.2 2.9 6.9 3.9 7.3 1.4 0.4 1.8-0.1 1.8-1.7 0-1.3-1.2-6.3-2.6-11.3-1.4-5-2.9-10.3-3.4-12-0.4-1.7-2.4-7.7-4.5-13.5-2-5.8-4.5-13-5.4-16-1-3-2.3-6.4-2.9-7.5-0.6-1.1-1.9-4.2-2.9-6.8-1-2.6-2.4-4.8-3.1-4.7-0.6 0-1.2 1-1.2 2.3zm-77.5 77.3c0.3 1.6 0.3 3.7 0 4.7-0.5 1.6-0.7 1.6-3.3 0.1-1.5-0.9-3.9-2.8-5.5-4.3-2.1-2.1-3-2.3-4-1.4-0.9 1-0.9 1.8 0 3.8 1 2 1 2.8 0 4-0.6 0.9-2.2 1.6-3.5 1.5-1.2 0-4.4-2.1-7.2-4.7-2.8-2.7-5.4-4.5-5.8-4-0.4 0.4 0.9 4.4 2.9 9 2.1 4.5 4.8 11.8 6.2 16.2 1.4 4.4 2.8 9.8 3.1 12 0.6 3.7 1 4.1 4.4 4.7 2 0.4 4.4 0.8 5.2 0.8 1.1 0 1.9-1.9 2.7-6.5 0.7-3.6 1.7-7.3 2.2-8.2 0.5-1 1.7-4.5 2.6-7.8 1-3.3 2.6-7.1 3.6-8.5 1-1.4 1.5-2.8 1.1-3.3-0.4-0.4-0.3-0.7 0.3-0.7 0.6 0 1-0.6 1.1-1.2 0-0.7 0.4-2.3 0.7-3.5 0.6-1.9 0.2-2.5-2.6-3.5-1.7-0.6-3.6-1.4-4-1.6-0.4-0.3-0.5 0.8-0.2 2.4zm196.2 37.1c-0.2 0.4-0.8 2.4-1.2 4.3-0.4 1.9-1.8 7.1-3.1 11.5-1.4 4.4-3.2 9-4 10.3-0.8 1.2-1.2 2.9-0.9 3.7 0.3 0.8 1.1 1.5 1.8 1.5 0.6 0 2.4-1.6 3.8-3.7 1.4-2.1 4.2-8.3 6.3-13.8 2-5.5 3.6-10.9 3.4-12-0.2-1.3-1.2-2.1-2.9-2.3-1.5-0.2-2.9 0-3.2 0.5zm-381.6 56.1c0.2 0.9 1.4 1.8 2.7 2 1.2 0.1 2.1-0.3 2-0.9-0.2-0.6-1.4-1.5-2.7-2-2-0.7-2.4-0.6-2 0.9z"/>
		<path id="Path 11" class="s11" d="m406 717.3c-1 1.9-0.8 2.7 1.8 5.7 1.6 1.9 4.8 6.7 7.1 10.5 2.3 3.9 4.4 8.1 4.7 9.5 0.2 1.4 1.6 3.6 2.9 5 1.4 1.4 2.5 3.1 2.5 3.8 0 0.6-0.7 1.2-1.5 1.2-1 0-1.4 0.8-1.2 2.3 0.1 1.7 0.9 2.3 3.7 2.5 1.9 0.1 4.1-0.3 4.9-1 0.9-0.9 2.5-1.1 5.2-0.5 2.1 0.4 8.7 2.3 14.6 4.2 6 1.9 11.1 3.2 11.5 2.8 0.4-0.5 0.9-1.9 1-3.3 0.3-2.4-0.1-2.6-9.4-4.7-5.4-1.3-9.8-2.8-9.8-3.3 0-0.5 0.8-1.2 1.8-1.4 1.6-0.3 1.6-0.4 0-0.5-1.1-0.1-1.8-0.9-1.8-2.1 0-1.3-0.6-1.9-1.7-1.7-1.2 0.1-2.1-1.3-3.5-6-1.2-4.1-2.3-6.3-3.3-6.3-0.8 0-1.7 0.5-2 1-0.3 0.5-1.6 1-3 1-1.8 0-2.5 0.5-2.5 2 0 1.1-0.4 2-1 2-0.6 0-2.5-2.8-4.4-6.2-1.9-3.5-5.4-8.7-7.8-11.7-2.3-2.9-5-5.7-5.9-6.2-1.2-0.5-2-0.1-2.9 1.4zm20.4 5c0.4 3.9 1 7.5 1.2 8 0.2 0.4 2 0.7 3.9 0.7 1.9 0 3.5-0.2 3.5-0.5 0-0.3-1.7-3.9-3.7-8-2.1-4.2-4.2-7.5-4.7-7.5-0.5 0-0.6 3.1-0.2 7.3zm-199.4 30.7c-1.4 1.2-3.9 2.1-5.7 2-2.9 0-3.2 0.3-2.8 2.3 0.2 1.2 1.1 5.8 1.9 10.2 0.9 4.4 2 12.1 2.5 17 0.6 5 1.3 13.1 1.6 18 0.3 5 0.1 14-0.5 20-0.7 6.1-2 13.7-3.1 17-1 3.3-2.9 7-4.2 8.3-1.6 1.6-3.3 2.2-6.4 2.2-3.6 0-4.3 0.3-4.3 2 0 1.1 0.4 4 1 6.5 0.9 3.9 1.4 4.5 3.5 4.5 1.4 0 5-1.9 8.3-4.4l5.7-4.3c1.3-13 2.5-20.6 3.6-25.3 1.7-7 2.6-9 5.2-11.3 2.3-1.9 4.3-2.7 7-2.7 2.9 0 3.7-0.4 3.7-1.7 0-1-0.7-7-1.5-13.3-0.8-6.3-2.7-18-4.1-26-1.4-8-2.9-16.3-3.2-18.5-0.6-3.3-1.2-4-3.2-4.2-1.4-0.2-3.6 0.6-5 1.7zm185.8 8.6c-4 0.3-4.8 0.7-4.8 2.4 0 1.7 0.7 2 4.2 2 2.4 0 6 0.4 8 0.8 3.1 0.6 3.9 0.4 4.5-1.1 0.5-1 0.4-2.2-0.2-2.7-0.6-0.5-2.4-1.1-4-1.3-1.6-0.2-5.1-0.2-7.8-0.1zm65.2 93.4c-1.1 2.4-1.2 3.6-0.5 3.8 0.6 0.2 1.5 0 1.9-0.5 0.4-0.4 0.6-2.1 0.5-3.8l-0.4-3zm-38.3 18.5c-0.3 0.9 0.3 1.9 1.7 2.7 1.2 0.6 4.9 3.6 8.1 6.7 3.2 3.1 7.1 8 8.7 10.9l3 5.2h13c0.2-5.8 0.4-8.6 0.5-10 0.1-1.4 0.5-4.2 0.8-6.2 0.6-3.5 0.5-3.8-1.8-3.8-1.4 0-2.5 0.6-2.5 1.3 0 0.6-0.8 2-1.8 2.9-1 1.1-3.4 1.8-5.7 1.8-3 0-5-0.7-7.5-2.8-2-1.6-5.7-4.5-8.3-6.5-2.6-2.1-5.4-3.7-6.2-3.7-0.7 0-1.6 0.7-2 1.5zm-217.7 42c-0.9 1.1-3.1 1.6-7.1 1.5-3.7 0-5.9 0.4-6.2 1.3-0.2 0.6-0.6 2.6-0.9 4.2-0.5 2.7-0.1 3.2 3.6 5.5 2.4 1.3 7.9 4.2 12.3 6.3l8 3.9c-1.4-6.7-2.1-11.8-2.4-15.5-0.4-4.4-1.2-7.1-2.1-7.7-0.9-0.5-2.1-1-2.7-1-0.6 0-1.7 0.7-2.5 1.5zm19.2 27.7c-0.8 0.7-1.4 1.7-1.3 2.3 0.1 0.5 1.9 3.7 4.1 7 2.8 4.3 5.6 7 9.8 9.6 3.2 2 8.1 4.5 10.9 5.6 2.7 1.2 8.3 3 12.5 4.2 4.1 1.1 7.8 2.1 8.2 2.1 0.4 0 0.8-1.3 0.8-3q0-3-1.5-3c-0.9 0-4-1.1-7-2.5-3.1-1.4-5.8-2.5-6-2.5-0.3 0-4.2-2.4-8.7-5.2-4.5-2.9-10.4-7.7-13-10.5-2.7-2.9-5.4-5.3-6.1-5.3-0.8 0-2 0.5-2.7 1.2zm226.9 13.3c-0.8 0.9-3.3 1.8-5.7 2.2-2.3 0.4-5.2 1.2-6.5 1.9-1.2 0.7-4.6 1.5-7.5 1.9-2.9 0.4-5.7 1.2-6.2 1.8-0.5 0.7-1 2.3-1.2 3.6-0.3 2-1.5 2.7-7.8 4.6-4.2 1.3-8.8 2.8-10.3 3.4-2 0.8-2.7 1.7-2.5 3.4 0.2 2 1 2.3 7.3 2.9 3.8 0.3 13.7 0.7 22 0.7 8.2 0 20.6-0.4 27.5-0.9 6.8-0.5 13.5-1 14.7-1 2 0 2.3-0.5 2.3-4 0-2.2-0.5-4.2-1-4.5-0.6-0.3-1-1.7-1-3.2 0-1.6-0.8-3.6-1.8-4.5-0.9-1-2.5-1.8-3.5-1.8-1 0-3.9-1.8-6.5-4-3.3-2.9-5.7-4.1-7.8-4-1.7 0-3.7 0.7-4.5 1.5zm4.9 85c-0.8 0.9-2.9 1.6-4.9 1.5-2.2 0-4.2 0.7-5.2 1.8-1 0.9-1.7 2.5-1.7 3.5 0 1.3 0.8 1.7 4 1.7 3.1 0 4.8 0.7 7.7 3.3 2.1 1.9 5.6 6.9 7.9 11.3 2.3 4.3 5.4 11.9 6.9 16.9 1.9 6.6 2.8 12.2 3.2 21 0.3 6.7 0 15.1-0.6 19-0.6 3.8-1.3 7.8-1.6 8.8-0.4 1.3 0 1.7 1.7 1.7 1.2 0 3.5-1.2 5-2.7 1.8-1.9 2.7-3.9 2.7-6 0-1.8 0.5-3.5 1.1-3.8 0.5-0.3 1-1.8 1-3.5 0-1.7 0.4-3.2 1-3.5 0.5-0.3 1-5 1-11 0-6 0.4-10.7 1-11 0.5-0.3 1-4.3 1-9 0-4.7-0.5-8.7-1-9-0.6-0.3-1.1-1.8-1.1-3.3 0-1.7-1.1-3.9-2.5-5.3-1.4-1.3-3-4-3.6-5.9-0.7-1.9-3.5-6.1-6.3-9.3-2.8-3.2-6.4-6.5-8-7.3-1.7-0.8-4-1.4-5.2-1.4-1.2 0-2.7 0.7-3.5 1.5zm-110.8 21.4c-1.3 0.8-0.8 2.4 3.1 10.3 2.5 5.1 6.3 14 8.3 19.8 2 5.8 4.2 13.4 4.9 17 1.2 5.7 1.6 6.5 3.7 6.8 1.4 0.2 2.9 0.8 3.5 1.3 0.5 0.5 2.2 0.9 3.7 0.9 1.5 0 2.8-0.5 2.8-1 0-0.5-1.7-5.2-3.6-10.2-2-5.1-4.6-11.1-5.7-13.3-1.1-2.2-2.7-5.3-3.5-7-0.9-1.7-2.3-3.9-3.3-5-0.9-1.1-2-3.3-2.5-5-0.4-1.7-0.7-3.3-0.6-3.7 0.1-0.5-0.6-0.8-1.6-0.8-1.1 0-2-1-2.5-3-0.4-1.6-1.8-4.1-3-5.5-1.6-1.8-2.7-2.2-3.7-1.6zm159.4 31.4c-0.3 1.2-0.5 3.1-0.3 4.2 0.2 1.2 1.3 2.1 2.6 2.3 1.7 0.1 2.3-0.3 2.3-1.8 0-1.1-0.5-3.1-1-4.5-0.6-1.4-1.5-2.5-2-2.5-0.6 0-1.3 1-1.6 2.3zm54.6 11.7c0 0.6-1.4 1.7-3 2.5-2.6 1.3-3.1 2.2-3.4 5.8-0.1 2.3-0.1 5 0 6 0.3 1.4 1.4 1.7 6.1 1.7 3.8 0 7.1 0.7 9.8 2 2.2 1.1 4.1 2 4.2 2 0.1 0 0.2-1.2 0.2-2.7 0-1.6 0.9-3.7 2.1-4.8 1.1-1.1 2-3.3 2-5 0-1.7-0.8-3.8-1.8-4.7-1.2-1.2-3.4-1.8-7-1.8-2.9 0-5.5-0.4-5.7-1-0.3-0.5-1.2-1-2-1-0.9 0-1.5 0.5-1.5 1zm-30.4 8.9c-0.4 1.2-2.6 3.2-4.9 4.6-2.3 1.3-4.9 2.5-5.7 2.5-0.9 0-1.9 1.3-2.3 3.2-0.4 1.8-0.8 4.8-0.8 6.6 0.1 3.1 0.1 3.2 4.6 3.2 2.4 0 5.4 0.5 6.5 1 1.6 0.8 2.8 0.3 6.7-3.3 2.6-2.4 5.6-4.7 6.6-5.3 1.6-0.7 1.7-1.3 0.8-3.1-0.8-1.6-2.2-2.4-4.4-2.5-3-0.3-3.3-0.6-3.7-4.2-0.3-2.2-1-4.1-1.7-4.3-0.6-0.2-1.4 0.5-1.7 1.6zm-254.2 22c0.5 1.4 1.8 5.5 3 9.1 1.2 3.6 4 9.7 6.3 13.5 2.2 3.8 6.1 9.4 8.6 12.3 2.6 2.8 5.3 5.2 6.2 5.2 0.8 0 1.7 0.7 2 1.5 0.3 1.2 1.7 1.4 6.5 1 3.5-0.3 6.2-0.1 6.5 0.5 0.2 0.6 2.2 0.7 4.7 0.4 2.3-0.3 5.6-0.3 7.3 0 1.6 0.3 4.3 1.6 6 3l3 2.3c5.8-2.9 7.8-4.7 8.3-5.9 0.5-1.3 2.7-3.8 5-5.5 3.6-2.9 4.2-3.8 4.2-7.3 0-2.2-0.4-4-0.8-4-0.4 0-1.6 0.6-2.7 1.4-1.1 0.8-4.7 2.2-8 3-3.3 0.9-8.5 1.6-11.5 1.6-3.1 0-8.2-0.7-11.5-1.6-3.3-0.8-8.7-3-12-4.7-3.6-1.9-9-6.2-13.4-10.7-4.1-4.1-8.8-9.6-10.5-12.2-2.1-3.1-4-4.9-5.6-5.1-2.3-0.4-2.4-0.2-1.6 2.2zm-14.8 3.9c-1.6 1.6-1.5 2 0.3 6.2 1.1 2.5 2 6.2 2 8.3l0.1 3.7c10.8 0 14-0.2 14-0.5 0-0.3-0.9-2.9-2-5.7-1-2.9-2.4-7.2-3-9.5-1-4.2-1.1-4.3-5.4-4.3-2.8 0-4.9 0.6-6 1.8zm127.3 10.8c-0.4 11.1-0.8 13.5-2.8 16.9l-2.3 4c5.9 6.5 8.3 8.5 9.2 8.5 0.8 0 2.5-1.3 3.7-3 1.2-1.6 2.9-3 3.8-3 0.8 0 1.5-0.6 1.5-1.2 0-0.7-0.9-3.9-2-7-1.6-4.4-2-8.4-2-16.3 0-7.7-0.4-10.5-1.3-10.5-0.7 0-2.6-0.3-4.2-0.6l-3.1-0.6zm76.2-0.2c-2.4 4.3-6.8 10.3-10.4 13.8-3.4 3.5-8.7 7.5-11.7 9-3.5 1.7-8.6 3.1-14 3.8-4.7 0.6-9.1 0.8-9.8 0.5-0.7-0.3-1.2-1.8-1.2-3.3 0-1.5-1.5-5.7-3.3-9.3-1.8-3.5-3.8-7.9-4.5-9.7-1-2.7-1.8-3.3-4.2-3.3-2.6 0-3 0.4-3 2.5 0 1.4 0.9 5.1 2 8.3 1.1 3.2 2.7 6.4 3.5 7.2 0.8 0.9 1.4 2.1 1.4 2.8 0 0.7-0.8 1.5-1.9 1.7-1.1 0.3-2 1.2-2 2 0 0.9-0.5 1.5-1 1.5-0.6 0-1 0.5-1 1 0 0.6 1.3 1.8 3 2.8 1.6 1 3 2.5 3 3.5 0 1.2 0.8 1.8 2.7 1.8 1.5 0 3.7 0.9 4.8 2 1.8 1.8 2.1 1.9 3.5 0.4 1.1-1.2 3.4-1.5 9.5-1.5 5 0 8.4 0.5 9.2 1.3 0.7 0.7 1.3 3 1.3 5.2l-0.1 4c5.1-1.1 7.5-2.6 8.6-3.9 1.1-1.4 2.7-2.5 3.7-2.5 1 0 2.2-1 2.8-2.1 0.5-1.1 1.9-2.2 3-2.5 1.7-0.4 2-1.3 2-8.2 0-7.1 0.3-8 3-11.3 1.6-1.9 3-4.1 3-5 0-0.8 0.8-2.4 1.8-3.5 1-1.1 2.4-3.8 3.1-6 0.7-2.2 1.1-5.3 0.9-6.9-0.2-1.8-1-3.2-2-3.3-1.1-0.3-2.9 2-5.7 7.2zm-263.1 9.5c-2 0.3-4.6 1.2-5.8 2-1.2 0.9-2.2 2.2-2.2 3 0 0.9 3.5 4.9 7.7 8.9l7.8 7.4 8-8.1c-5.9-6.3-8.1-9.3-8.8-10.7-0.7-1.4-1.7-2.6-2.2-2.8-0.6-0.1-2.6 0-4.5 0.3z"/>
		<path id="Path 12" class="s12" d="m609 752c-1.2 0.7-1.3 1.9-0.5 6.7 0.9 5.3 1.2 5.8 3.8 6 2.4 0.3 2.7 0 2.3-2.5-0.3-1.5-0.7-4.6-0.9-7-0.2-2.8-0.8-4.2-1.8-4.2-0.8 0-2.1 0.4-2.9 1zm-313.5 46.4c-2.3 0.7-4 1.8-4 2.6 0 1.1 0.9 1.4 3 1.2 1.6-0.1 6-0.4 9.6-0.5 5.7-0.2 7.1 0.2 10.7 2.6 2.3 1.5 4 2.9 3.7 3.2-0.3 0.3-2-0.2-3.7-1.2-1.8-0.9-6.4-1.8-10.3-2.1-4.7-0.4-7.2-0.1-7.7 0.6-0.5 0.7-0.2 1.9 0.5 2.7 0.6 0.9 2.6 1.6 4.2 1.5 1.6 0 5.3 0.7 8 1.5 2.8 0.8 6.7 2.8 8.8 4.5l3.7 3c3.9-3.5 5.1-5 5.1-5.5 0-0.5-1.7-3.2-3.8-5.8-2.3-3-5.7-5.8-8.8-7.3-3.4-1.6-6.6-2.4-10-2.3-2.7 0-6.8 0.6-9 1.3zm224.5 4.4v5.7c8.1 1.9 13.2 4.2 16.5 6.4 3.3 2.1 9.6 7.7 14 12.3 4.4 4.5 10.1 11.4 12.5 15.1 3.8 5.7 4.9 6.8 7.3 6.7 2.4 0 2.7-0.4 2.7-3.5 0-3.1-0.3-3.5-2.5-3.5-1.5 0-2.8-0.7-3.1-1.8-0.4-0.9-5.3-8.7-11-17.2-5.6-8.5-11.8-17.4-13.8-19.8-2.5-2.9-4.4-4.2-6.1-4.2-1.4 0-2.6 0.5-2.7 1-0.2 0.6-2.6 0.2-5.8-1-3-1.1-6.1-2-6.7-2-0.9 0-1.3 1.8-1.3 5.7zm94.5 22.3v20c4.8 0 5.1-0.4 5.8-6.2 0.4-3.5 0.7-10.3 0.7-15.3 0-5-0.3-11.1-0.7-13.8-0.7-4.2-1.1-4.7-3.3-4.7h-2.5zm-347.2-6.8c-3.4 4.6-7.1 10.1-8.2 12.3-1.2 2.2-3.3 5.4-4.6 7-2.1 2.5-2.6 2.8-3.5 1.5-0.5-0.8-1-2.5-1-3.7 0-1.6-0.6-2.3-2-2.3-1.9 0-2 0.6-1.8 9.8 0.3 8.9 0.5 9.7 2.3 10 1.6 0.2 3.1-1.7 7-8.5 3.5-6.3 7.7-11.5 14.4-18.3 9-9.1 9.4-9.6 8.5-12.5-0.6-1.8-1.7-3.1-3-3.3-1.4-0.2-3.5 1.8-8.1 8zm23.5 25.1c-2 0.7-5.6 2.6-8 4.2-2.4 1.7-6.2 6-8.6 9.5-2.4 3.6-5.1 8.8-6.2 11.5-1 2.8-2.6 8.8-3.5 13.5-1.2 6-1.6 11.3-1.3 18 0.3 6.4 1.2 11.3 2.6 15 1.2 3 3.2 6.8 4.5 8.5 1.2 1.6 4.7 5.4 7.7 8.3 3 3 8.2 6.7 11.5 8.3 3.3 1.6 8.5 3.4 11.5 4 3 0.6 9.3 0.9 14 0.6 4.7-0.3 12.1-1.5 16.5-2.8 4.4-1.2 8.2-2.4 8.5-2.6 0.3-0.2-0.1-4.5-0.8-9.6-0.8-5.1-2.2-14.1-3.3-20.2-1.1-6-3.1-15.3-4.5-20.5-1.4-5.2-3.7-12.6-5.1-16.5-1.4-3.8-3.7-8.7-5-10.7-1.2-2.1-2.3-4.2-2.4-4.7 0-0.6-0.6-1.4-1.3-1.8-0.7-0.4-2.2-2.3-3.4-4-1.2-1.8-4.1-4.4-6.5-5.8-2.3-1.3-6.2-2.7-8.7-2.9-2.5-0.3-6.2 0-8.2 0.7zm235.8 0.6c0.2 0.6-0.6 1.2-1.8 1.4-2 0.2-2.1 0.3-0.5 2 0.9 0.9 1.7 2.2 1.7 2.7 0 0.6-0.6 1.6-1.3 2.3-0.6 0.8-2.6 1.7-4.2 2.1l-3 0.8c5.5 2.8 7.1 4.6 8.1 7.3 1.1 2.7 1.4 5.5 1 8.5-0.3 2.5-1.6 5.9-2.8 7.7-1.3 1.8-3.5 3.9-5.1 4.7-1.5 0.9-4.6 1.7-7 1.8-2.5 0-5.2-0.6-6.7-1.6-1.4-0.9-2.9-1.3-3.3-0.9-0.5 0.5-1.2 0.8-1.6 0.8-0.4 0-1.5 0.8-2.4 1.8-0.9 0.9-1.5 2.3-1.3 3 0.2 0.6 0.1 1.9-0.4 2.7-0.6 1.1-0.9 0.6-1.4-1.7-0.4-2.4-1.1-3.3-2.6-3.3-1.1 0-2-0.6-2-1.2q0-1.3-0.9-0.3c-0.6 0.6-2.4 6.4-4 13-1.6 6.6-3.7 16.7-4.5 22.5-0.9 5.8-1.6 12.6-1.6 15.3 0 2.6 0.2 4.7 0.5 4.7 0.3 0 5.1 1.2 10.7 2.6 6.6 1.7 13 2.6 17.8 2.6 4.1 0 9-0.3 10.7-0.6 1.8-0.3 5.4-1.3 8-2.2 2.7-0.9 7.5-3.5 10.8-5.9 3.3-2.4 7.4-5.8 9.2-7.6 1.7-1.9 4.6-6.5 6.4-10.4 2.8-6.1 3.3-8.3 3.7-17 0.3-6.7-0.1-13-1.2-19-1.1-5.7-3.1-11.9-5.5-17-2.2-4.4-5.6-9.9-7.8-12.2-2.1-2.3-5.5-5.3-7.6-6.7-2-1.4-4.8-2.9-6.1-3.2q-2.4-0.7-2 0.5zm157.3 11.3c-2.4 3.5-7.8 9.7-11.9 13.9-4.1 4.2-10.2 9.3-13.5 11.4-3.3 2.1-10.4 6-15.8 8.7-5.3 2.6-15.9 7.2-23.5 10.2-7.5 2.9-16.5 6.7-20 8.5-3.4 1.7-7.8 3.1-9.7 3.1-3.2 0-3.5 0.2-3.5 3 0 2.7 0.3 3 3 3 1.6 0 6.9-1.8 11.7-4.1 4.9-2.2 15.5-6.8 23.8-10.1 8.2-3.3 17.1-7.1 19.7-8.4 2.7-1.3 5.5-2.4 6.3-2.4 0.8 0 1.5 0.6 1.5 1.3 0 0.6-0.9 2.6-2 4.2-1.1 1.7-2 3.3-2 3.8 0 0.4 0.5 0.7 1 0.7 0.5 0 1.9-1.5 3-3.2 1.1-1.8 2-4.9 2-6.8 0-3.2 0.7-4 8.6-10 4.8-3.6 11.4-9.5 14.8-13.1 3.3-3.6 7.8-9 10-12 2.1-3 3.5-6 3.2-6.6-0.3-0.7-1-1.3-1.4-1.3-0.4 0-2.8 2.8-5.3 6.2zm-290.7 12.8c-3.7 0.9-9.9 3.1-13.7 5-4.6 2.2-9.1 5.6-13.3 9.7-4.2 4.3-7.3 8.6-9.6 13.6-1.9 3.9-3.8 9-4.3 11.1-0.7 3.5-0.6 3.8 1.1 3.5 1.2-0.3 2.4-2.2 3.5-5.9 1-3 2.8-7.5 4.1-10 1.3-2.5 4.6-6.8 7.4-9.5 2.8-2.8 7.6-6.2 10.6-7.7 3-1.4 8-3.3 11-4.1 3-0.9 9.7-2 14.8-2.4 7.8-0.7 9.2-1.1 9.2-2.5 0-1.2-1-2-3.3-2.3-1.7-0.3-4.9-0.4-7-0.3-2.1 0.2-6.9 1-10.5 1.8zm46.9 10.3c0 1.4 2 3.9 5.5 7 4.8 4.2 5.5 4.5 6.6 3.1 1.1-1.4 0.5-2.4-4.5-7-3.1-3-6.2-5.4-6.7-5.4-0.6 0-1 1-0.9 2.3zm-275.8 4.1c-0.5 1.1-0.1 2.3 1.4 3.9 1.3 1.2 2.3 3 2.3 4 0 0.9 0.3 1.7 0.7 1.7 0.5 0 1.8-0.7 3-1.5 1.3-0.8 2.3-2.3 2.2-3.3 0-1.1-1.6-2.6-3.7-3.7-2-1.1-4-2.1-4.4-2.3-0.3-0.2-1 0.4-1.5 1.2zm43.7 20.6c0 2.7 0.6 3.3 6.2 6 3.5 1.6 6.7 2.6 7.1 2.2 0.4-0.4 0.7-1.8 0.5-3.1-0.2-1.3-1-2.7-1.8-3.2-0.8-0.4-3.6-1.7-6.3-2.8-2.6-1.2-4.9-2.1-5.2-2.1-0.3 0-0.5 1.4-0.5 3zm152.5 16.7c-0.5 0.3-0.8 2.5-0.7 4.7 0.1 2.6 1.2 5.6 3 8.2 1.5 2.2 4.5 6.2 6.7 8.8 2.2 2.6 4.7 4.7 5.5 4.7 0.8 0 2.3-0.8 3.3-1.8 1.4-1.3 1.7-2.6 1.2-4.8-0.4-1.6-2.8-6.1-5.3-9.9-2.6-3.8-5.8-7.8-7.2-8.8-1.4-1-3.2-1.8-4.1-1.8-0.9 0-1.9 0.3-2.4 0.7zm83 4.5c-1.5 1.8-3.6 5-4.6 7.1-1.1 2-1.9 4.9-1.9 6.5 0 1.5 0.5 3.3 1.2 4 0.7 0.7 3.3 1.2 5.8 1.2 2.9 0.1 5.1 0.7 6.2 1.8 1.3 1.3 2.1 1.4 3 0.6 0.7-0.7 2.5-3.6 4.1-6.5 1.5-3 2.8-6.7 3-8.3 0.2-2.3-0.3-3.1-2.1-3.5-1.2-0.3-2.8-1.7-3.5-3.1-0.9-1.9-2.2-2.6-4.8-2.8-3.1-0.3-4.1 0.2-6.4 3zm142.1 9.1c-0.3 3.4-0.6 7.4-0.6 9 0 1.5 0.5 2.7 1.2 2.7 0.7 0 2.4-0.9 3.8-2 2.2-1.7 2.3-2.2 1.2-4-0.7-1.1-1.1-4.2-0.9-7 0.3-4.6 0.2-5-1.8-5-2 0-2.3 0.7-2.9 6.3zm-12.2 27.8c-1 1.2-3.1 2.8-4.7 3.8-1.5 0.9-2.7 2.1-2.7 2.6-0.1 0.6 0.8 1.8 2 2.8 1.9 1.7 2.1 1.6 6.1-3.5 2.2-2.9 3.7-5.5 3.2-5.8-0.4-0.3-1.1-0.9-1.4-1.3-0.3-0.4-1.4 0.2-2.5 1.4zm-321.4 2.8c-0.6 1.1-1.2 2.8-1.1 3.8 0 1 1.2 2.9 2.6 4.3l2.5 2.5c3.3-3.2 4-5 3.8-6.3-0.2-1.3-1.7-3.2-3.4-4.3-3.1-2-3.1-2-4.4 0zm152.5 16.1c-1.1 0.5-3.5 0.9-5.3 0.9-2.3 0.1-3.2 0.6-3.2 1.9-0.1 0.9 0.5 2.3 1.2 3 0.9 0.9 3.1 1.2 7.3 0.8 3.3-0.3 9.8-0.1 14.5 0.4 4.7 0.5 9.5 0.7 10.7 0.5 1.3-0.3 2.3-1.2 2.3-2 0-0.8 0.6-1.7 1.2-1.9 0.9-0.2 0.9-0.5-0.2-0.9-0.8-0.3-6.2-0.9-12-1.5-5.8-0.6-11.4-1.3-12.5-1.6-1.1-0.3-2.9-0.1-4 0.4zm-180.5 89q0 2 2 2c1.1 0 2.2-0.4 2.5-1 0.3-0.5-0.4-1.4-1.5-2-1.1-0.5-2.2-1-2.5-1-0.3 0-0.5 0.9-0.5 2zm344.4 6.7c-0.4 1-0.3 2.5 0.3 3.3 0.6 0.8 2.3 1.6 3.9 1.8 1.6 0.2 3.3-0.2 3.9-0.8 0.7-0.7 0.4-1.6-1-2.9-1.1-1-3-2.2-4.2-2.6-1.6-0.5-2.4-0.1-2.9 1.2zm-182.6 20.6c-1.4 1.1-1.3 1.8 1.1 7.7 2.2 5.6 3 6.5 5.4 6.8 1.5 0.1 2.6-0.1 2.4-0.6-0.1-0.4-1.3-4-2.7-8-1.4-3.9-3-7.2-3.5-7.2-0.6 0-1.8 0.6-2.7 1.3zm43 2.7c-0.7 1.1-1.5 1.8-1.8 1.5-0.3-0.2-0.8 0.4-1.3 1.5-0.5 1.4-0.2 2.2 0.8 2.8 1 0.4 2.1 0.1 3-0.8 0.7-0.8 1.6-2.7 1.8-4.2 0.3-1.6 0.1-2.8-0.3-2.8-0.5 0-1.5 0.9-2.2 2zm99.2 30q0 2 2 2 2 0 2-2 0-2-2-2-2 0-2 2zm-240.8 2.8c-0.9 0.5-1 1.9-0.5 5 0.6 3.1 1.3 4.2 2.5 4.2 1 0 2-0.4 2.3-1 0.3-0.5 0.3-2.8 0.1-5-0.2-2.5-0.9-4-1.7-4-0.8 0-2 0.4-2.7 0.8zm333.9 9.5c-0.9 3.7-1 5.5-0.2 6.2 0.6 0.6 1.4 0.6 1.8 0.2 0.5-0.5 0.9-3.3 1.1-6.3 0.1-3-0.1-5.4-0.6-5.4-0.5 0-1.4 2.4-2.1 5.3zm-30.1-1.3c0 0.6 0.5 1.2 1 1.5 0.5 0.3 0.8 1.5 0.5 2.8-0.2 1.2 0 2.9 0.5 3.7 0.8 1.3 1.2 1.3 3.5 0 2.1-1.2 2.6-2.1 2.3-4.5-0.2-1.7-0.8-2.9-1.6-2.7-0.6 0.1-1.2-0.2-1.2-0.8 0-0.5-1.1-1-2.5-1-1.4 0-2.5 0.5-2.5 1zm-67.9 7.8c-1.2 3.7-2.1 7.7-2.1 9 0 1.2 0.5 2.2 1 2.2 0.5 0 2.3-2.8 3.9-6.2 1.5-3.5 3.1-7.5 3.5-9 0.5-2.4 0.3-2.8-1.8-2.8-2 0-2.6 0.9-4.5 6.8zm92.2 8.6c-1 1.9-3.3 6-5.1 9-1.7 3.1-4 6-5 6.5-0.9 0.5-1.8 2.3-2 4-0.1 1.7 0.2 3 0.7 2.9 0.5-0.2 2.9-2.8 5.5-5.8 2.5-3 6-8 7.6-11 1.6-3 2.9-6.3 3-7.2 0-1-0.7-1.8-1.5-1.8-0.8 0-2.3 1.6-3.2 3.4zm-29.6 9.7c-0.4 0.8-1.9 1.3-3.2 1.2-2.2-0.3-2.5 0.1-2.3 2.7 0.2 2.1 0.8 3 2 3 1.1 0 2.4-1.4 3.3-3.7 0.8-2.1 1.4-4 1.2-4.2-0.2-0.2-0.6 0.2-1 1zm-300.2 22c-4.4 1.6-9.7 2.9-11.8 2.9-2 0-3.9 0.5-4.2 1-0.3 0.6-0.3 1.7 0 2.5 0.3 0.9 1.7 1.5 3.5 1.5 1.6 0 5.4-0.5 8.2-1.1 2.9-0.6 7.5-2.1 10.1-3.3 3.7-1.6 4.8-2.6 4.5-4-0.2-1.1-0.8-2-1.3-2.2-0.6-0.1-4.6 1.1-9 2.7zm246.5 2.9c0 2.8 0.3 3.1 5.2 4.1 2.9 0.6 9.3 1.3 14.3 1.6 5.1 0.3 12.4 0.1 17-0.7 4.4-0.6 10.7-2.2 13.9-3.3 3.3-1.2 6.1-2.8 6.3-3.4 0.2-0.9-0.8-1.2-3.5-0.9-2 0.2-6.4 1.2-9.7 2.1-4.8 1.4-8.8 1.6-20 1.2-9.3-0.3-15.5-1-18.5-2.1-2.5-0.9-4.6-1.6-4.8-1.6-0.1 0-0.2 1.4-0.2 3z"/>
		<path id="Path 13" class="s13" d="m220.5 720.8c-1.1 1.1-1.8 3.1-1.7 5 0.1 1.8-0.2 4.1-0.8 5.2-0.6 1.1-1.7 5.5-2.5 9.8-0.8 4.2-1.5 7.8-1.5 8 0 0.1 0.6 0 1.3-0.3 0.8-0.4 1.5 0.7 1.9 3 0.7 3.1 1.1 3.5 4 3.5 1.8 0.1 4.5-0.8 6-2 1.6-1.1 3.7-2 4.8-2 1.5 0 2-0.7 2-2.7 0-1.6 0.4-3.3 0.9-3.8 0.5-0.6 0.5-3 0-6-0.5-2.7-1.2-6.8-1.6-9-0.4-2.6-1.8-5.1-4-7.2-1.8-1.8-4.1-3.3-5.2-3.3-1 0-2.6 0.8-3.6 1.8zm207.5 12.7c0 1.9 0.5 2.5 2.3 2.5 1.2 0 3-0.6 3.9-1.3 1-0.7 1.7-1.8 1.8-2.4 0-0.8-1.4-1.3-4-1.3-3.6 0-4 0.3-4 2.5zm-18 21c0 2.4 0.3 2.5 6 2.5 5 0 6-0.3 6-1.7 0-1.3-1.1-2-3.7-2.5-2.1-0.4-4.8-0.8-6-0.8-1.8 0-2.3 0.6-2.3 2.5zm53.1 6.8c-0.6 1.7-1 3.2-0.8 3.3 0.1 0.1 3.6 2.1 7.7 4.5 4.1 2.4 10.6 7.3 14.4 10.9 3.8 3.6 8.6 9.1 10.7 12.3 2.2 3.1 3.9 6 3.9 6.5-0.1 0.4 0.6 1.4 1.5 2.2 1.4 1.3 2.1 1.2 5.8-0.9 2.5-1.4 6.5-2.6 9.7-2.9 4-0.3 7.1 0.1 11.5 1.6 3.3 1.2 6.1 1.9 6.3 1.7 0.1-0.3-0.2-1.3-0.7-2.2-0.5-1-2.5-3.3-4.5-5q-3.6-3.3-5.3-2.7c-1.2 0.5-4.1-1.1-9-5-4.8-3.7-7.1-6.1-6.8-7.1 0.3-1-1.3-2.6-5.3-4.9-3.1-1.9-8.5-4.8-11.9-6.5-3.5-1.7-10.4-4.4-15.3-6.1-4.9-1.6-9.4-3-9.9-3-0.5 0-1.4 1.5-2 3.3zm-229.8 56.5c-2.6 2.2-3.5 4.2-5.2 11.2-1.1 4.7-2.3 12.3-2.8 16.9l-0.8 8.4c-8.9 6.7-12.4 8.7-13.5 8.7-1.1 0-2 0.7-2 1.5 0 0.8 1.5 5.4 3.3 10.3 1.9 4.8 5.4 11.8 7.8 15.5 4 6.2 4.7 6.9 7.3 6.5 2.9-0.3 3-0.6 4.7-8.8 0.9-4.7 2.1-9.8 2.7-11.5 0.5-1.6 1.9-4.9 3.1-7.2 1.1-2.4 2.1-4.9 2.1-5.5 0-0.7 1.4-4 3.1-7.3l3.1-6c-1.1-25.6-1.6-33.6-1.8-34.2-0.2-0.8-2-1.3-4.2-1.3-2.6 0-4.7 0.8-6.9 2.8zm341.4 18c-0.9 4.8-1.7 9.6-1.7 10.7 0 1.1 0.8 3.8 1.9 6 1 2.2 3.7 9.2 5.9 15.5 2.3 6.3 4.9 14.4 5.8 18 0.9 3.6 2.2 7.1 2.8 7.8 0.6 0.8 2.4 1.2 4 1 2.3-0.2 3.4-1.4 6-6.3 1.8-3.3 4.4-8.9 5.8-12.5 1.4-3.6 3.7-10.8 5.1-16 1.4-5.2 2.9-12 3.3-15 0.7-5.2 0.7-5.5-1.2-4.6-1 0.5-3.9 1.2-6.4 1.4-3.5 0.4-5.9-0.2-11-2.5-3.6-1.6-9.1-5.1-12.2-7.6-3.2-2.6-6-4.7-6.1-4.7-0.2 0-1.1 3.9-2 8.8zm-100.6 31c-1.1 4.2-2.1 8.7-2.1 10 0 1.5 0.6 2.2 2 2.2 1.7 0 2.1-1 3.1-7.2 0.5-4 1.1-8.5 1.3-10 0.1-1.7-0.2-2.8-1-2.8-0.7 0-2.1 3.4-3.3 7.8zm169.9 27.6c-2.5 1.3-10.3 4.7-17.5 7.6-7.1 2.8-18 7.5-24.2 10.3l-11.1 5.2c-0.7 15.5-0.9 20.1-0.8 20.3 0 0.1 5.1-1.8 11.1-4.4 6-2.5 11.2-4.8 11.5-5.1 0.3-0.3-0.1-0.7-0.7-0.9-0.7-0.2-1.3-1.1-1.3-1.9 0-0.8 2.1-3.1 4.8-5 2.6-1.9 5.3-3.4 6-3.5 0.6 0 1.2-0.3 1.2-0.7-0.1-0.5 2.3-2.4 5.2-4.4 2.9-2 7.3-5.3 9.8-7.3 3.3-2.8 5.1-3.6 6.8-3.2 1.7 0.5 2.7-0.2 4.7-3.1 1.4-2.1 2.5-4.4 2.5-5 0-0.7-0.8-1.3-1.7-1.3-1 0.1-3.8 1.2-6.3 2.4zm-468 0.9c0.1 0.6 1.1 2.1 2.3 3.2 1.3 1.1 4.3 3.6 6.8 5.6 2.4 1.9 8.5 6.1 13.4 9.3 6.3 4 9.3 5.5 10 4.7 0.5-0.6 3.4-1.1 6.5-1.1 3.2 0 6.1-0.5 6.8-1.2 0.7-0.7 1.2-1.6 1.2-2 0-0.5-3.7-2.6-8.2-4.7-4.6-2.1-14.8-6.4-22.8-9.5-8-3.1-14.8-5.6-15.2-5.6-0.5 0-0.8 0.6-0.8 1.3zm286.7 10c0.4 3.4 0.8 8.7 0.7 11.7 0 3-1.1 8.7-2.3 12.5-1.3 3.9-3.3 8.6-4.4 10.5-1.1 1.9-4.1 6.2-6.6 9.5-2.9 3.7-7.2 7.6-11.6 10.5-3.8 2.5-10.1 5.8-14 7.4-5.9 2.5-8.4 2.9-16 3-4.9 0-11.7-0.4-15-0.9-4.3-0.6-6.2-0.5-6.7 0.3-0.5 0.8 1 2.3 4.2 4.2 3.6 2.2 5 3.6 5 5.3 0 2.1 0.2 2.2 4.7 1.4 2.7-0.5 5.7-0.9 6.8-0.8 1.1 0 4.4 0.3 7.3 0.8 5 0.8 5.2 0.7 5.2-1.4 0-1.6 0.9-2.7 2.8-3.4 1.5-0.6 6.1-2.1 10.2-3.4 6.4-1.9 7.6-2.6 7.8-4.6 0.2-1.3 0.9-3 1.5-3.7 0.7-0.6 3.5-1.5 6.2-1.8 2.8-0.3 5.9-1.2 7-1.8 1.1-0.7 4-1.6 6.5-1.9 2.5-0.4 5.2-1.3 6-2.2 0.8-0.8 2.9-1.5 4.5-1.5 2.1-0.1 4.4 1.1 7.8 4 2.6 2.2 5.5 4 6.5 4 0.9-0.1 2.5 0.7 3.4 1.7 1 1 1.8 3 1.8 4.6 0 1.5 0.5 2.9 1 3.2 0.6 0.3 1 2.3 1 4.5v4c5.8-0.7 14.3-1.6 22.5-2.5 8.3-0.8 17.3-2 20-2.6 2.8-0.6 5.8-1.3 6.8-1.5q1.7-0.4 1.1-2.1c-0.5-1.4 1-2.6 7.3-5.8 4.9-2.5 10.4-6.4 14.6-10.5 3.8-3.6 7.9-8.3 9.2-10.5 1.3-2.2 3-6.5 3.9-9.5 0.8-3 1.7-9.8 1.8-15.1 0.2-7.4 0-10-1.2-11.3-0.8-1-2.1-1.6-2.9-1.4-0.8 0.2-2.2 3.5-3.3 7.8-1.1 4.1-3.8 11.1-6.1 15.4-2.9 5.5-6.2 9.8-10.7 14-3.7 3.6-9.3 7.5-13 9.3-3.6 1.7-10.3 3.9-15 4.8-6 1.3-10.8 1.6-16.5 1.2-4.4-0.3-11.1-1.6-15-2.7-3.8-1.2-9.7-3.6-12.9-5.3-3.2-1.8-7.1-4.5-8.6-6.2-2-2.3-2.8-4.6-3.4-9.5-0.5-3.6-0.5-12.3-0.2-19.5 0.4-7.1 0.9-14.2 1.2-15.7 0.4-2.8 0.4-2.8-5.7-2.8h-6zm-140.1 106c-0.8 1.2-1.3 2.7-1 3.3 0.2 0.5-0.2 3-1.1 5.5-0.9 2.4-1.5 4.5-1.5 4.5 0 0 4.2 0 9.2 0 8.3 0 10 0.3 15.8 3.1 3.6 1.7 8.3 4.5 10.5 6.3 2.2 1.8 4.5 4.2 5.2 5.4 0.7 1.2 1.2 3.2 1.3 4.4 0 1.8 0.6 2.3 3 2.3h3c-0.8-8.2-1.7-13.6-2.5-17.3-1.2-5.2-1.9-6.8-3.3-6.8-0.9 0-3.5-1.9-5.7-4.3-4-4.4-4.1-4.4-16.3-6.5-6.7-1.2-12.9-2.1-13.7-2.1-0.8 0-2.1 1-2.9 2.2zm155.9 1c-6.6 1-13 2.1-14.3 2.3-1.3 0.3-3.3 2.3-5 4.9-1.5 2.5-3.5 4.5-4.5 4.5-1.2 0-2.1 1.6-3.2 5.3-0.8 2.9-1.9 8.4-2.5 12.3-0.5 3.8-1 8.4-1 10.2 0 2.9 0.3 3.3 3.1 3.5 2.4 0.2 4-0.5 6.5-3 1.9-1.8 3.4-3.8 3.4-4.5-0.1-0.7 0.7-2 1.7-3 1-1 3.3-1.7 5.3-1.7 1.9 0 4.2-0.7 5-1.5 0.8-0.9 2.4-1.6 3.5-1.6 1.1 0 3.3 0.7 5 1.5 1.6 0.8 5.3 4.1 8.1 7.3 2.8 3.1 5.6 7.3 6.2 9.3 0.6 1.9 2.3 4.6 3.7 6 1.5 1.5 2.5 3.5 2.5 5.2 0 1.5 0.4 3 1 3.3 0.5 0.2 1 4.3 1 9 0 4.6-0.5 8.7-1 9-0.6 0.2-1 5-1 11 0 6-0.4 10.7-1 11-0.6 0.2-1 1.8-1 3.5 0 1.6-0.5 3.2-1 3.5-0.6 0.2-1 1.9-1 3.7 0 2.3-0.8 4.1-2.7 5.9-1.6 1.5-3.9 2.8-5.2 3-1.9 0.3-2.8 1.4-4.2 5.9-1 3-1.9 5.6-1.9 5.7 0 0.1 0.9 0.5 2 0.8 1.5 0.3 2 1.3 2 3.7 0 1.8-0.6 4.9-1.3 6.9-0.7 2-2 4.4-2.9 5.5-1 1-1.8 2.5-1.8 3.4 0 0.8-1.3 3-3 5-2.6 3.1-2.9 4.1-3 10.7v7.3c7.7 0 10.2-0.5 10.5-1 0.3-0.6 1.6-1 3-1 1.4 0 3.5-0.6 4.7-1.2 1.3-0.7 3.2-1.9 4.2-2.8 1.1-0.8 4.9-4.4 8.5-7.8 3.6-3.4 7.2-6.2 7.8-6.2 0.9 0 1.3 1.6 1.3 5.2 0 4.8 0.3 5.6 3.7 8.9 2.7 2.6 6.4 4.6 12.5 6.8 5.5 1.9 12 3.3 17.3 3.8l8.5 0.8c0-7.8-0.5-9-3-11-1.7-1.4-3.6-2.5-4.3-2.5-0.6 0-3-1.7-5.2-3.8-2.2-2-4.8-5.4-5.8-7.5-1.1-2.5-1.7-6.2-1.7-11.2v-7.5c-5-0.6-7.2-1-8-1.4-1.1-0.5-2.2 0.9-4.3 5.3-1.5 3.3-3.2 6.1-3.7 6.1-0.6 0-1-1.2-1-2.5 0-1.4 0.9-5.1 2-8.3 1.2-3.2 2.7-8.8 3.5-12.5 0.8-3.7 1.5-10.7 1.5-15.5 0-4.8-0.4-11.1-0.8-14-0.6-4.6-1-5.2-3.2-5.5-2.3-0.2-2.5-0.6-2.3-5 0.2-3.3-0.1-4.7-1-4.7-0.6 0-2.2-3.1-3.4-6.8-1.3-3.7-2.5-8.1-2.9-9.7-0.4-1.7-2-7.3-3.6-12.5-1.7-5.3-5-15.8-7.5-23.5-2.5-7.8-4.9-14.5-5.4-15-0.5-0.6-0.9-2.1-0.9-3.3 0-1.2 0.6-2.4 1.2-2.6 1-0.2 0.9-1.2-0.5-4-1.4-3-2.2-3.6-4.5-3.5-1.5 0.1-8.1 1-14.7 2.1zm100.5 84.3c0 1.9-0.6 4.3-1.3 5.4-1 1.7-0.9 2.2 0.8 3.5 1.1 0.9 4.1 1.5 7 1.5 3.5 0 5.5 0.5 6.7 1.8 1 0.9 1.8 3.1 1.8 4.8 0 1.7-0.8 3.8-2 5-1.2 1.1-2 3.2-2 5 0 1.6 0.9 3.9 1.9 5 1.1 1 2.9 3.8 4.1 6 1.3 2.3 2.5 6.5 2.8 10 0.3 4.1 0 7.5-1.2 11-1 2.7-3.4 7.2-5.4 9.9-2 2.7-7 7.3-11 10.2-7.1 5.3-7.2 5.4-7 9.6 0.3 3.7 0.6 4.3 2.8 4.5 1.4 0.2 5.8-1.4 10-3.5 5.9-3 7.9-3.6 9.2-2.8 1.3 0.8 2.1 0.7 3-0.2 1-0.9 1-1.5 0.1-2.5-0.9-1 0.1-2.6 4.8-7.7 5.6-6 5.9-6.6 4-7.3-1.2-0.4-2.1-1.2-2.1-1.7 0-0.6 0.6-2.1 1.4-3.3 0.8-1.2 2.5-5.4 3.7-9.2 1.2-3.9 2.8-9.5 3.5-12.5 1.2-5.1 1.1-5.7-0.6-7-1.1-0.9-2.4-2.8-3-4.3-0.5-1.5-1-4-1-5.5 0-1.5 0.9-4.7 2-7 1.1-2.3 1.8-4.9 1.5-5.7-0.4-1.1-1.5-1.4-3.8-1.1-2.9 0.4-3.6 0-6.7-4-3.1-4.1-3.9-4.5-7.5-4.5-2.2 0-5.4-0.6-7-1.5-1.7-0.8-3.6-1.5-4.3-1.5-0.6 0-1.4-0.9-1.7-1.9-0.3-1.1-1.2-2-2-2-1.1 0-1.5 1-1.5 3.5zm-198.6 32.2c0 7.1-0.5 13.9-1.3 17.3-0.8 3-2.2 7.1-3.2 9.2-1.1 2.1-3 4.4-4.4 5.3-2.1 1.2-2.5 2.2-2.5 6 0 4-0.4 4.7-4.2 7.7-2.2 1.8-4.5 4.3-5 5.5-0.4 1.2-2.4 2.9-4.3 3.8-2.7 1.1-3.5 2-3.5 4 0 1.3-0.2 2.5-0.5 2.5-0.3 0-2.4-1.4-4.8-3.1-2.3-1.6-5.4-3-7-3-1.5 0-2.7 0.6-2.7 1.3 0 0.7 1.6 3.2 3.5 5.5 1.9 2.3 4.3 4.2 5.2 4.2 1 0 2.5 0.7 3.3 1.6 0.8 0.8 2.8 1.5 4.5 1.5 1.6-0.1 3.7-0.8 4.5-1.6 0.8-0.8 4.2-2.2 7.5-3.1 3.3-0.9 8.7-1.8 12-2.1 5.5-0.5 6.4-0.9 10.6-5.1 2.5-2.6 4.9-5.8 5.3-7.1 0.5-1.9 0.2-3-1.1-4.3-1.7-1.7-1.7-1.9 0.9-4.5 1.5-1.5 3.5-5 4.3-7.7 0.8-2.8 1.5-8.2 1.5-12 0-3.9-0.7-10.2-1.5-14-0.8-3.9-2.2-9.4-3-12.3-1.4-5-1.7-5.2-4.8-5.2-1.8 0-3.6-0.5-4-1-0.4-0.6-1.8-1-3.1-1-2.3 0-2.3 0-2.2 11.7zm-101.4 32.5c0 1.2-0.9 4-1.9 6.3-1 2.2-3.8 5.7-6.2 8-2.7 2.4-6.4 4.4-9.2 5.2-2.6 0.7-6.6 1.2-9 1.2-2.3 0-6-0.4-8.2-1-2.2-0.6-5.7-2.5-7.8-4.3l-3.9-3.1c-6.1 6.2-7.8 8.3-7.8 8.7 0 0.4 3.3 2.3 7.2 4.3 4 1.9 8.1 3.5 9 3.5 1 0 1.8 0.4 1.8 1 0 0.5-1 1.2-2.3 1.5-1.8 0.5-1.9 0.8-0.7 1.5 0.8 0.5 3.9 0.9 6.7 0.9 3.6 0 5.3-0.4 5.3-1.2 0-0.9 3.5-1.4 12.2-1.9 9.5-0.5 14.3-1.3 20.8-3.5 6.3-2.1 9.6-3.8 12.8-6.8 3.1-2.9 4.3-4.8 4.2-6.8 0-1.5-1.9-5.7-4.3-9.3l-4.2-6.5c-14.1 0-14.5 0.2-14.5 2.3zm43.2 18.4c-1.2 0.2-2.2 1-2.2 1.9 0 0.8-0.6 1.4-1.3 1.4-0.6 0-2.6-0.5-4.4-1.2-2.5-1-3.7-1-5.7 0-1.5 0.7-2.6 2.1-2.6 3.3 0 1 0.8 3.1 1.7 4.5 1.3 1.8 3 2.7 6.3 3.1 2.7 0.3 4.9 0.1 5.4-0.6 0.6-0.6 1.7-1 2.5-1 0.9 0 2.3-1.2 3.1-2.6 0.8-1.5 2.7-3.5 4.2-4.6 2.3-1.5 2.6-2.1 1.5-3.4-0.6-0.8-2.3-1.5-3.7-1.4-1.4 0.1-3.5 0.4-4.8 0.6z"/>
		<path id="Path 14" class="s14" d="m404.5 723.7c-0.5 0.3-0.8 2.1-0.7 4 0.1 2.1 1.3 4.5 3.2 6.5 2.3 2.7 2.9 4.2 3 8 0 4.1 0.3 4.8 2 4.8 1.1 0 2 0.7 2 1.5 0 0.8-0.6 1.8-1.3 2.2-0.7 0.5-0.1 1 1.8 1.4 1.6 0.4 4.7 0.7 6.8 0.8 2.3 0.1 3.7-0.4 3.7-1.2 0-0.6-1.1-2.3-2.5-3.7-1.3-1.4-2.7-3.6-2.9-5-0.3-1.4-2.4-5.7-4.7-9.5-2.3-3.9-4.9-7.8-5.8-8.8-0.9-1-2.1-1.8-2.7-1.7-0.6 0-1.4 0.3-1.9 0.7zm-189 43.1c-1.5 1.5-1.8 3.3-1.7 8.8 0.1 4 0.7 7.4 1.4 8.2 0.7 0.7 2.8 1.2 4.5 1.2h3.3c-0.8-7.4-1.5-11.9-2-14.8-0.6-3.2-1.5-5.2-2.4-5.2-0.7 0-2.1 0.8-3.1 1.8zm90.5 35.7c0 0.9 1.3 1.7 3.3 2.1 1.7 0.4 4.4 1.3 6 2 1.5 0.8 2.9 1.2 3.2 0.9 0.3-0.3-1.2-1.6-3.3-2.9-2-1.3-4.9-2.7-6.4-3-2.1-0.5-2.8-0.3-2.8 0.9zm301 22c-0.9 1-4.7 2-10 2.6-6.5 0.8-9 1.5-10.7 3.2-1.8 1.8-2 2.5-1 3.5 0.6 0.8 4.3 2.9 8.2 4.8 4.7 2.3 8.4 3.4 11.3 3.4 2.3 0 5.3-0.6 6.6-1.3 1.9-0.9 2.6-2.3 3.1-5.7 0.3-2.5 0.5-6.2 0.5-8.3 0-3.5-0.2-3.7-3.3-3.7-1.8 0-3.9 0.7-4.7 1.5zm-395 6c-1.4 0.8-3.8 1.4-5.5 1.5h-3c0.9 12 1.5 16.1 1.8 16.7 0.4 0.7 2.6 1.3 4.9 1.3 3.2 0 4.9-0.6 6.5-2.2 1.3-1.3 3.2-5.1 4.3-8.6 1.1-3.4 2-7.1 2-8.2 0-1.7-0.7-2-4.3-2-2.3 0.1-5.3 0.7-6.7 1.5zm181.5 29.2c-1.6 0.4-1.9 1.2-1.7 4.4 0.2 3.5 0.4 3.8 2.4 3.4 1.3-0.3 3.1-0.5 4-0.5 1.4 0 1.8-0.9 1.8-4 0-3.5-0.3-4-2.3-3.9-1.2 0.1-3.1 0.3-4.2 0.6zm13.1 0.8c-0.3 0.8-0.6 2.3-0.6 3.2 0 1.3 1.1 2 3.7 2.5 2.1 0.4 5.3 0.8 7 0.8 3.2 0 3.3-0.2 3.3-4v-4c-11.2 0-13 0.4-13.4 1.5zm49.3 8c-0.8 0.8-2.8 1.5-4.5 1.5-1.7 0-3.8 0.8-4.7 1.7-1.5 1.7-1.2 2.1 4.4 6.5 5.3 4.3 6.1 4.7 7.7 3.3 0.9-0.8 2.1-1.4 2.7-1.4 0.6 0 1.8-0.8 2.7-1.8 1-1 1.8-3.3 1.8-5.1 0-2.2-0.7-3.7-2.2-4.7-1.3-0.8-3.2-1.5-4.3-1.5-1.1 0-2.7 0.7-3.6 1.5zm-84 20.8l-3.6 3.2 5.7 6c0-5.8 0.6-8.6 1.4-10 0.8-1.4 1.2-2.5 0.8-2.5-0.4 0-2.3 1.5-4.3 3.3zm106.2 21.7c-0.1 1.6 0.5 3.2 1.1 3.4 0.7 0.3 1.7 0.2 2.1-0.2 0.4-0.4 0.8-1.5 0.8-2.4 0-1-0.9-2.2-2-2.8-1.8-1-2-0.8-2 2zm-235.9 23.2c-0.8 0.9-0.7 2 0.2 3.8 0.7 1.4 2.4 3.8 3.9 5.5 2.4 2.7 2.8 2.8 4.2 1.5 0.9-0.8 1.6-2.2 1.5-3 0-0.8 1.1-2.6 2.4-4 1.4-1.4 2.3-3.1 2-3.8-0.2-0.8-2.6-1.2-6.8-1.2-3.9 0-6.8 0.5-7.4 1.2zm106.3 15.1c-7.5 6.9-9 8.8-8.7 11 0.1 1.5 0.6 2.9 1.2 3.2 0.6 0.3 1 2.5 1 5 0 4-0.3 4.6-2.7 5.5-2 0.8-3.5 0.8-5.3 0-1.4-0.6-5-1-8-0.8-5.4 0.3-5.5 0.4-5.5 3.3v3c19.4 1.7 30.5 2.5 37.3 2.9 11.2 0.5 12.2 0.5 12.2-1.2-0.1-0.9 0.5-2.2 1.2-2.8 0.7-0.6 3.8-1.4 6.8-1.8 3.5-0.4 6.2-1.3 7.5-2.6 2-2 2-2-9.4-12.7-6.2-6-12.7-13-14.5-15.6-1.7-2.6-3.3-4.7-3.6-4.7-0.3 0-4.5 3.8-9.5 8.3zm-69.9 13.9c-0.3 1.3-0.2 2.6 0.2 3 0.4 0.5 2.4 1.1 4.4 1.5 3 0.7 3.9 0.5 4.5-1 0.5-1.1 0.2-2.3-1.2-3.7-1.1-1.2-3.2-2.1-4.7-2-1.9 0-2.8 0.6-3.2 2.2zm131.1 98.8c-0.4 1.6 0 3.4 1 5 0.9 1.4 1.8 2 2 1.5 0.2-0.5-0.3-2.8-1-5-1.3-3.8-1.4-3.8-2-1.5zm-166.2 17.7c-0.3 0.1 0.2 1 1 1.8 1 1 2.5 1.3 4.8 0.9 2.5-0.5 3.9-0.1 6.5 2 1.7 1.4 3.6 2.4 4.2 2.1 0.6-0.3 1-0.8 1-1.3 0-0.4-1.9-1.9-4.3-3.4-3-2-5.4-2.7-8.4-2.6-2.4 0.1-4.5 0.3-4.8 0.5zm319.8-0.1c-1.1 0.3-1.1 0.7-0.1 1.7 0.8 0.8 2.4 1.1 4.1 0.8 1.5-0.3 2.6-1.1 2.4-1.6-0.2-0.5-1.4-1.1-2.8-1.2-1.3-0.1-3 0-3.6 0.3zm-332.9 18.3c-1.6 0.9-3.1 1.7-3.4 1.8-0.3 0.2 0.3 1.1 1.2 2 1 1 1.8 2.7 1.8 3.8 0 1.1-0.9 2.9-2.1 4-1.8 1.7-2 2.8-1.6 7 0.3 2.7 1.2 5.6 1.9 6.3 1 1.1 2.1 1.1 4.8 0.3 2.2-0.6 3.8-1.9 4.2-3.3 0.4-1.3 0.8-3.9 0.8-5.8 0-2.3 0.8-4.3 2.3-5.7 2.1-2.1 2.1-2.3 0.4-3.7-0.9-0.9-1.7-2.2-1.6-2.9 0-0.7-1.3-2.2-2.9-3.3-2.8-1.9-3.2-1.9-5.8-0.5zm-43.4 5.8c-0.7 0.2-1.3 1.3-1.2 2.4 0.2 1.6 0.5 1.7 2.2 0.6 1.1-0.6 2-1.8 2-2.5 0-0.6-0.3-1.2-0.8-1.1-0.4 0-1.4 0.3-2.2 0.6zm9.8 1c-0.2 1.1 0.9 2.6 2.9 4 2.7 1.9 3.6 2.1 4.8 1 0.9-0.6 1.6-1.5 1.5-2 0-0.4-1.8-1.6-4-2.7-2.2-1.1-4.2-2-4.4-2-0.3 0-0.6 0.8-0.8 1.7zm352.4 0c-3.1 0.3-3.2 0.4-2.6 4 0.3 2.1 1 4.3 1.4 4.8 0.5 0.5 1 2.6 1.2 4.5 0.3 3.2 0.6 3.5 3.5 3.7 2.1 0.2 3.7 1 4.3 2.3 0.5 1.1 1.3 2 1.7 2 0.5 0 1.7-0.5 2.7-1.2 1.9-1.3 1.9-1.4 0-4.6-1.6-2.7-1.7-3.6-0.6-5 0.6-0.9 1.5-2.4 1.9-3.2 0.4-0.9 0.1-1.7-0.8-1.9-0.8-0.3-2.5-1.7-3.9-3.3-1.4-1.5-3.2-2.7-4-2.6-0.8 0-3 0.3-4.8 0.5zm-290.5 2.8l-2.7 2.5c4.1 9.2 4.1 9.7 2.6 12.2-0.9 1.6-1.5 2.9-1.4 3.1 0.2 0.2 2.5 1.9 5.3 3.9 2.7 2 6.6 5.7 8.5 8.2 1.9 2.6 3.7 4.7 4 4.7 0.3 0 1.2-0.7 2-1.6 0.9-1 3.1-1.6 5.7-1.5 4.2 0 4.3-0.1 3.7-2.8-0.4-1.5-0.9-5.2-1.3-8.2-0.6-5.3-0.7-5.5-4.1-6-1.9-0.4-4.5-1.2-5.8-1.8-1.2-0.7-2.9-2.2-3.7-3.5-0.8-1.2-1.5-3.8-1.5-5.7 0-1.9-0.5-4.1-1.2-4.8-0.7-0.7-2.7-1.2-4.3-1.2-1.7 0-4.2 1.1-5.8 2.5zm-74.8 3.8c-1.4 0.6-2.2 1.7-2.1 2.9 0.1 1 0.8 1.8 1.4 1.8 0.7 0.1 1.9-0.6 2.5-1.5 0.7-0.8 1.1-2.1 0.9-2.9-0.2-1-0.9-1.1-2.7-0.3zm187.6 8.1c-3.8 4.4-3.8 4.6-3.7 12.3 0.1 7.7 0.1 7.9-3.8 12.5-2.8 3.4-4.7 4.8-6.5 4.8-1.4 0-2.7 0.5-3 1-0.3 0.5-1.3 1-2.3 1-0.9-0.1-2.6 0.9-3.7 2-1.1 1.1-3.1 2.1-4.5 2-1.5 0-3 0.4-3.5 1-0.6 0.5-4.8 1-9.5 1.2-8.2 0.3-8.5 0.4-8.8 2.8-0.3 2.1 0.3 2.8 4.5 4.7 2.6 1.2 6.8 2.6 9.3 3.2 2.5 0.6 7 1.1 10 1.1 3 0 8.1-0.7 11.2-1.5 3.2-0.8 8.3-3.1 11.3-5 3.1-2 6.2-4.9 7.2-6.8 0.9-1.7 2.2-5.5 2.9-8.2 0.8-2.8 1.6-8.2 1.9-12 0.3-3.8 0.2-9.9-0.2-13.5-0.7-5.5-1.1-6.5-2.9-6.8-1.4-0.2-3.3 1.1-5.9 4.2zm-75 14.6c-0.3 0.5 0.2 2.2 1 3.7 0.8 1.6 2.3 3.9 3.4 5.3 1.7 2.2 2.1 2.3 3.5 1 1-0.9 1.7-3 1.7-5-0.1-1.9-0.6-4.1-1.3-4.8-0.7-0.7-2.7-1.2-4.5-1.2-1.8 0-3.4 0.4-3.8 1zm122.7 5.2c-0.7 3.5-1.2 8-1.2 10 0 3.6 0.2 3.8 3 3.8 2.5 0 3.2 0.6 4.2 3.2 0.7 1.8 2.8 6.2 4.6 9.8 1.8 3.6 3.2 7.7 3.2 9.2 0 1.6 0.6 3.1 1.2 3.4 0.7 0.3 5.1 0.1 9.8-0.5 5-0.7 10.5-2.1 13.5-3.6 2.7-1.3 7.4-4.6 10.4-7.2 4.4-3.8 5.3-5.2 4.7-6.8-0.7-1.9-1.2-2-10.4-1.1-5.3 0.5-12.3 0.9-15.4 1-5.3 0.1-6-0.2-9.5-3.6-2.1-2.1-4.3-3.8-4.8-3.8-0.6 0.1-1.7-0.7-2.6-1.7-1-1.1-1.9-4.6-2.3-8.8-0.4-3.8-1.2-7.6-1.9-8.3-0.6-0.7-2.1-1.3-3.3-1.2-1.8 0-2.3 1-3.2 6.2zm-85.2 41.6c-0.8 0.4-2.8 1.6-4.4 2.7-1.5 1.1-3.7 3.3-4.7 5-1 1.7-1.8 3.7-1.9 4.5 0 0.8 0.8 0.1 1.8-1.7 1.1-1.9 3.6-4 6.3-5.2 2.4-1.2 5.5-2.1 6.9-2.1 1.4 0 3-0.9 3.7-2 1.2-1.9 1.1-2-2.5-1.9-2 0-4.4 0.3-5.2 0.7zm14.6 4.6c-0.3 0.9 0 2.3 0.6 3.1 0.7 0.9 1.6 1.6 2 1.5 0.5 0 0.9-0.8 1-1.9 0.2-1-0.4-2.4-1.3-3.1-1.3-1-1.7-0.9-2.3 0.4z"/>
		<path id="Path 15" class="s15" d="m197 587.6c-0.8 0.2-4 1.7-7 3.3-4.5 2.3-5.6 3.4-6.3 6.3-0.7 2.6-2.6 4.8-8.5 9.6-4.2 3.3-9.2 7.3-11.1 8.9l-3.3 2.8c3.8 6.2 5.3 9.1 5.7 10.5 0.7 2.1 0.6 2.3-0.6 1.4-0.8-0.7-4.2-1.3-7.6-1.5-5.1-0.3-6.3-0.1-6.3 1.1 0 0.8-1.1 2.6-2.5 4-1.5 1.4-4.8 5.9-7.4 10-2.7 4.1-6.8 11.3-9.1 16-2.4 4.7-6.6 15.2-9.4 23.5-4.2 12.1-5.5 15.1-7.1 15.3q-2 0.2-2.7 3.5c-0.6 2.5-0.4 3.5 1 4.4 1.6 1 1.6 1.9 0.4 10-0.7 4.8-1.7 14.2-2.3 20.8-0.5 6.6-1.2 12.3-1.5 12.7-0.2 0.5-1.1 0.8-1.9 0.8-1.2 0-1.5 1.4-1.5 6.2 0 3.5 0.7 11.9 1.5 18.8 0.8 6.9 2.7 17.2 4.1 23 1.4 5.8 3.3 12.1 4.1 14 0.9 1.9 1.8 4.4 2 5.5 0.2 1.1 2.8 7 5.8 13 2.9 6 7.6 14.4 10.3 18.5 2.8 4.1 5.7 8.1 6.6 8.7 0.9 0.7 2 1.1 2.6 0.8 0.6-0.3 1-2.5 1-5 0-4.3 0.3-4.7 4.7-7.6 2.7-1.8 6.4-4.1 8.3-5.2 1.9-1.2 10.2-5.7 18.5-10 8.2-4.4 16-8.5 17.2-9.1 1.8-0.9 2.3-2.2 2.8-7.6 0.3-3.6 1-10.8 1.6-16 0.6-5.2 1.5-11.3 1.9-13.5 0.5-2.2 2.1-10.1 3.5-17.5 1.4-7.4 3.2-16.4 4-20 0.8-3.6 2.5-12.4 3.9-19.5 1.4-7.2 3.5-21.5 4.7-32 1.8-16.1 2-22.5 1.6-41.5-0.3-13.4-1.1-25.8-2-30.5-0.8-4.4-2.3-10.9-3.2-14.5-0.9-3.6-2.8-9.2-4.1-12.5-1.4-3.3-3.5-7-4.7-8.3-1.2-1.2-3.1-2.2-4.2-2.1-1.1 0.1-2.7 0.3-3.5 0.5zm429.3 1.3c-1 1-2.6 3.8-3.7 6.2-1 2.4-2.3 5.4-3 6.7-0.9 1.8-0.8 2.4 0.8 3.5 1.8 1.2 1.8 1.6-0.7 14.2-1.4 7.1-3.1 16.4-3.7 20.5-0.6 4.1-1.4 14-1.8 22-0.5 8-1.1 15.1-1.5 15.7-0.4 0.7-1.4 1.3-2.2 1.3-1.2 0-1.4 1.2-0.9 6.7 0.3 3.8 1.2 8.3 2 10 0.8 1.8 1.4 4.5 1.4 6 0 1.6 1.5 8.4 3.4 15.3 1.9 6.9 4.9 16.5 6.6 21.5 1.8 5 4.5 11.7 6.2 15 1.6 3.3 3.6 6.7 4.4 7.5 1.3 1.3 1.8 1.3 5.1-0.5 2.1-1.1 8.3-6.5 13.9-12 5.6-5.5 12.9-13.6 16.3-18 3.5-4.4 7.7-8.9 9.6-10 1.8-1.1 4.2-2.9 5.4-4 1.6-1.5 2.2-3.1 2.1-6.8 0-2.6 1.3-8.6 2.9-13.5 1.5-4.8 3.8-13.2 5.1-18.7 1.2-5.5 2.9-11.1 3.7-12.5 1.5-2.4 1.3-3-3.3-12-2.7-5.2-7.9-14-11.5-19.5-3.7-5.5-9.1-12.7-12-16-3-3.3-8.3-8.7-11.9-12-3.6-3.3-8.8-7.6-11.5-9.6-2.8-2-7.3-4.8-10-6.3-2.8-1.4-6-2.6-7.2-2.6-1.2 0-3 0.8-4 1.9zm-185.3 396.1c0 1.5 0.8 2.1 3.7 2.5 2.1 0.3 4.2 0.1 4.8-0.5q0.9-1-0.5-1.1c-0.8-0.1-1.8-0.1-2.3 0-0.4 0-0.7-0.4-0.7-0.9 0-0.6 1-1.2 2.2-1.4 1.3-0.2 0.2-0.4-2.5-0.5-4.1-0.1-4.7 0.2-4.7 1.9zm-129.5 48.6c-1.8 4-1.8 4.7-0.5 5.4 1.2 0.7 1.9-0.1 3.1-3.8 0.9-2.6 1.5-5 1.3-5.5-0.2-0.4-0.8-0.7-1.2-0.7-0.4 0-1.7 2.1-2.7 4.6zm-76.9 155.2c0.2 0.7 1.1 1.2 1.9 1.2 0.8 0 1.8 0.7 2.3 1.5 0.4 0.9 1.4 1.3 2.5 1 0.9-0.3 1.7-0.8 1.7-1.3 0-0.4-1.2-1-2.7-1.4-1.6-0.4-3.5-1-4.4-1.4-1.1-0.5-1.5-0.3-1.3 0.4z"/>
		<path id="Path 16" class="s16" d="m400 863.5c0 1.4 0.4 2.7 1 3 0.6 0.3 1.9 0.3 3 0q2-0.5 2-3c0-2.1-0.5-2.5-3-2.5-2.5 0-3 0.4-3 2.5zm20 1.8c-0.1 1.9 1.2 2.6 9.5 5.5 5.2 1.7 9.7 3.2 10 3.2 0.3 0 0.5-0.9 0.5-2 0-1.3-1.2-2.6-3.3-3.6-1.7-1-5.7-2.5-8.7-3.6-3-1-6.1-1.8-6.8-1.8-0.6 0-1.2 1-1.2 2.3zm46 9.4c0.1 1-0.7 2.5-1.6 3.3-1 0.8-2.7 2-3.8 2.5-1.2 0.6-2.1 1.7-2.1 2.5 0 1.1 1.3 1.6 4.5 1.8 3.3 0.2 5-0.1 6.3-1.5 1-1 1.8-3.6 2-6 0.2-4.1 0.1-4.3-2.5-4.3-2 0-2.8 0.5-2.8 1.7zm7 36c0 3.2-0.2 6.8-0.5 8.1-0.4 1.8-0.1 2.2 2 2.2q2.5 0 3 2c0.3 1.1 0.9 2 1.5 2 0.6 0 1.3-2.1 1.6-4.8 0.4-3.6 0.2-4.9-1-5.7-0.8-0.5-1.5-2.2-1.6-3.8 0-1.5-0.2-3.4-0.5-4.2-0.3-0.8-1.4-1.5-2.5-1.5-1.8 0-2 0.7-2 5.8zm-277.2 3.9c-1.5 1.7-1.5 1.9 1 3.8 1.5 1.1 4.2 3 5.9 4.3 1.8 1.2 3.7 2 4.3 1.7 0.5-0.3 1.1-1.5 1.1-2.8 0.1-1.7-1-3-4.7-5.2-2.7-1.6-5.1-3.1-5.4-3.2-0.3-0.2-1.3 0.5-2.2 1.4zm134.7 49c-2.2 0.2-5 0.7-6.2 1.2-1.2 0.4-6.1 1.2-11 1.6-4.8 0.5-12.9 0.9-17.8 1h-9c-0.4 5.6 0 6.6 1.2 7 1 0.3 7.2 1.4 13.8 2.5 6.6 1.1 13.5 2 15.2 2 2.9 0 3.3-0.4 3.5-2.7 0.3-2.6 0.6-2.8 5.8-3.1 3-0.2 6.6 0.2 8 0.8 1.8 0.8 3.3 0.8 5.2 0 2.6-0.9 2.8-1.4 2.5-5.7-0.2-4.7-0.2-4.8-3.7-4.9-1.9-0.1-5.3 0.1-7.5 0.3zm55.3 10.2c-1.1 1.4-3.4 2.2-7.4 2.7-3.3 0.3-6.5 1.2-7.2 1.8-0.7 0.6-1.3 2-1.3 3.1 0.1 1.9 0.5 2 6.6 1.3 3.6-0.5 9.4-1.1 13-1.5 5.3-0.7 6.5-1.1 6.5-2.5 0-1-1.8-2.9-4-4.3-2.2-1.4-4.2-2.5-4.4-2.5-0.1 0-1 0.9-1.8 1.9zm-121.8 0.9c0 0.4 2.8 2.6 6.2 4.8 3.5 2.3 9.4 5.9 13.1 8 5.5 3.1 7 3.6 8 2.6 0.9-1 0.9-1.7-0.1-3.2-0.6-1.1-1-2.7-0.7-3.5 0.3-0.8 1.3-1.6 2.2-1.8 1-0.2-0.2-0.7-2.7-1.1-2.5-0.5-8.9-2.1-14.3-3.7-5.3-1.6-10.2-2.9-10.7-2.9-0.6 0-1 0.3-1 0.8zm170.9 13.8c0.1 0.8 1.1 1.4 2.3 1.4 1.3 0 3.4 0.7 4.7 1.5 1.7 1.1 2.4 2.5 2.3 4.3-0.1 1.5-1.2 3.7-2.4 4.9-1.6 1.5-5.1 2.7-11.3 3.9-6 1.1-14.4 1.7-25 1.8-8.8 0.1-20.4-0.4-25.8-0.9-9.4-1-9.7-0.9-9.7 1-0.1 1.1 0.9 2.9 2 4 1.5 1.5 2.1 3.2 2 6.8 0 2.6 0.4 4.9 1 5.2 0.5 0.3 1 3.1 1 6.3v5.7l16 5.5c1.6-7.3 1.8-7.5 5.1-7.2 1.8 0.2 3.6 0.6 3.9 0.8 0.3 0.2 0 1-0.7 1.7-0.6 0.6-1 1.8-0.7 2.5 0.3 1 0.7 1 1.9 0 1.3-1 1.6-1 1.5 0 0 0.6 1 2.2 2.3 3.5 1.7 1.6 3.3 2.1 6 2l3.7-0.3c0 9.3 0.3 10 2 10 1.2 0 2.4-1 3-2.5 0.5-1.4 1.6-2.5 2.2-2.5 0.7 0 2.2 0.6 3.3 1.3 1.2 0.8 6.3 1.7 12.2 2.1l10.3 0.6c0.8-8.9 1.5-13.9 2-16.8 0.9-4.9 0.9-5.3-1.5-7.2-2-1.6-2.5-2.9-2.5-6.5 0-2.5 0.4-5.6 1-7 0.8-2 1.8-2.6 4.7-2.7 3.2-0.3 3.9-0.7 4.1-2.8 0.2-1.4 2.8-5 5.7-8 4.1-4.2 5.6-6.5 6-9.5l0.7-4c-30.5-0.3-33.4-0.1-33.3 1.1zm131.2 122.1c-1.3 0.3-3.2 1.5-4.2 2.6-1 1.2-1.8 2.9-1.8 3.7-0.1 0.8 0.7 2.6 1.7 3.8 1.4 1.9 2.3 2.3 4.7 1.8 2.9-0.6 3-0.8 3.2-6.6 0.1-3.3-0.1-5.9-0.5-5.9-0.4 0.1-1.8 0.4-3.1 0.6zm-355.5 35.9c-1.6 0.8-2.9 2.1-2.8 2.9 0.1 1.1-0.8 1.5-3.3 1.5-2.8 0-3.4 0.3-3 1.8 0.2 0.9 1.5 3.7 2.8 6.2 1.3 2.5 3.2 4.6 4.3 4.8 1 0.2 2.6-0.4 3.4-1.3 0.8-0.9 2.9-1.6 4.6-1.5 1.7 0 3.4-0.2 3.7-0.5 0.4-0.3 0-2.1-0.8-4-0.8-1.9-1.5-5.3-1.5-7.5 0-3.5-0.3-4-2.3-4-1.2 0.1-3.5 0.8-5.1 1.6z"/>
		<path id="Path 17" class="s17" d="m293.8 810.6c-2.7 0.8-7.4 2.9-10.6 4.8-3.1 1.9-8.8 6.3-12.6 9.8-3.8 3.4-9 9.4-11.5 13.3-2.6 3.8-6.9 11.7-9.7 17.5l-5 10.5c0.2 34.1 0.6 38.3 2.5 45.5 1.2 4.7 3.9 11.9 5.9 16 2.6 5.3 5.8 9.6 10.7 14.5 4.7 4.7 9.2 8.1 13.5 10.2 3.6 1.7 9.4 3.9 13 4.8 5 1.3 9.2 1.6 18.5 1.2 10.5-0.4 12.9-0.9 19.5-3.6 4.1-1.7 8.6-3.9 10-4.9 1.4-1.1 2.6-3.1 2.8-4.8 0.2-1.8-0.3-3.4-1.2-4.2-1.3-1-3-0.8-8.9 0.9-3.9 1.2-11 2.3-15.7 2.6-4.7 0.3-11 0-14-0.6-3-0.6-8.2-2.4-11.5-4-3.3-1.6-8.5-5.3-11.5-8.3-3-2.9-6.5-6.7-7.7-8.3-1.3-1.7-3.3-5.5-4.5-8.5-2-4.7-2.3-7.3-2.3-18.5 0-10.5 0.5-14.5 2.3-21 1.3-4.4 3.8-10.7 5.5-13.9 1.8-3.3 5.2-8.1 7.7-10.6 2.5-2.5 6.3-5.4 8.5-6.5 2.4-1.1 6.2-1.9 9.5-1.9 4.2-0.1 6.6 0.6 10.2 2.7 2.7 1.5 5.8 4.2 7 5.9 1.2 1.8 2.8 3.6 3.5 4 0.7 0.5 1.3 1.3 1.3 1.8 0 0.5 1.1 2.7 2.3 4.7 1.3 2.1 3.5 6.9 5 10.8 1.4 3.8 3.6 10.6 4.8 15 1.1 4.4 3.1 13.2 4.3 19.5l2.3 11.5 6.3 0.5c0-10.5-0.5-18.7-1.1-25-0.5-6.3-1.9-17.8-3-25.5-1.1-7.7-2.9-17.6-4-22-1.2-4.4-3.6-11.3-5.5-15.3-2.2-4.6-5.4-9.3-9.2-13.1-4.5-4.6-6.9-6.2-11.2-7.5-3-0.9-6.9-1.6-8.5-1.5-1.6 0-5.1 0.7-7.8 1.5zm211.3 3.2c-2.5 1.6-6.2 4.7-8.3 7-2 2.3-4.7 6.1-5.8 8.4-1.2 2.4-2.4 4.5-2.8 4.8-0.3 0.3-0.8 1.2-1 2-0.2 0.8-0.7 3.1-1.2 5-0.5 1.9-1.5 4.2-2.2 5-0.8 0.8-1.8 2.8-2.4 4.5-0.6 1.6-1.6 5.5-2.2 8.5-0.6 3-1.8 10.5-2.6 16.5-0.9 6-1.9 13.5-2.1 16.5-0.2 3-0.6 7.2-0.9 9.2-0.4 2.9-0.2 3.8 1 3.8 0.8 0 2.7 1.2 4.1 2.7 2.2 2.3 2.8 2.5 3.4 1.3 0.4-0.8 1.5-4.9 2.5-9 0.9-4.1 2.6-10.4 3.6-14 1.1-3.6 2.3-7.4 2.8-8.5 0.5-1.1 2.5-5.8 4.5-10.5 2.2-5.2 5.5-10.6 8.5-14 2.8-3.2 6.8-6.5 9.7-7.9 3.9-1.9 6.1-2.2 10.9-1.9 4.2 0.3 7 1.1 9.5 2.9 2 1.3 5.1 3.9 7 5.6 1.9 1.8 4.3 3.3 5.2 3.3 1 0 1.8-0.7 1.8-1.5 0-0.8-1.3-4.1-2.8-7.3-1.6-3.1-4.1-7.7-5.7-10.2-1.5-2.5-6.3-8-10.6-12.3-4.4-4.2-10.2-8.8-12.9-10.2-2.8-1.4-5.3-2.5-5.8-2.5-0.4 0-2.7 1.3-5.2 2.8zm-214.4 169.9c-0.4 1-0.1 2.3 0.6 2.9 0.7 0.5 3.8 2 6.8 3.2 3 1.2 11.4 3.7 18.5 5.6 7.1 2 14.8 3.8 17 4.2 2.2 0.3 4.9 0.7 6 0.9 1.1 0.1 2.7 0.5 3.5 0.8 0.8 0.3 8 1.2 16 2.1 8 0.8 20.1 2.1 27 2.7 7.2 0.7 17.6 1 24.5 0.6 6.6-0.4 15.8-1.4 20.5-2.2 5.8-1.1 9.2-2.4 10.8-3.8 1.3-1.3 2.2-3.4 2.2-5 0-1.7-0.8-3.2-2.3-4.1-1.2-0.7-6.5-2.1-11.7-3-5.2-0.9-12.9-1.8-17-2-4.1-0.2-13.4 0.5-20.5 1.5-11.4 1.6-13.1 1.7-13.8 0.4-0.6-1.2-3.6-1.5-17-1.5-8.9 0-22.5-0.5-30.2-1-7.7-0.6-18.6-1.7-24.3-2.5-5.6-0.8-11.5-1.5-13.1-1.5-1.9 0-3.1 0.6-3.5 1.7zm75 49.4c0.2 1.3 0.5 4.4 0.9 6.9 0.3 2.5 0.8 6.5 1.1 9 0.4 2.5 0.8 5.6 0.9 7 0.1 1.4 0.3 3.7 0.3 5.2 0.1 1.6 1.1 3.7 2.2 4.8 1.1 1.1 2.7 3.5 3.6 5.2 0.8 1.8 2.6 5.1 4 7.3 1.3 2.2 2.7 4.2 3.1 4.5 0.5 0.3 2.4 3.5 4.3 7.2 1.9 3.7 3.9 6.8 4.5 6.8 0.5 0 3.1 2.1 5.7 4.5 2.7 2.5 5.8 4.5 7 4.5 1.3 0.1 2.9-0.6 3.5-1.5 1-1.2 1-2 0-4-0.9-2-0.9-2.8 0-3.8 1-0.9 1.9-0.7 4 1.4 1.6 1.5 4 3.4 5.5 4.3 2.6 1.5 2.8 1.5 3.3-0.2 0.3-0.9 0.3-2.9 0-4.5-0.3-1.5-0.4-2.7-0.3-2.7 0.2 0 1.8 0.6 3.5 1.5 1.8 0.8 3.6 1.3 4 1.1 0.5-0.2 2.8-4.3 5.3-9 2.5-4.7 4.8-8.6 5.2-8.6 0.5 0 0.8-0.8 0.8-1.8-0.1-0.9 0.6-2.4 1.5-3.2 0.9-0.8 2.9-3.5 4.5-6 1.9-3.1 2.9-6.3 3.3-10.5l0.5-6c-9.5-1.2-14.1-1.5-16.3-1.5-2.2-0.1-4.9-0.7-6-1.5-1.1-0.9-2.6-1.5-3.3-1.5-0.6 0-1.7 1.1-2.2 2.5-0.6 1.5-1.8 2.5-3 2.5-1.7 0-2-0.7-2-5 0-4.7-0.2-5-2.5-5-2.2 0-2.6 0.5-3 4.2-0.3 2.4-0.1 6.5 0.4 9.3 0.5 2.7 1.4 6.2 2 7.7 0.6 1.6 1.1 3.4 1.1 4-0.1 0.7-1 0.2-2.1-1.2-1.1-1.4-2.7-5-3.6-8-1.1-3.8-1.3-7.2-0.9-11 0.6-4.4 0.4-5.8-0.9-7-1.3-1.2-1.8-1.3-2.8-0.2-0.7 0.8-1.2 4.4-1.2 9 0 7.2 0.3 8.1 3.2 12.2 1.8 2.5 3.1 4.6 2.8 4.7-0.3 0.2-1.4-0.2-2.5-0.7-1.1-0.5-3.4-3.8-5-7.3-1.7-3.4-3-7.3-3-8.7 0.1-2.4 0-2.4-2-0.8-1.1 1-2.5 1.6-3 1.3-0.6-0.3-0.9-2.9-0.9-5.8l0.1-5.3c-18.4-6-24.2-7.9-24.8-8.2-0.6-0.3-1 0.5-0.8 1.9z"/>
		<path id="Path 18" class="s18" d="m399.9 712.1c0 0.5-2.7 1-6.1 1.1-5.4 0.3-6.3 0.6-6.7 2.3-0.2 1.1-0.8 2.3-1.5 2.6-0.7 0.4 1.6 4.5 6.4 11.3 4.1 5.8 7.2 10.9 6.8 11.4-0.4 0.4-2.7-0.3-5-1.4-2.4-1.2-5.3-2.4-6.5-2.8-1.6-0.4-2.5-0.1-2.8 0.9-0.3 0.9-2.3 1.7-5.2 2-2.7 0.3-6.5 1-8.5 1.5-2.1 0.6-3.8 1.5-3.8 2 0 0.5 1.7 1.8 3.8 2.9 2 1 5.3 2.2 7.2 2.6 1.9 0.4 4.1 1.2 4.8 1.9 0.7 0.6 1.3 1.4 1.2 1.8 0 0.5-2.1 0.9-4.7 1-3.4 0.1-3.9 0.2-1.5 0.5 1.7 0.1 3.2 0.6 3.2 1 0 0.5-3.2 1.6-7.2 2.7-4 1-10 2.8-13.3 4.1l-6 2.2c-0.4 8.9-1.1 11.4-2.2 12.6-1 1-3.9 2-6.8 2.3-2.7 0.3-6.5 1.2-8.2 2q-3.3 1.4-3.9 4.1c-0.4 1.6-1.4 3.6-2.3 4.6-0.9 1-2.8 1.8-4.3 1.7-1.6 0-3-0.5-3.3-1-0.3-0.5-1.9-1-3.5-1-1.9 0-4.3 1.1-6.5 3-1.9 1.6-3.5 3.6-3.5 4.2 0 0.7 1.7 1.9 3.7 2.7 2.1 0.8 5.7 3.5 8.1 6 2.3 2.5 5.8 7.7 7.6 11.6 1.9 3.9 4.1 10.6 5 15 0.8 4.4 1.4 9.3 1.4 11-0.1 1.6 0.6 6.5 1.5 10.7 0.9 4.3 2.6 14.7 3.7 23 1.2 8.4 2.4 24.3 2.8 35.4l0.7 20.1c-4 1.2-4.6 2.1-4.7 5.3-0.2 2.3 0.1 4.4 0.5 4.8 0.4 0.4 0.7 2 0.5 3.6-0.2 1.7-1.3 3.7-2.8 4.8-1.4 1-5.9 3.2-10 4.9-6.6 2.7-9 3.2-19.5 3.6-9.3 0.4-13.5 0.1-18.5-1.2-3.6-0.9-9.4-3.1-13-4.8-4-2-9.2-5.7-13.5-9.9l-7-6.8c-3.5 3.5-4.5 5.2-4.5 6 0.1 0.8-0.6 2.2-1.5 3-1.4 1.4-1.3 1.8 1.7 4.8 1.8 1.8 6.7 5.5 10.8 8.1 4.1 2.6 8.9 5.3 10.5 6 1.6 0.7 3.6 1 4.3 0.7 0.6-0.3 1.2-1.3 1.2-2.1 0-1 1-1.5 2.8-1.5 1.5-0.1 3.5 0.7 4.4 1.7 1 1 1.8 2.4 1.8 3 0 0.9 2.2 1.4 6.8 1.6 3.7 0.2 11.4-0.1 17.2-0.6 5.8-0.5 11.4-1.3 12.5-1.7 1.1-0.5 5-1.1 8.8-1.4 6.5-0.6 6.7-0.7 6.7-3.4 0-2.1 2-4.5 9.1-11.2l9.1-8.5c-3.1-6.2-4.5-10.5-5.2-13.5-0.7-3.1-1.1-9.2-0.8-14 0.4-7.2 1-9.7 4.1-16.3q3.7-7.7 9.5-13.5c3.1-3.2 7.7-7 10.2-8.5 2.5-1.4 7-3.5 10-4.6 5.4-1.9 5.5-2 5.8-6.3 0.4-4.3 0.4-4.3-2.5-3.6-1.5 0.3-4.6 0.9-6.8 1.3-3.8 0.6-3.9 0.5-2-1 1.1-0.8 3.5-1.8 5.3-2 3-0.5 3.1-0.7 2.2-3-0.9-2.3-0.7-2.6 3.8-4.6 2.6-1.1 7.2-2.5 10.2-3.1 3-0.6 8.8-0.7 12.8-0.4 3.9 0.3 8.7 1.3 10.5 2.2 2.5 1.2 2.9 1.8 1.9 2.7-0.9 0.9-2.4 0.9-6.2-0.1-2.8-0.6-6.1-1.2-7.5-1.2-2 0-2.5 0.5-2.5 2.5 0 2.3 0.4 2.5 5.5 3 3 0.3 5.7 1 6 1.5 0.3 0.5-0.2 1-1 1-0.8 0-1.5 0.8-1.5 1.7 0 1.3 1.3 2.2 4.7 3.1 2.7 0.7 7.2 2.4 10.1 3.7 2.8 1.4 5.2 3 5.2 3.5 0 0.5 1.2 1.2 2.8 1.5 1.7 0.4 3.3 0 4.2-0.9 0.8-0.9 2.5-1.6 3.8-1.6 1.2 0 3.5-0.8 5.1-1.8 2.3-1.3 3.6-1.5 5.8-0.7 1.5 0.6 3.3 2 3.8 3.3 0.7 1.6 1.8 2.2 4.3 2.2 2.8 0 3.3-0.4 3.7-3.3 0.3-1.7 1.4-6.1 2.6-9.7 1.1-3.6 3-7.3 4-8.3 1-0.9 1.9-2.2 1.9-2.7 0-0.5 0.9-2.2 2-3.8 1.5-1.9 1.9-3.5 1.5-5.7-0.4-1.7 0.1-6 0.9-9.8 0.9-3.7 2.7-9.1 4-12 1.4-2.8 4.4-7.4 6.8-10 4.1-4.7 4.2-4.9 2.8-7.5-0.8-1.5-3.1-5.2-5.1-8.2-2-3-6.7-8.4-10.5-12-3.8-3.6-10.3-8.5-14.4-11-4.1-2.4-10.9-5.6-15-7-4.1-1.5-10.7-3.6-14.7-4.6-6.1-1.6-7.4-1.7-9.5-0.5-1.5 0.8-3.8 1.1-6.5 0.7-3.8-0.5-4.3-0.4-4.3 1.4 0 1.2 1 2.4 2.5 3 1.5 0.6 2.4 1.7 2.3 2.7-0.3 1.5-1.8 1.7-13 1.8-7.1 0-12.8-0.3-12.8-0.8 0-0.4 0.8-0.9 1.8-1.2 1.2-0.4 1.6-1.4 1.5-3.5-0.2-2-0.9-3.1-2-3.3-1.3-0.2-0.6-0.9 2.2-2.5 2.2-1.1 3.4-2.1 2.8-2.2-0.7 0-1.3-0.7-1.3-1.5 0-0.8 1.3-2.3 3-3.3 2.6-1.5 3-2.2 3-6.2-0.1-3.6-0.7-5.2-3-7.8-2.1-2.3-3-4.2-3-6.7q0-3.5 1.8-4.4c1.4-0.7 1.5-1.2 0.5-2.5-1-1.3-1-1.9 0-3.1 1-1.3 0.8-1.9-0.8-3.5-1.1-1.1-2.8-2.2-3.9-2.4-1-0.2-1.8 0-1.7 0.5zm196.2 35.7c-1.9 9.2-3.7 18.7-4.2 21.2-0.4 2.5-1.9 11-3.3 19-1.5 8-3.2 15.1-3.9 15.8-0.6 0.7-2 1.3-2.9 1.2-1 0-2 0.8-2.3 1.7-0.2 1-0.9 5.8-1.5 10.8l-1.1 9c4.3 4.3 6.1 5.5 6.6 5.5 0.5 0 1.9-0.9 3-2 1.4-1.4 4.5-2.2 10.5-2.9 5-0.6 9.1-1.7 10-2.5 0.8-0.9 3.1-1.6 5-1.6h3.5c-1.2-17.4-2.9-32.9-4.6-45.5-1.6-12.7-3.4-25.7-3.9-29-0.5-3.3-1.2-8.6-1.5-11.8-0.5-5.4-0.6-5.7-3.2-5.7h-2.8zm-381.6 1.5c-0.2 0.7-2 9.1-3.9 18.8-1.9 9.6-4.2 22.6-5 29-0.8 6.3-1.6 16.6-1.7 23l-0.3 11.5c4.2 0.3 6.4-0.1 7.6-0.7 1.3-0.7 4.5-1.5 7.3-1.8l5-0.5c1.2-11.7 1.2-19.8 0.9-25.5-0.3-5.8-0.7-12.2-1-14.3-0.4-3.5-0.6-3.7-3.7-3.7-1.7 0-3.8-0.6-4.5-1.3-0.8-0.7-1.2-3.9-1.3-8.2 0-5.5 0.4-7.4 1.8-8.8 1-0.9 2.4-1.7 3-1.7 0.7 0 1.1-0.8 0.9-1.8-0.2-1-0.9-4.8-1.4-8.5-0.6-3.7-1.5-6.7-2.2-6.7-0.6 0-1.2 0.5-1.5 1.2zm28.5 120.8c0 0.5-0.2 1.3-0.3 1.7-0.2 0.4-0.7 1.4-1 2.3-0.4 0.8-1.3 3.5-2.1 6-0.8 2.4-2.2 7.4-3.1 11-0.9 3.7-1.7 11-1.8 17 0 5.7 0.2 13.7 0.6 17.7 0.6 6.4 0.9 7.3 2.7 7.3 1.1 0 2.2 0.5 2.4 1.2 0.3 1 0.6 1 1.7 0 0.7-0.7 3.8-1.2 7.1-1.2 3.2 0 5.8-0.2 5.8-0.3 0-0.1-1.3-2.9-2.9-6.2-1.7-3.3-4.1-10.1-5.3-15-2-7.8-2.3-11.4-2.2-25.8 0-9.2-0.3-16.7-0.8-16.7-0.4 0-0.8 0.4-0.8 1zm-73.1 22.2c0 0.7 0.7 1.8 1.5 2.5 1 0.8 1.8 0.9 2.1 0.3 0.3-0.6-0.1-1.7-0.8-2.6-0.6-0.8-1.5-1.5-2-1.5-0.4 0-0.7 0.6-0.8 1.3zm20.7 19c-1.7 1.2-1.6 1.4 1 3.1 2.7 1.7 3 1.7 4.4 0.2 1.3-1.5 1.3-1.8-0.5-3.1-1.1-0.8-2.2-1.5-2.5-1.5-0.3 0.1-1.4 0.6-2.4 1.3zm129.9 113.7c-1.1 0.4-3 1.1-4.3 1.4-1.2 0.4-2.2 1.1-2.2 1.7 0 0.5 0.4 1.2 1 1.5 0.6 0.3 0.4 2-0.5 4.7-0.8 2.3-3.7 11-6.4 19.3-2.7 8.2-5.7 18.1-6.6 22-0.9 3.8-2.2 7.6-2.8 8.4-0.7 0.7-1.1 2.6-1 4.2 0.2 1.6-0.2 3.1-0.7 3.4-0.6 0.2-1 1.9-1 3.7 0 1.8-0.5 3.8-1.2 4.5-0.7 0.7-1.9 1.3-2.8 1.3-1.2-0.1-1.7 1.8-2.3 8.7-0.4 4.8-0.4 11.9 0.1 15.8 0.5 3.8 1.2 7.5 1.5 8.2 0.4 0.7 1.6 1.3 2.7 1.3 1.1 0 2.2-0.5 2.5-1 0.3-0.6 2-1 3.7-1.1 1.8 0 3.9 0.6 4.6 1.3 0.7 0.7 1.2 2.8 1.3 4.8 0 1.9-0.7 4-1.6 4.7-1.3 1.1-1 1.9 2.7 6.4 2.4 2.8 6.3 6.6 8.8 8.5 2.5 1.8 4.8 3.3 5.2 3.3 0.5 0 0.9-1 1-2.2 0.3-2.1 0.8-2.3 8.8-2.5 4.7-0.2 8.9-0.8 9.4-1.3 0.6-0.5 2.1-0.9 3.5-0.9 1.4 0 3.5-0.9 4.6-2 1.1-1.2 2.8-2.1 3.7-2.1 1 0 2-0.4 2.3-0.9 0.3-0.6 1.6-1 3-1 1.8 0 3.7-1.4 6.4-4.8 3.9-4.6 4-5 4-12.5 0.1-7.4 0.2-7.9 3.8-12.3 2.3-2.7 4.6-4.5 5.8-4.5 1.8 0.1 1.9-0.3 1.2-4.2-0.4-2.3-2.6-9.6-4.8-16.2-2.3-6.6-6.1-16.3-8.7-21.5-2.9-6-4.1-9.6-3.4-9.8 0.7-0.1 1.2-0.9 1.2-1.7 0-0.9-0.4-2.3-0.9-3.3-0.6-1-1.5-4-2.1-6.7-0.8-3.6-0.8-5.1-0.1-5.3 0.6-0.1 1.1-1.3 1.1-2.5-0.1-1.2-0.6-3.2-1.3-4.4-0.7-1.2-3-3.6-5.2-5.4-2.2-1.8-6.9-4.6-10.5-6.3-5.2-2.5-8-3.1-14-3.3-4.1-0.1-8.4 0.1-9.5 0.6zm137.4 26.9c-1.3 1-3 3.4-3.8 5.3-0.8 1.8-2 4-2.7 4.9-0.8 0.8-2.3 3.8-3.4 6.7-1.2 3.2-1.6 5.5-1 5.8 0.5 0.2 1 1.7 1 3.2 0 1.5-0.9 3.7-2 4.8-1.7 1.6-2.1 3.2-2 8.5 0 3.8-0.5 7-1.2 7.7-0.7 0.7-2.2 1.3-3.5 1.3-1.3 0-3.2 1.1-4.3 2.5-1.2 1.5-2.9 2.4-4.2 2.2-1.4-0.1-2.3 0.3-2.3 1.3 0 0.8-1.1 4.6-2.4 8.5-1.3 3.8-2.7 7.4-3.1 8-0.5 0.5-1.1 3.1-1.4 5.7-0.5 4.1-0.4 4.8 1.1 4.7 1 0 2.3 0.6 3 1.3 0.7 0.7 1.5 4.4 1.9 8.3 0.4 4.2 1.3 7.7 2.3 8.7 0.9 1 2 1.8 2.6 1.8 0.5 0 2.7 1.7 4.8 3.7 3.5 3.5 4.2 3.8 9.5 3.7 3.1-0.1 9.8-0.6 14.8-1 6.9-0.7 9.5-0.6 10.8 0.3 1.3 1.1 1.9 0.8 3.7-1.5 1.1-1.5 3.8-6.3 5.9-10.7 2-4.4 4.8-11.6 6.1-16 2.1-7.1 2.4-9.9 2.3-24.5-0.1-15.1-0.3-17.3-2.8-25.5-1.5-5-4.6-12.6-6.9-16.9-2.3-4.4-5.9-9.5-8-11.3-3-2.7-4.5-3.3-8.1-3.3-2.6 0-5.2 0.7-6.7 1.8zm-169.5 23.4c-1.8 1.2-4.9 3.6-7 5.2-2.2 1.7-5.3 4.1-7 5.5-2.6 2.1-2.9 2.9-2 4.3 0.6 0.9 1.5 1.7 2.1 1.8 0.5 0 1.7-0.7 2.5-1.5 0.8-0.9 3-1.6 4.7-1.6 1.8 0 3.5 0.5 3.8 1.1 0.3 0.5 0.8 1 1.2 1 0.5 0 1.3-1.9 2-4.3 0.7-2.3 1.8-6.4 2.5-9 0.7-2.6 1.1-4.7 0.8-4.7-0.3-0.1-1.9 1-3.6 2.2zm-28.1 11c-0.8 0.9-0.7 2 0.5 4.3 1 1.8 1.7 5.3 1.7 8.7 0 5.5 0.1 5.8 2.5 5.7 1.4 0 3 0.6 3.7 1.3 0.9 1 1.7 0.6 4-2.1 2.1-2.6 3.9-3.5 7.3-4.1l4.5-0.6c-5.7-3.6-8.6-4.4-11.3-4.4-3.4 0-4.5-0.5-6-2.6-0.9-1.4-2.6-3.7-3.7-5.1-1.6-2-2.2-2.2-3.2-1.1zm289.5 6.2c-0.7 0.7-4.2 2.3-7.8 3.6l-6.5 2.4c4.6 1.8 6.9 3.3 8 4.5 1.1 1.2 2.9 2.1 4 2.1 1.1 0 3.3-0.3 5-0.6 2.8-0.5 3-0.9 3.1-5.3 0.2-3.9-0.2-5-2.1-6.4-1.9-1.3-2.6-1.4-3.7-0.3zm-335.8 10.8c-2.4 2.4-4.3 5-4.2 5.8 0.2 1.3 0.1 1.3-1.3 0-1.4-1.4-1.8-1.3-3.5 0.2-2 1.8-2 1.8 0 6 1.1 2.3 2 6.1 2 8.3 0 3-0.6 4.6-2.7 6.7-1.6 1.5-4.3 3-6.1 3.5-1.8 0.4-3.1 1.2-2.9 1.8 0.3 0.5 1 3 1.6 5.5 0.7 2.4 1.7 5.7 2.4 7.3 1 2.3 1.8 2.7 4.9 2.7 2.7 0 3.8-0.5 3.8-1.5 0-0.9 1.3-2.2 3-3 1.6-0.9 3.8-1.5 4.7-1.5 1.3 0 2-1.2 2.6-4.3 0.4-2.3 1.8-6 3.1-8.2 1.3-2.2 3.5-4.9 5-6 2.6-2 2.6-2.1 1.2-5-0.9-1.7-1.6-4.6-1.6-6.5-0.1-2.3 0.7-4.2 2-5.5 1.1-1.1 2.1-2.9 2.1-4 0-1.1-0.8-2.8-1.8-3.7-1-1-3.6-2-5.8-2.4-3.7-0.5-4.3-0.3-8.5 3.8zm25.8 5.5c-0.9 1-1.8 4.3-2.2 7.5l-0.6 5.8c9.3 0 13.7 0.7 15.7 1.5 3.7 1.5 3.9 1.5 5.5-0.8 1-1.2 1.8-2.6 1.8-3 0-0.4-0.9-2.8-2-5.2-1.7-3.9-2.5-4.6-5.5-5-1.9-0.3-4-0.3-4.5 0-0.6 0.2-2.1-0.2-3.5-1-1.4-0.9-2.7-1.5-2.9-1.5-0.2 0-1 0.7-1.8 1.7z"/>
		<path id="Path 19" class="s3" d="m576 1136.8c0.1 2.3 0.2 2.4 1 1 0.6-1 2.2-1.8 3.8-1.9l2.7-0.1c-3.9-1.2-5.6-1.6-6.3-1.7-0.7-0.1-1.2 1-1.2 2.7z"/>
		<path id="Path 20" class="s8" d="m298.3 857c-1.8 1.1-4 3.5-5 5.3-0.9 1.7-1.5 5-1.4 7.2 0.1 2.2 1 5.4 2 7 1.1 1.6 3.4 4.2 5.3 5.8 1.8 1.5 4.4 2.8 5.8 2.8 1.4 0.1 3.6 0 5-0.1 1.4-0.1 3.3-0.9 4.4-1.8 1-1 2.4-2.9 3.2-4.4 0.8-1.6 1.4-4.4 1.4-6.3 0-1.9-0.7-5-1.6-6.7-0.9-1.8-2.6-4.4-3.8-5.6-1.1-1.3-3.3-3-4.9-3.8-1.5-0.8-3.7-1.4-5-1.4-1.2 0-3.7 0.9-5.5 2z"/>
		<path id="Path 21" class="s13" d="m526.5 1073.7c-0.5 0.3-0.8 2.2-0.7 4.2 0.1 2 0.7 5.2 1.3 7.1 0.6 1.9 1.7 4.1 2.3 4.8 0.9 1.1 1.6 1.1 3.9 0 2.3-1.1 3.5-1.1 6.5 0 3.5 1.3 3.9 1.2 6-1 1.2-1.3 2.2-3.3 2.2-4.6 0-1.5-1.5-3.2-4.8-5.4-2.6-1.7-6.2-3.8-8-4.5-1.7-0.7-4.2-1.3-5.5-1.3-1.3 0-2.7 0.3-3.2 0.7z"/>
	</g>
</svg>